%TF.GenerationSoftware,KiCad,Pcbnew,9.0.6*%
%TF.CreationDate,2026-01-09T06:42:04-06:00*%
%TF.ProjectId,weather_station1,77656174-6865-4725-9f73-746174696f6e,V1.10*%
%TF.SameCoordinates,Original*%
%TF.FileFunction,Copper,L1,Top*%
%TF.FilePolarity,Positive*%
%FSLAX46Y46*%
G04 Gerber Fmt 4.6, Leading zero omitted, Abs format (unit mm)*
G04 Created by KiCad (PCBNEW 9.0.6) date 2026-01-09 06:42:04*
%MOMM*%
%LPD*%
G01*
G04 APERTURE LIST*
%TA.AperFunction,ComponentPad*%
%ADD10R,3.010000X1.510000*%
%TD*%
%TA.AperFunction,ComponentPad*%
%ADD11C,1.879600*%
%TD*%
%TA.AperFunction,ComponentPad*%
%ADD12R,2.175000X2.175000*%
%TD*%
%TA.AperFunction,ComponentPad*%
%ADD13C,2.175000*%
%TD*%
%TA.AperFunction,ComponentPad*%
%ADD14R,1.354000X1.354000*%
%TD*%
%TA.AperFunction,ComponentPad*%
%ADD15C,1.354000*%
%TD*%
%TA.AperFunction,ComponentPad*%
%ADD16R,2.000000X2.000000*%
%TD*%
%TA.AperFunction,Conductor*%
%ADD17C,0.508000*%
%TD*%
G04 APERTURE END LIST*
D10*
%TO.P,U1,1,VCC*%
%TO.N,5V*%
X160115000Y-99613000D03*
%TO.P,U1,2,GND*%
%TO.N,GND*%
X160115000Y-102150500D03*
%TO.P,U1,3,V3V*%
%TO.N,/3.3V*%
X160115000Y-104688000D03*
%TO.P,U1,4,IO0*%
%TO.N,/BAT_LEVEL*%
X160115000Y-107225500D03*
%TO.P,U1,5,IO1*%
%TO.N,/D{slash}C*%
X160115000Y-109763000D03*
%TO.P,U1,6,IO2*%
%TO.N,unconnected-(U1-IO2-Pad6)*%
X160115000Y-112300500D03*
%TO.P,U1,7,IO3*%
%TO.N,/BUSY*%
X160115000Y-114838000D03*
%TO.P,U1,8,IO4*%
%TO.N,/SCL*%
X160115000Y-117375500D03*
%TO.P,U1,9,IO5*%
%TO.N,unconnected-(U1-IO5-Pad9)*%
X160115000Y-119913000D03*
%TO.P,U1,10,IO6*%
%TO.N,/SDA*%
X175215000Y-119913000D03*
%TO.P,U1,11,IO7*%
%TO.N,/CS*%
X175215000Y-117375500D03*
%TO.P,U1,12,IO8*%
%TO.N,/RES*%
X175215000Y-114838000D03*
%TO.P,U1,13,IO9*%
%TO.N,unconnected-(U1-IO9-Pad13)*%
X175215000Y-112300500D03*
%TO.P,U1,14,IO10*%
%TO.N,Net-(U1-IO10)*%
X175215000Y-109763000D03*
%TO.P,U1,15,IO18*%
%TO.N,unconnected-(U1-IO18-Pad15)*%
X175215000Y-107225500D03*
%TO.P,U1,16,IO19*%
%TO.N,unconnected-(U1-IO19-Pad16)*%
X175215000Y-104688000D03*
%TO.P,U1,17,IO20*%
%TO.N,unconnected-(U1-IO20-Pad17)*%
X175215000Y-102150500D03*
%TO.P,U1,18,IO21*%
%TO.N,unconnected-(U1-IO21-Pad18)*%
X175215000Y-99613000D03*
%TD*%
D11*
%TO.P,R3,2*%
%TO.N,Net-(D1-A)*%
X153670000Y-106162000D03*
%TO.P,R3,1*%
%TO.N,Net-(U1-IO10)*%
X153670000Y-113782000D03*
%TD*%
%TO.P,D1,2,A*%
%TO.N,Net-(D1-A)*%
X152400000Y-99314000D03*
%TO.P,D1,1,K*%
%TO.N,GND*%
X154940000Y-99314000D03*
%TD*%
%TO.P,J1,8,Pin_8*%
%TO.N,/BUSY*%
X181356000Y-124714000D03*
%TO.P,J1,7,Pin_7*%
%TO.N,/RES*%
X181356000Y-122174000D03*
%TO.P,J1,6,Pin_6*%
%TO.N,/D{slash}C*%
X181356000Y-119634000D03*
%TO.P,J1,5,Pin_5*%
%TO.N,/CS*%
X181356000Y-117094000D03*
%TO.P,J1,4,Pin_4*%
%TO.N,/SCL*%
X181356000Y-114554000D03*
%TO.P,J1,3,Pin_3*%
%TO.N,/SDA*%
X181356000Y-112014000D03*
%TO.P,J1,2,Pin_2*%
%TO.N,GND*%
X181356000Y-109474000D03*
%TO.P,J1,1,Pin_1*%
%TO.N,/3.3V*%
X181356000Y-106934000D03*
%TD*%
D12*
%TO.P,J3,1,1*%
%TO.N,/BAT_OUT*%
X140666000Y-115612750D03*
D13*
%TO.P,J3,2,2*%
%TO.N,GND*%
X140666000Y-118152750D03*
%TD*%
D14*
%TO.P,SW1,1,NC*%
%TO.N,unconnected-(SW1-NC-Pad1)*%
X146772000Y-100838000D03*
D15*
%TO.P,SW1,2,COM*%
%TO.N,/BAT_OUT*%
X144272000Y-100838000D03*
%TO.P,SW1,3,NO*%
%TO.N,/BAT+*%
X141772000Y-100838000D03*
%TD*%
D11*
%TO.P,R1,1*%
%TO.N,/BAT_LEVEL*%
X147320000Y-115052000D03*
%TO.P,R1,2*%
%TO.N,/BAT_OUT*%
X147320000Y-107432000D03*
%TD*%
%TO.P,R2,1*%
%TO.N,GND*%
X147320000Y-126990000D03*
%TO.P,R2,2*%
%TO.N,/BAT_LEVEL*%
X147320000Y-119370000D03*
%TD*%
D16*
%TO.P,U2,1,VOUT+*%
%TO.N,5V*%
X134672000Y-97536000D03*
%TO.P,U2,2,VOUT-*%
%TO.N,GND*%
X125872000Y-97536000D03*
%TO.P,U2,3,IN+*%
%TO.N,unconnected-(U2-IN+-Pad3)*%
X119872000Y-97536000D03*
%TO.P,U2,4,IN-*%
%TO.N,unconnected-(U2-IN--Pad4)*%
X103872000Y-97536000D03*
%TO.P,U2,5,BAT-*%
%TO.N,GND*%
X106872000Y-118236000D03*
%TO.P,U2,6,BAT+*%
%TO.N,/BAT+*%
X116872000Y-118236000D03*
%TD*%
D17*
%TO.N,GND*%
X147584000Y-127254000D02*
X147320000Y-126990000D01*
%TO.N,5V*%
X159512000Y-97536000D02*
X160160000Y-98184000D01*
X134672000Y-97536000D02*
X159512000Y-97536000D01*
X160160000Y-99568000D02*
X160160000Y-98184000D01*
%TO.N,/BAT_OUT*%
X147320000Y-108958750D02*
X147320000Y-107432000D01*
X140666000Y-115612750D02*
X147320000Y-108958750D01*
%TO.N,/BAT+*%
X116872000Y-114840000D02*
X116872000Y-118236000D01*
X121158000Y-110490000D02*
X116840000Y-114808000D01*
X141772000Y-104354000D02*
X135636000Y-110490000D01*
X135636000Y-110490000D02*
X121158000Y-110490000D01*
X141772000Y-100838000D02*
X141772000Y-104354000D01*
X116840000Y-114808000D02*
X116872000Y-114840000D01*
%TO.N,/BAT_LEVEL*%
X149362000Y-115052000D02*
X147320000Y-115052000D01*
X157233500Y-107180500D02*
X149362000Y-115052000D01*
X160160000Y-107180500D02*
X157233500Y-107180500D01*
%TO.N,Net-(D1-A)*%
X152400000Y-104892000D02*
X152400000Y-99314000D01*
X153670000Y-106162000D02*
X152400000Y-104892000D01*
%TO.N,/BAT_OUT*%
X144272000Y-104384000D02*
X144272000Y-100838000D01*
X147320000Y-107432000D02*
X144272000Y-104384000D01*
%TO.N,/BAT_LEVEL*%
X147320000Y-115052000D02*
X147320000Y-118354000D01*
%TO.N,/BUSY*%
X156972000Y-122936000D02*
X158750000Y-124714000D01*
X156972000Y-115570000D02*
X156972000Y-122936000D01*
X157749000Y-114793000D02*
X156972000Y-115570000D01*
X158750000Y-124714000D02*
X181356000Y-124714000D01*
X160160000Y-114793000D02*
X157749000Y-114793000D01*
%TO.N,/D{slash}C*%
X172120000Y-121320000D02*
X172120000Y-117438000D01*
X173228000Y-122428000D02*
X172120000Y-121320000D01*
X176784000Y-122428000D02*
X173228000Y-122428000D01*
X179578000Y-119634000D02*
X176784000Y-122428000D01*
X181356000Y-119634000D02*
X179578000Y-119634000D01*
X164400000Y-109718000D02*
X172120000Y-117438000D01*
X160160000Y-109718000D02*
X164400000Y-109718000D01*
%TO.N,/SDA*%
X175260000Y-119868000D02*
X175748000Y-119380000D01*
%TO.N,/CS*%
X179107000Y-117094000D02*
X178870500Y-117330500D01*
X181356000Y-117094000D02*
X179107000Y-117094000D01*
%TO.N,/3.3V*%
X163073000Y-104643000D02*
X160160000Y-104643000D01*
X164846000Y-102870000D02*
X163073000Y-104643000D01*
X164846000Y-100076000D02*
X164846000Y-102870000D01*
X167640000Y-97282000D02*
X164846000Y-100076000D01*
X176530000Y-97282000D02*
X167640000Y-97282000D01*
X177800000Y-98552000D02*
X176530000Y-97282000D01*
X177800000Y-101092000D02*
X177800000Y-98552000D01*
X181356000Y-104648000D02*
X177800000Y-101092000D01*
X181356000Y-106934000D02*
X181356000Y-104648000D01*
%TO.N,/SDA*%
X175370000Y-119978000D02*
X175260000Y-119868000D01*
%TO.N,/CS*%
X175260000Y-117330500D02*
X178870500Y-117330500D01*
%TO.N,/SDA*%
X175260000Y-119868000D02*
X175404000Y-119724000D01*
%TD*%
M02*
