%TF.GenerationSoftware,KiCad,Pcbnew,9.0.6*%
%TF.CreationDate,2026-01-09T06:41:58-06:00*%
%TF.ProjectId,weather_station1,77656174-6865-4725-9f73-746174696f6e,V1.10*%
%TF.SameCoordinates,Original*%
%TF.FileFunction,Drillmap*%
%TF.FilePolarity,Positive*%
%FSLAX45Y45*%
G04 Gerber Fmt 4.5, Leading zero omitted, Abs format (unit mm)*
G04 Created by KiCad (PCBNEW 9.0.6) date 2026-01-09 06:41:58*
%MOMM*%
%LPD*%
G01*
G04 APERTURE LIST*
%ADD10C,0.050000*%
%ADD11C,0.200000*%
%ADD12C,0.275000*%
G04 APERTURE END LIST*
D10*
X19304000Y-9601200D02*
X19304000Y-13512800D01*
X8432800Y-9601200D02*
X8432800Y-13508000D01*
X19304000Y-13512800D02*
X8432800Y-13508000D01*
X8432800Y-9601200D02*
X19304000Y-9601200D01*
D11*
D12*
X8600100Y-9768500D02*
X8875100Y-10043500D01*
X8875100Y-9768500D02*
X8600100Y-10043500D01*
X8600100Y-13070500D02*
X8875100Y-13345500D01*
X8875100Y-13070500D02*
X8600100Y-13345500D01*
X9514500Y-9768500D02*
X9789500Y-10043500D01*
X9789500Y-9768500D02*
X9514500Y-10043500D01*
X9514500Y-13070500D02*
X9789500Y-13345500D01*
X9789500Y-13070500D02*
X9514500Y-13345500D01*
X17996100Y-9768500D02*
X18271100Y-10043500D01*
X18271100Y-9768500D02*
X17996100Y-10043500D01*
X17996100Y-13070500D02*
X18271100Y-13345500D01*
X18271100Y-13070500D02*
X17996100Y-13345500D01*
X18861700Y-9768500D02*
X19136700Y-10043500D01*
X19136700Y-9768500D02*
X18861700Y-10043500D01*
X18861700Y-13070500D02*
X19136700Y-13345500D01*
X19136700Y-13070500D02*
X18861700Y-13345500D01*
D11*
X8691077Y-13826784D02*
X8691077Y-13626784D01*
X8691077Y-13626784D02*
X8738696Y-13626784D01*
X8738696Y-13626784D02*
X8767267Y-13636308D01*
X8767267Y-13636308D02*
X8786315Y-13655355D01*
X8786315Y-13655355D02*
X8795839Y-13674403D01*
X8795839Y-13674403D02*
X8805363Y-13712498D01*
X8805363Y-13712498D02*
X8805363Y-13741069D01*
X8805363Y-13741069D02*
X8795839Y-13779165D01*
X8795839Y-13779165D02*
X8786315Y-13798212D01*
X8786315Y-13798212D02*
X8767267Y-13817260D01*
X8767267Y-13817260D02*
X8738696Y-13826784D01*
X8738696Y-13826784D02*
X8691077Y-13826784D01*
X8891077Y-13826784D02*
X8891077Y-13693450D01*
X8891077Y-13731546D02*
X8900601Y-13712498D01*
X8900601Y-13712498D02*
X8910124Y-13702974D01*
X8910124Y-13702974D02*
X8929172Y-13693450D01*
X8929172Y-13693450D02*
X8948220Y-13693450D01*
X9014886Y-13826784D02*
X9014886Y-13693450D01*
X9014886Y-13626784D02*
X9005363Y-13636308D01*
X9005363Y-13636308D02*
X9014886Y-13645831D01*
X9014886Y-13645831D02*
X9024410Y-13636308D01*
X9024410Y-13636308D02*
X9014886Y-13626784D01*
X9014886Y-13626784D02*
X9014886Y-13645831D01*
X9138696Y-13826784D02*
X9119648Y-13817260D01*
X9119648Y-13817260D02*
X9110124Y-13798212D01*
X9110124Y-13798212D02*
X9110124Y-13626784D01*
X9243458Y-13826784D02*
X9224410Y-13817260D01*
X9224410Y-13817260D02*
X9214886Y-13798212D01*
X9214886Y-13798212D02*
X9214886Y-13626784D01*
X9472029Y-13826784D02*
X9472029Y-13626784D01*
X9472029Y-13626784D02*
X9538696Y-13769641D01*
X9538696Y-13769641D02*
X9605363Y-13626784D01*
X9605363Y-13626784D02*
X9605363Y-13826784D01*
X9786315Y-13826784D02*
X9786315Y-13722022D01*
X9786315Y-13722022D02*
X9776791Y-13702974D01*
X9776791Y-13702974D02*
X9757744Y-13693450D01*
X9757744Y-13693450D02*
X9719648Y-13693450D01*
X9719648Y-13693450D02*
X9700601Y-13702974D01*
X9786315Y-13817260D02*
X9767267Y-13826784D01*
X9767267Y-13826784D02*
X9719648Y-13826784D01*
X9719648Y-13826784D02*
X9700601Y-13817260D01*
X9700601Y-13817260D02*
X9691077Y-13798212D01*
X9691077Y-13798212D02*
X9691077Y-13779165D01*
X9691077Y-13779165D02*
X9700601Y-13760117D01*
X9700601Y-13760117D02*
X9719648Y-13750593D01*
X9719648Y-13750593D02*
X9767267Y-13750593D01*
X9767267Y-13750593D02*
X9786315Y-13741069D01*
X9881553Y-13693450D02*
X9881553Y-13893450D01*
X9881553Y-13702974D02*
X9900601Y-13693450D01*
X9900601Y-13693450D02*
X9938696Y-13693450D01*
X9938696Y-13693450D02*
X9957744Y-13702974D01*
X9957744Y-13702974D02*
X9967267Y-13712498D01*
X9967267Y-13712498D02*
X9976791Y-13731546D01*
X9976791Y-13731546D02*
X9976791Y-13788688D01*
X9976791Y-13788688D02*
X9967267Y-13807736D01*
X9967267Y-13807736D02*
X9957744Y-13817260D01*
X9957744Y-13817260D02*
X9938696Y-13826784D01*
X9938696Y-13826784D02*
X9900601Y-13826784D01*
X9900601Y-13826784D02*
X9881553Y-13817260D01*
X10062505Y-13807736D02*
X10072029Y-13817260D01*
X10072029Y-13817260D02*
X10062505Y-13826784D01*
X10062505Y-13826784D02*
X10052982Y-13817260D01*
X10052982Y-13817260D02*
X10062505Y-13807736D01*
X10062505Y-13807736D02*
X10062505Y-13826784D01*
X10062505Y-13702974D02*
X10072029Y-13712498D01*
X10072029Y-13712498D02*
X10062505Y-13722022D01*
X10062505Y-13722022D02*
X10052982Y-13712498D01*
X10052982Y-13712498D02*
X10062505Y-13702974D01*
X10062505Y-13702974D02*
X10062505Y-13722022D01*
X8230300Y-14055300D02*
X8430300Y-14255300D01*
X8430300Y-14055300D02*
X8230300Y-14255300D01*
X8681553Y-14065831D02*
X8691077Y-14056308D01*
X8691077Y-14056308D02*
X8710124Y-14046784D01*
X8710124Y-14046784D02*
X8757744Y-14046784D01*
X8757744Y-14046784D02*
X8776791Y-14056308D01*
X8776791Y-14056308D02*
X8786315Y-14065831D01*
X8786315Y-14065831D02*
X8795839Y-14084879D01*
X8795839Y-14084879D02*
X8795839Y-14103927D01*
X8795839Y-14103927D02*
X8786315Y-14132498D01*
X8786315Y-14132498D02*
X8672029Y-14246784D01*
X8672029Y-14246784D02*
X8795839Y-14246784D01*
X8881553Y-14227736D02*
X8891077Y-14237260D01*
X8891077Y-14237260D02*
X8881553Y-14246784D01*
X8881553Y-14246784D02*
X8872029Y-14237260D01*
X8872029Y-14237260D02*
X8881553Y-14227736D01*
X8881553Y-14227736D02*
X8881553Y-14246784D01*
X8957744Y-14046784D02*
X9091077Y-14046784D01*
X9091077Y-14046784D02*
X9005363Y-14246784D01*
X9262505Y-14046784D02*
X9167267Y-14046784D01*
X9167267Y-14046784D02*
X9157744Y-14142022D01*
X9157744Y-14142022D02*
X9167267Y-14132498D01*
X9167267Y-14132498D02*
X9186315Y-14122974D01*
X9186315Y-14122974D02*
X9233934Y-14122974D01*
X9233934Y-14122974D02*
X9252982Y-14132498D01*
X9252982Y-14132498D02*
X9262505Y-14142022D01*
X9262505Y-14142022D02*
X9272029Y-14161069D01*
X9272029Y-14161069D02*
X9272029Y-14208688D01*
X9272029Y-14208688D02*
X9262505Y-14227736D01*
X9262505Y-14227736D02*
X9252982Y-14237260D01*
X9252982Y-14237260D02*
X9233934Y-14246784D01*
X9233934Y-14246784D02*
X9186315Y-14246784D01*
X9186315Y-14246784D02*
X9167267Y-14237260D01*
X9167267Y-14237260D02*
X9157744Y-14227736D01*
X9395839Y-14046784D02*
X9414886Y-14046784D01*
X9414886Y-14046784D02*
X9433934Y-14056308D01*
X9433934Y-14056308D02*
X9443458Y-14065831D01*
X9443458Y-14065831D02*
X9452982Y-14084879D01*
X9452982Y-14084879D02*
X9462505Y-14122974D01*
X9462505Y-14122974D02*
X9462505Y-14170593D01*
X9462505Y-14170593D02*
X9452982Y-14208688D01*
X9452982Y-14208688D02*
X9443458Y-14227736D01*
X9443458Y-14227736D02*
X9433934Y-14237260D01*
X9433934Y-14237260D02*
X9414886Y-14246784D01*
X9414886Y-14246784D02*
X9395839Y-14246784D01*
X9395839Y-14246784D02*
X9376791Y-14237260D01*
X9376791Y-14237260D02*
X9367267Y-14227736D01*
X9367267Y-14227736D02*
X9357744Y-14208688D01*
X9357744Y-14208688D02*
X9348220Y-14170593D01*
X9348220Y-14170593D02*
X9348220Y-14122974D01*
X9348220Y-14122974D02*
X9357744Y-14084879D01*
X9357744Y-14084879D02*
X9367267Y-14065831D01*
X9367267Y-14065831D02*
X9376791Y-14056308D01*
X9376791Y-14056308D02*
X9395839Y-14046784D01*
X9548220Y-14246784D02*
X9548220Y-14113450D01*
X9548220Y-14132498D02*
X9557744Y-14122974D01*
X9557744Y-14122974D02*
X9576791Y-14113450D01*
X9576791Y-14113450D02*
X9605363Y-14113450D01*
X9605363Y-14113450D02*
X9624410Y-14122974D01*
X9624410Y-14122974D02*
X9633934Y-14142022D01*
X9633934Y-14142022D02*
X9633934Y-14246784D01*
X9633934Y-14142022D02*
X9643458Y-14122974D01*
X9643458Y-14122974D02*
X9662505Y-14113450D01*
X9662505Y-14113450D02*
X9691077Y-14113450D01*
X9691077Y-14113450D02*
X9710125Y-14122974D01*
X9710125Y-14122974D02*
X9719648Y-14142022D01*
X9719648Y-14142022D02*
X9719648Y-14246784D01*
X9814886Y-14246784D02*
X9814886Y-14113450D01*
X9814886Y-14132498D02*
X9824410Y-14122974D01*
X9824410Y-14122974D02*
X9843458Y-14113450D01*
X9843458Y-14113450D02*
X9872029Y-14113450D01*
X9872029Y-14113450D02*
X9891077Y-14122974D01*
X9891077Y-14122974D02*
X9900601Y-14142022D01*
X9900601Y-14142022D02*
X9900601Y-14246784D01*
X9900601Y-14142022D02*
X9910125Y-14122974D01*
X9910125Y-14122974D02*
X9929172Y-14113450D01*
X9929172Y-14113450D02*
X9957744Y-14113450D01*
X9957744Y-14113450D02*
X9976791Y-14122974D01*
X9976791Y-14122974D02*
X9986315Y-14142022D01*
X9986315Y-14142022D02*
X9986315Y-14246784D01*
X10376791Y-14037260D02*
X10205363Y-14294403D01*
X10633934Y-14046784D02*
X10652982Y-14046784D01*
X10652982Y-14046784D02*
X10672029Y-14056308D01*
X10672029Y-14056308D02*
X10681553Y-14065831D01*
X10681553Y-14065831D02*
X10691077Y-14084879D01*
X10691077Y-14084879D02*
X10700601Y-14122974D01*
X10700601Y-14122974D02*
X10700601Y-14170593D01*
X10700601Y-14170593D02*
X10691077Y-14208688D01*
X10691077Y-14208688D02*
X10681553Y-14227736D01*
X10681553Y-14227736D02*
X10672029Y-14237260D01*
X10672029Y-14237260D02*
X10652982Y-14246784D01*
X10652982Y-14246784D02*
X10633934Y-14246784D01*
X10633934Y-14246784D02*
X10614887Y-14237260D01*
X10614887Y-14237260D02*
X10605363Y-14227736D01*
X10605363Y-14227736D02*
X10595839Y-14208688D01*
X10595839Y-14208688D02*
X10586315Y-14170593D01*
X10586315Y-14170593D02*
X10586315Y-14122974D01*
X10586315Y-14122974D02*
X10595839Y-14084879D01*
X10595839Y-14084879D02*
X10605363Y-14065831D01*
X10605363Y-14065831D02*
X10614887Y-14056308D01*
X10614887Y-14056308D02*
X10633934Y-14046784D01*
X10786315Y-14227736D02*
X10795839Y-14237260D01*
X10795839Y-14237260D02*
X10786315Y-14246784D01*
X10786315Y-14246784D02*
X10776791Y-14237260D01*
X10776791Y-14237260D02*
X10786315Y-14227736D01*
X10786315Y-14227736D02*
X10786315Y-14246784D01*
X10986315Y-14246784D02*
X10872029Y-14246784D01*
X10929172Y-14246784D02*
X10929172Y-14046784D01*
X10929172Y-14046784D02*
X10910125Y-14075355D01*
X10910125Y-14075355D02*
X10891077Y-14094403D01*
X10891077Y-14094403D02*
X10872029Y-14103927D01*
X11110125Y-14046784D02*
X11129172Y-14046784D01*
X11129172Y-14046784D02*
X11148220Y-14056308D01*
X11148220Y-14056308D02*
X11157744Y-14065831D01*
X11157744Y-14065831D02*
X11167268Y-14084879D01*
X11167268Y-14084879D02*
X11176791Y-14122974D01*
X11176791Y-14122974D02*
X11176791Y-14170593D01*
X11176791Y-14170593D02*
X11167268Y-14208688D01*
X11167268Y-14208688D02*
X11157744Y-14227736D01*
X11157744Y-14227736D02*
X11148220Y-14237260D01*
X11148220Y-14237260D02*
X11129172Y-14246784D01*
X11129172Y-14246784D02*
X11110125Y-14246784D01*
X11110125Y-14246784D02*
X11091077Y-14237260D01*
X11091077Y-14237260D02*
X11081553Y-14227736D01*
X11081553Y-14227736D02*
X11072029Y-14208688D01*
X11072029Y-14208688D02*
X11062506Y-14170593D01*
X11062506Y-14170593D02*
X11062506Y-14122974D01*
X11062506Y-14122974D02*
X11072029Y-14084879D01*
X11072029Y-14084879D02*
X11081553Y-14065831D01*
X11081553Y-14065831D02*
X11091077Y-14056308D01*
X11091077Y-14056308D02*
X11110125Y-14046784D01*
X11291077Y-14132498D02*
X11272029Y-14122974D01*
X11272029Y-14122974D02*
X11262506Y-14113450D01*
X11262506Y-14113450D02*
X11252982Y-14094403D01*
X11252982Y-14094403D02*
X11252982Y-14084879D01*
X11252982Y-14084879D02*
X11262506Y-14065831D01*
X11262506Y-14065831D02*
X11272029Y-14056308D01*
X11272029Y-14056308D02*
X11291077Y-14046784D01*
X11291077Y-14046784D02*
X11329172Y-14046784D01*
X11329172Y-14046784D02*
X11348220Y-14056308D01*
X11348220Y-14056308D02*
X11357744Y-14065831D01*
X11357744Y-14065831D02*
X11367267Y-14084879D01*
X11367267Y-14084879D02*
X11367267Y-14094403D01*
X11367267Y-14094403D02*
X11357744Y-14113450D01*
X11357744Y-14113450D02*
X11348220Y-14122974D01*
X11348220Y-14122974D02*
X11329172Y-14132498D01*
X11329172Y-14132498D02*
X11291077Y-14132498D01*
X11291077Y-14132498D02*
X11272029Y-14142022D01*
X11272029Y-14142022D02*
X11262506Y-14151546D01*
X11262506Y-14151546D02*
X11252982Y-14170593D01*
X11252982Y-14170593D02*
X11252982Y-14208688D01*
X11252982Y-14208688D02*
X11262506Y-14227736D01*
X11262506Y-14227736D02*
X11272029Y-14237260D01*
X11272029Y-14237260D02*
X11291077Y-14246784D01*
X11291077Y-14246784D02*
X11329172Y-14246784D01*
X11329172Y-14246784D02*
X11348220Y-14237260D01*
X11348220Y-14237260D02*
X11357744Y-14227736D01*
X11357744Y-14227736D02*
X11367267Y-14208688D01*
X11367267Y-14208688D02*
X11367267Y-14170593D01*
X11367267Y-14170593D02*
X11357744Y-14151546D01*
X11357744Y-14151546D02*
X11348220Y-14142022D01*
X11348220Y-14142022D02*
X11329172Y-14132498D01*
X11433934Y-14046784D02*
X11557744Y-14046784D01*
X11557744Y-14046784D02*
X11491077Y-14122974D01*
X11491077Y-14122974D02*
X11519648Y-14122974D01*
X11519648Y-14122974D02*
X11538696Y-14132498D01*
X11538696Y-14132498D02*
X11548220Y-14142022D01*
X11548220Y-14142022D02*
X11557744Y-14161069D01*
X11557744Y-14161069D02*
X11557744Y-14208688D01*
X11557744Y-14208688D02*
X11548220Y-14227736D01*
X11548220Y-14227736D02*
X11538696Y-14237260D01*
X11538696Y-14237260D02*
X11519648Y-14246784D01*
X11519648Y-14246784D02*
X11462506Y-14246784D01*
X11462506Y-14246784D02*
X11443458Y-14237260D01*
X11443458Y-14237260D02*
X11433934Y-14227736D01*
X11633934Y-14046784D02*
X11633934Y-14084879D01*
X11710125Y-14046784D02*
X11710125Y-14084879D01*
X12005363Y-14322974D02*
X11995839Y-14313450D01*
X11995839Y-14313450D02*
X11976791Y-14284879D01*
X11976791Y-14284879D02*
X11967268Y-14265831D01*
X11967268Y-14265831D02*
X11957744Y-14237260D01*
X11957744Y-14237260D02*
X11948220Y-14189641D01*
X11948220Y-14189641D02*
X11948220Y-14151546D01*
X11948220Y-14151546D02*
X11957744Y-14103927D01*
X11957744Y-14103927D02*
X11967268Y-14075355D01*
X11967268Y-14075355D02*
X11976791Y-14056308D01*
X11976791Y-14056308D02*
X11995839Y-14027736D01*
X11995839Y-14027736D02*
X12005363Y-14018212D01*
X12110125Y-14132498D02*
X12091077Y-14122974D01*
X12091077Y-14122974D02*
X12081553Y-14113450D01*
X12081553Y-14113450D02*
X12072029Y-14094403D01*
X12072029Y-14094403D02*
X12072029Y-14084879D01*
X12072029Y-14084879D02*
X12081553Y-14065831D01*
X12081553Y-14065831D02*
X12091077Y-14056308D01*
X12091077Y-14056308D02*
X12110125Y-14046784D01*
X12110125Y-14046784D02*
X12148220Y-14046784D01*
X12148220Y-14046784D02*
X12167268Y-14056308D01*
X12167268Y-14056308D02*
X12176791Y-14065831D01*
X12176791Y-14065831D02*
X12186315Y-14084879D01*
X12186315Y-14084879D02*
X12186315Y-14094403D01*
X12186315Y-14094403D02*
X12176791Y-14113450D01*
X12176791Y-14113450D02*
X12167268Y-14122974D01*
X12167268Y-14122974D02*
X12148220Y-14132498D01*
X12148220Y-14132498D02*
X12110125Y-14132498D01*
X12110125Y-14132498D02*
X12091077Y-14142022D01*
X12091077Y-14142022D02*
X12081553Y-14151546D01*
X12081553Y-14151546D02*
X12072029Y-14170593D01*
X12072029Y-14170593D02*
X12072029Y-14208688D01*
X12072029Y-14208688D02*
X12081553Y-14227736D01*
X12081553Y-14227736D02*
X12091077Y-14237260D01*
X12091077Y-14237260D02*
X12110125Y-14246784D01*
X12110125Y-14246784D02*
X12148220Y-14246784D01*
X12148220Y-14246784D02*
X12167268Y-14237260D01*
X12167268Y-14237260D02*
X12176791Y-14227736D01*
X12176791Y-14227736D02*
X12186315Y-14208688D01*
X12186315Y-14208688D02*
X12186315Y-14170593D01*
X12186315Y-14170593D02*
X12176791Y-14151546D01*
X12176791Y-14151546D02*
X12167268Y-14142022D01*
X12167268Y-14142022D02*
X12148220Y-14132498D01*
X12424410Y-14246784D02*
X12424410Y-14046784D01*
X12510125Y-14246784D02*
X12510125Y-14142022D01*
X12510125Y-14142022D02*
X12500601Y-14122974D01*
X12500601Y-14122974D02*
X12481553Y-14113450D01*
X12481553Y-14113450D02*
X12452982Y-14113450D01*
X12452982Y-14113450D02*
X12433934Y-14122974D01*
X12433934Y-14122974D02*
X12424410Y-14132498D01*
X12633934Y-14246784D02*
X12614887Y-14237260D01*
X12614887Y-14237260D02*
X12605363Y-14227736D01*
X12605363Y-14227736D02*
X12595839Y-14208688D01*
X12595839Y-14208688D02*
X12595839Y-14151546D01*
X12595839Y-14151546D02*
X12605363Y-14132498D01*
X12605363Y-14132498D02*
X12614887Y-14122974D01*
X12614887Y-14122974D02*
X12633934Y-14113450D01*
X12633934Y-14113450D02*
X12662506Y-14113450D01*
X12662506Y-14113450D02*
X12681553Y-14122974D01*
X12681553Y-14122974D02*
X12691077Y-14132498D01*
X12691077Y-14132498D02*
X12700601Y-14151546D01*
X12700601Y-14151546D02*
X12700601Y-14208688D01*
X12700601Y-14208688D02*
X12691077Y-14227736D01*
X12691077Y-14227736D02*
X12681553Y-14237260D01*
X12681553Y-14237260D02*
X12662506Y-14246784D01*
X12662506Y-14246784D02*
X12633934Y-14246784D01*
X12814887Y-14246784D02*
X12795839Y-14237260D01*
X12795839Y-14237260D02*
X12786315Y-14218212D01*
X12786315Y-14218212D02*
X12786315Y-14046784D01*
X12967268Y-14237260D02*
X12948220Y-14246784D01*
X12948220Y-14246784D02*
X12910125Y-14246784D01*
X12910125Y-14246784D02*
X12891077Y-14237260D01*
X12891077Y-14237260D02*
X12881553Y-14218212D01*
X12881553Y-14218212D02*
X12881553Y-14142022D01*
X12881553Y-14142022D02*
X12891077Y-14122974D01*
X12891077Y-14122974D02*
X12910125Y-14113450D01*
X12910125Y-14113450D02*
X12948220Y-14113450D01*
X12948220Y-14113450D02*
X12967268Y-14122974D01*
X12967268Y-14122974D02*
X12976791Y-14142022D01*
X12976791Y-14142022D02*
X12976791Y-14161069D01*
X12976791Y-14161069D02*
X12881553Y-14180117D01*
X13052982Y-14237260D02*
X13072030Y-14246784D01*
X13072030Y-14246784D02*
X13110125Y-14246784D01*
X13110125Y-14246784D02*
X13129172Y-14237260D01*
X13129172Y-14237260D02*
X13138696Y-14218212D01*
X13138696Y-14218212D02*
X13138696Y-14208688D01*
X13138696Y-14208688D02*
X13129172Y-14189641D01*
X13129172Y-14189641D02*
X13110125Y-14180117D01*
X13110125Y-14180117D02*
X13081553Y-14180117D01*
X13081553Y-14180117D02*
X13062506Y-14170593D01*
X13062506Y-14170593D02*
X13052982Y-14151546D01*
X13052982Y-14151546D02*
X13052982Y-14142022D01*
X13052982Y-14142022D02*
X13062506Y-14122974D01*
X13062506Y-14122974D02*
X13081553Y-14113450D01*
X13081553Y-14113450D02*
X13110125Y-14113450D01*
X13110125Y-14113450D02*
X13129172Y-14122974D01*
X13205363Y-14322974D02*
X13214887Y-14313450D01*
X13214887Y-14313450D02*
X13233934Y-14284879D01*
X13233934Y-14284879D02*
X13243458Y-14265831D01*
X13243458Y-14265831D02*
X13252982Y-14237260D01*
X13252982Y-14237260D02*
X13262506Y-14189641D01*
X13262506Y-14189641D02*
X13262506Y-14151546D01*
X13262506Y-14151546D02*
X13252982Y-14103927D01*
X13252982Y-14103927D02*
X13243458Y-14075355D01*
X13243458Y-14075355D02*
X13233934Y-14056308D01*
X13233934Y-14056308D02*
X13214887Y-14027736D01*
X13214887Y-14027736D02*
X13205363Y-14018212D01*
X13567268Y-14322974D02*
X13557744Y-14313450D01*
X13557744Y-14313450D02*
X13538696Y-14284879D01*
X13538696Y-14284879D02*
X13529172Y-14265831D01*
X13529172Y-14265831D02*
X13519649Y-14237260D01*
X13519649Y-14237260D02*
X13510125Y-14189641D01*
X13510125Y-14189641D02*
X13510125Y-14151546D01*
X13510125Y-14151546D02*
X13519649Y-14103927D01*
X13519649Y-14103927D02*
X13529172Y-14075355D01*
X13529172Y-14075355D02*
X13538696Y-14056308D01*
X13538696Y-14056308D02*
X13557744Y-14027736D01*
X13557744Y-14027736D02*
X13567268Y-14018212D01*
X13643458Y-14113450D02*
X13643458Y-14246784D01*
X13643458Y-14132498D02*
X13652982Y-14122974D01*
X13652982Y-14122974D02*
X13672030Y-14113450D01*
X13672030Y-14113450D02*
X13700601Y-14113450D01*
X13700601Y-14113450D02*
X13719649Y-14122974D01*
X13719649Y-14122974D02*
X13729172Y-14142022D01*
X13729172Y-14142022D02*
X13729172Y-14246784D01*
X13852982Y-14246784D02*
X13833934Y-14237260D01*
X13833934Y-14237260D02*
X13824411Y-14227736D01*
X13824411Y-14227736D02*
X13814887Y-14208688D01*
X13814887Y-14208688D02*
X13814887Y-14151546D01*
X13814887Y-14151546D02*
X13824411Y-14132498D01*
X13824411Y-14132498D02*
X13833934Y-14122974D01*
X13833934Y-14122974D02*
X13852982Y-14113450D01*
X13852982Y-14113450D02*
X13881553Y-14113450D01*
X13881553Y-14113450D02*
X13900601Y-14122974D01*
X13900601Y-14122974D02*
X13910125Y-14132498D01*
X13910125Y-14132498D02*
X13919649Y-14151546D01*
X13919649Y-14151546D02*
X13919649Y-14208688D01*
X13919649Y-14208688D02*
X13910125Y-14227736D01*
X13910125Y-14227736D02*
X13900601Y-14237260D01*
X13900601Y-14237260D02*
X13881553Y-14246784D01*
X13881553Y-14246784D02*
X13852982Y-14246784D01*
X13976792Y-14113450D02*
X14052982Y-14113450D01*
X14005363Y-14046784D02*
X14005363Y-14218212D01*
X14005363Y-14218212D02*
X14014887Y-14237260D01*
X14014887Y-14237260D02*
X14033934Y-14246784D01*
X14033934Y-14246784D02*
X14052982Y-14246784D01*
X14272030Y-14113450D02*
X14272030Y-14313450D01*
X14272030Y-14122974D02*
X14291077Y-14113450D01*
X14291077Y-14113450D02*
X14329173Y-14113450D01*
X14329173Y-14113450D02*
X14348220Y-14122974D01*
X14348220Y-14122974D02*
X14357744Y-14132498D01*
X14357744Y-14132498D02*
X14367268Y-14151546D01*
X14367268Y-14151546D02*
X14367268Y-14208688D01*
X14367268Y-14208688D02*
X14357744Y-14227736D01*
X14357744Y-14227736D02*
X14348220Y-14237260D01*
X14348220Y-14237260D02*
X14329173Y-14246784D01*
X14329173Y-14246784D02*
X14291077Y-14246784D01*
X14291077Y-14246784D02*
X14272030Y-14237260D01*
X14481553Y-14246784D02*
X14462506Y-14237260D01*
X14462506Y-14237260D02*
X14452982Y-14218212D01*
X14452982Y-14218212D02*
X14452982Y-14046784D01*
X14643458Y-14246784D02*
X14643458Y-14142022D01*
X14643458Y-14142022D02*
X14633934Y-14122974D01*
X14633934Y-14122974D02*
X14614887Y-14113450D01*
X14614887Y-14113450D02*
X14576792Y-14113450D01*
X14576792Y-14113450D02*
X14557744Y-14122974D01*
X14643458Y-14237260D02*
X14624411Y-14246784D01*
X14624411Y-14246784D02*
X14576792Y-14246784D01*
X14576792Y-14246784D02*
X14557744Y-14237260D01*
X14557744Y-14237260D02*
X14548220Y-14218212D01*
X14548220Y-14218212D02*
X14548220Y-14199165D01*
X14548220Y-14199165D02*
X14557744Y-14180117D01*
X14557744Y-14180117D02*
X14576792Y-14170593D01*
X14576792Y-14170593D02*
X14624411Y-14170593D01*
X14624411Y-14170593D02*
X14643458Y-14161069D01*
X14710125Y-14113450D02*
X14786315Y-14113450D01*
X14738696Y-14046784D02*
X14738696Y-14218212D01*
X14738696Y-14218212D02*
X14748220Y-14237260D01*
X14748220Y-14237260D02*
X14767268Y-14246784D01*
X14767268Y-14246784D02*
X14786315Y-14246784D01*
X14929173Y-14237260D02*
X14910125Y-14246784D01*
X14910125Y-14246784D02*
X14872030Y-14246784D01*
X14872030Y-14246784D02*
X14852982Y-14237260D01*
X14852982Y-14237260D02*
X14843458Y-14218212D01*
X14843458Y-14218212D02*
X14843458Y-14142022D01*
X14843458Y-14142022D02*
X14852982Y-14122974D01*
X14852982Y-14122974D02*
X14872030Y-14113450D01*
X14872030Y-14113450D02*
X14910125Y-14113450D01*
X14910125Y-14113450D02*
X14929173Y-14122974D01*
X14929173Y-14122974D02*
X14938696Y-14142022D01*
X14938696Y-14142022D02*
X14938696Y-14161069D01*
X14938696Y-14161069D02*
X14843458Y-14180117D01*
X15110125Y-14246784D02*
X15110125Y-14046784D01*
X15110125Y-14237260D02*
X15091077Y-14246784D01*
X15091077Y-14246784D02*
X15052982Y-14246784D01*
X15052982Y-14246784D02*
X15033934Y-14237260D01*
X15033934Y-14237260D02*
X15024411Y-14227736D01*
X15024411Y-14227736D02*
X15014887Y-14208688D01*
X15014887Y-14208688D02*
X15014887Y-14151546D01*
X15014887Y-14151546D02*
X15024411Y-14132498D01*
X15024411Y-14132498D02*
X15033934Y-14122974D01*
X15033934Y-14122974D02*
X15052982Y-14113450D01*
X15052982Y-14113450D02*
X15091077Y-14113450D01*
X15091077Y-14113450D02*
X15110125Y-14122974D01*
X15186315Y-14322974D02*
X15195839Y-14313450D01*
X15195839Y-14313450D02*
X15214887Y-14284879D01*
X15214887Y-14284879D02*
X15224411Y-14265831D01*
X15224411Y-14265831D02*
X15233934Y-14237260D01*
X15233934Y-14237260D02*
X15243458Y-14189641D01*
X15243458Y-14189641D02*
X15243458Y-14151546D01*
X15243458Y-14151546D02*
X15233934Y-14103927D01*
X15233934Y-14103927D02*
X15224411Y-14075355D01*
X15224411Y-14075355D02*
X15214887Y-14056308D01*
X15214887Y-14056308D02*
X15195839Y-14027736D01*
X15195839Y-14027736D02*
X15186315Y-14018212D01*
M02*
