%TF.GenerationSoftware,KiCad,Pcbnew,9.0.6*%
%TF.CreationDate,2026-01-09T06:42:04-06:00*%
%TF.ProjectId,weather_station1,77656174-6865-4725-9f73-746174696f6e,V1.10*%
%TF.SameCoordinates,Original*%
%TF.FileFunction,Legend,Top*%
%TF.FilePolarity,Positive*%
%FSLAX46Y46*%
G04 Gerber Fmt 4.6, Leading zero omitted, Abs format (unit mm)*
G04 Created by KiCad (PCBNEW 9.0.6) date 2026-01-09 06:42:04*
%MOMM*%
%LPD*%
G01*
G04 APERTURE LIST*
%ADD10C,0.243840*%
%ADD11C,0.000000*%
%ADD12C,0.254000*%
%ADD13C,0.120000*%
%ADD14C,0.100000*%
%ADD15C,0.203200*%
%ADD16C,0.200000*%
G04 APERTURE END LIST*
D10*
X188541335Y-124666872D02*
X188773563Y-124744282D01*
X188773563Y-124744282D02*
X188850973Y-124821691D01*
X188850973Y-124821691D02*
X188928382Y-124976510D01*
X188928382Y-124976510D02*
X188928382Y-125208739D01*
X188928382Y-125208739D02*
X188850973Y-125363558D01*
X188850973Y-125363558D02*
X188773563Y-125440968D01*
X188773563Y-125440968D02*
X188618744Y-125518377D01*
X188618744Y-125518377D02*
X187999468Y-125518377D01*
X187999468Y-125518377D02*
X187999468Y-123892777D01*
X187999468Y-123892777D02*
X188541335Y-123892777D01*
X188541335Y-123892777D02*
X188696154Y-123970187D01*
X188696154Y-123970187D02*
X188773563Y-124047596D01*
X188773563Y-124047596D02*
X188850973Y-124202415D01*
X188850973Y-124202415D02*
X188850973Y-124357234D01*
X188850973Y-124357234D02*
X188773563Y-124512053D01*
X188773563Y-124512053D02*
X188696154Y-124589463D01*
X188696154Y-124589463D02*
X188541335Y-124666872D01*
X188541335Y-124666872D02*
X187999468Y-124666872D01*
X189547659Y-125440968D02*
X189779887Y-125518377D01*
X189779887Y-125518377D02*
X190166935Y-125518377D01*
X190166935Y-125518377D02*
X190321754Y-125440968D01*
X190321754Y-125440968D02*
X190399163Y-125363558D01*
X190399163Y-125363558D02*
X190476573Y-125208739D01*
X190476573Y-125208739D02*
X190476573Y-125053920D01*
X190476573Y-125053920D02*
X190399163Y-124899101D01*
X190399163Y-124899101D02*
X190321754Y-124821691D01*
X190321754Y-124821691D02*
X190166935Y-124744282D01*
X190166935Y-124744282D02*
X189857297Y-124666872D01*
X189857297Y-124666872D02*
X189702478Y-124589463D01*
X189702478Y-124589463D02*
X189625068Y-124512053D01*
X189625068Y-124512053D02*
X189547659Y-124357234D01*
X189547659Y-124357234D02*
X189547659Y-124202415D01*
X189547659Y-124202415D02*
X189625068Y-124047596D01*
X189625068Y-124047596D02*
X189702478Y-123970187D01*
X189702478Y-123970187D02*
X189857297Y-123892777D01*
X189857297Y-123892777D02*
X190244344Y-123892777D01*
X190244344Y-123892777D02*
X190476573Y-123970187D01*
X191482896Y-124744282D02*
X191482896Y-125518377D01*
X190941030Y-123892777D02*
X191482896Y-124744282D01*
X191482896Y-124744282D02*
X192024763Y-123892777D01*
X188928382Y-122978377D02*
X188386516Y-122204282D01*
X187999468Y-122978377D02*
X187999468Y-121352777D01*
X187999468Y-121352777D02*
X188618744Y-121352777D01*
X188618744Y-121352777D02*
X188773563Y-121430187D01*
X188773563Y-121430187D02*
X188850973Y-121507596D01*
X188850973Y-121507596D02*
X188928382Y-121662415D01*
X188928382Y-121662415D02*
X188928382Y-121894644D01*
X188928382Y-121894644D02*
X188850973Y-122049463D01*
X188850973Y-122049463D02*
X188773563Y-122126872D01*
X188773563Y-122126872D02*
X188618744Y-122204282D01*
X188618744Y-122204282D02*
X187999468Y-122204282D01*
X189547659Y-122900968D02*
X189779887Y-122978377D01*
X189779887Y-122978377D02*
X190166935Y-122978377D01*
X190166935Y-122978377D02*
X190321754Y-122900968D01*
X190321754Y-122900968D02*
X190399163Y-122823558D01*
X190399163Y-122823558D02*
X190476573Y-122668739D01*
X190476573Y-122668739D02*
X190476573Y-122513920D01*
X190476573Y-122513920D02*
X190399163Y-122359101D01*
X190399163Y-122359101D02*
X190321754Y-122281691D01*
X190321754Y-122281691D02*
X190166935Y-122204282D01*
X190166935Y-122204282D02*
X189857297Y-122126872D01*
X189857297Y-122126872D02*
X189702478Y-122049463D01*
X189702478Y-122049463D02*
X189625068Y-121972053D01*
X189625068Y-121972053D02*
X189547659Y-121817234D01*
X189547659Y-121817234D02*
X189547659Y-121662415D01*
X189547659Y-121662415D02*
X189625068Y-121507596D01*
X189625068Y-121507596D02*
X189702478Y-121430187D01*
X189702478Y-121430187D02*
X189857297Y-121352777D01*
X189857297Y-121352777D02*
X190244344Y-121352777D01*
X190244344Y-121352777D02*
X190476573Y-121430187D01*
X190941030Y-121352777D02*
X191869944Y-121352777D01*
X191405487Y-122978377D02*
X191405487Y-121352777D01*
X187999468Y-120438377D02*
X187999468Y-118812777D01*
X187999468Y-118812777D02*
X188386516Y-118812777D01*
X188386516Y-118812777D02*
X188618744Y-118890187D01*
X188618744Y-118890187D02*
X188773563Y-119045006D01*
X188773563Y-119045006D02*
X188850973Y-119199825D01*
X188850973Y-119199825D02*
X188928382Y-119509463D01*
X188928382Y-119509463D02*
X188928382Y-119741691D01*
X188928382Y-119741691D02*
X188850973Y-120051329D01*
X188850973Y-120051329D02*
X188773563Y-120206148D01*
X188773563Y-120206148D02*
X188618744Y-120360968D01*
X188618744Y-120360968D02*
X188386516Y-120438377D01*
X188386516Y-120438377D02*
X187999468Y-120438377D01*
X190553982Y-120283558D02*
X190476573Y-120360968D01*
X190476573Y-120360968D02*
X190244344Y-120438377D01*
X190244344Y-120438377D02*
X190089525Y-120438377D01*
X190089525Y-120438377D02*
X189857297Y-120360968D01*
X189857297Y-120360968D02*
X189702478Y-120206148D01*
X189702478Y-120206148D02*
X189625068Y-120051329D01*
X189625068Y-120051329D02*
X189547659Y-119741691D01*
X189547659Y-119741691D02*
X189547659Y-119509463D01*
X189547659Y-119509463D02*
X189625068Y-119199825D01*
X189625068Y-119199825D02*
X189702478Y-119045006D01*
X189702478Y-119045006D02*
X189857297Y-118890187D01*
X189857297Y-118890187D02*
X190089525Y-118812777D01*
X190089525Y-118812777D02*
X190244344Y-118812777D01*
X190244344Y-118812777D02*
X190476573Y-118890187D01*
X190476573Y-118890187D02*
X190553982Y-118967596D01*
X188928382Y-117743558D02*
X188850973Y-117820968D01*
X188850973Y-117820968D02*
X188618744Y-117898377D01*
X188618744Y-117898377D02*
X188463925Y-117898377D01*
X188463925Y-117898377D02*
X188231697Y-117820968D01*
X188231697Y-117820968D02*
X188076878Y-117666148D01*
X188076878Y-117666148D02*
X187999468Y-117511329D01*
X187999468Y-117511329D02*
X187922059Y-117201691D01*
X187922059Y-117201691D02*
X187922059Y-116969463D01*
X187922059Y-116969463D02*
X187999468Y-116659825D01*
X187999468Y-116659825D02*
X188076878Y-116505006D01*
X188076878Y-116505006D02*
X188231697Y-116350187D01*
X188231697Y-116350187D02*
X188463925Y-116272777D01*
X188463925Y-116272777D02*
X188618744Y-116272777D01*
X188618744Y-116272777D02*
X188850973Y-116350187D01*
X188850973Y-116350187D02*
X188928382Y-116427596D01*
X189547659Y-117820968D02*
X189779887Y-117898377D01*
X189779887Y-117898377D02*
X190166935Y-117898377D01*
X190166935Y-117898377D02*
X190321754Y-117820968D01*
X190321754Y-117820968D02*
X190399163Y-117743558D01*
X190399163Y-117743558D02*
X190476573Y-117588739D01*
X190476573Y-117588739D02*
X190476573Y-117433920D01*
X190476573Y-117433920D02*
X190399163Y-117279101D01*
X190399163Y-117279101D02*
X190321754Y-117201691D01*
X190321754Y-117201691D02*
X190166935Y-117124282D01*
X190166935Y-117124282D02*
X189857297Y-117046872D01*
X189857297Y-117046872D02*
X189702478Y-116969463D01*
X189702478Y-116969463D02*
X189625068Y-116892053D01*
X189625068Y-116892053D02*
X189547659Y-116737234D01*
X189547659Y-116737234D02*
X189547659Y-116582415D01*
X189547659Y-116582415D02*
X189625068Y-116427596D01*
X189625068Y-116427596D02*
X189702478Y-116350187D01*
X189702478Y-116350187D02*
X189857297Y-116272777D01*
X189857297Y-116272777D02*
X190244344Y-116272777D01*
X190244344Y-116272777D02*
X190476573Y-116350187D01*
X187922059Y-115280968D02*
X188154287Y-115358377D01*
X188154287Y-115358377D02*
X188541335Y-115358377D01*
X188541335Y-115358377D02*
X188696154Y-115280968D01*
X188696154Y-115280968D02*
X188773563Y-115203558D01*
X188773563Y-115203558D02*
X188850973Y-115048739D01*
X188850973Y-115048739D02*
X188850973Y-114893920D01*
X188850973Y-114893920D02*
X188773563Y-114739101D01*
X188773563Y-114739101D02*
X188696154Y-114661691D01*
X188696154Y-114661691D02*
X188541335Y-114584282D01*
X188541335Y-114584282D02*
X188231697Y-114506872D01*
X188231697Y-114506872D02*
X188076878Y-114429463D01*
X188076878Y-114429463D02*
X187999468Y-114352053D01*
X187999468Y-114352053D02*
X187922059Y-114197234D01*
X187922059Y-114197234D02*
X187922059Y-114042415D01*
X187922059Y-114042415D02*
X187999468Y-113887596D01*
X187999468Y-113887596D02*
X188076878Y-113810187D01*
X188076878Y-113810187D02*
X188231697Y-113732777D01*
X188231697Y-113732777D02*
X188618744Y-113732777D01*
X188618744Y-113732777D02*
X188850973Y-113810187D01*
X190476572Y-115203558D02*
X190399163Y-115280968D01*
X190399163Y-115280968D02*
X190166934Y-115358377D01*
X190166934Y-115358377D02*
X190012115Y-115358377D01*
X190012115Y-115358377D02*
X189779887Y-115280968D01*
X189779887Y-115280968D02*
X189625068Y-115126148D01*
X189625068Y-115126148D02*
X189547658Y-114971329D01*
X189547658Y-114971329D02*
X189470249Y-114661691D01*
X189470249Y-114661691D02*
X189470249Y-114429463D01*
X189470249Y-114429463D02*
X189547658Y-114119825D01*
X189547658Y-114119825D02*
X189625068Y-113965006D01*
X189625068Y-113965006D02*
X189779887Y-113810187D01*
X189779887Y-113810187D02*
X190012115Y-113732777D01*
X190012115Y-113732777D02*
X190166934Y-113732777D01*
X190166934Y-113732777D02*
X190399163Y-113810187D01*
X190399163Y-113810187D02*
X190476572Y-113887596D01*
X191947353Y-115358377D02*
X191173258Y-115358377D01*
X191173258Y-115358377D02*
X191173258Y-113732777D01*
X187922059Y-112740968D02*
X188154287Y-112818377D01*
X188154287Y-112818377D02*
X188541335Y-112818377D01*
X188541335Y-112818377D02*
X188696154Y-112740968D01*
X188696154Y-112740968D02*
X188773563Y-112663558D01*
X188773563Y-112663558D02*
X188850973Y-112508739D01*
X188850973Y-112508739D02*
X188850973Y-112353920D01*
X188850973Y-112353920D02*
X188773563Y-112199101D01*
X188773563Y-112199101D02*
X188696154Y-112121691D01*
X188696154Y-112121691D02*
X188541335Y-112044282D01*
X188541335Y-112044282D02*
X188231697Y-111966872D01*
X188231697Y-111966872D02*
X188076878Y-111889463D01*
X188076878Y-111889463D02*
X187999468Y-111812053D01*
X187999468Y-111812053D02*
X187922059Y-111657234D01*
X187922059Y-111657234D02*
X187922059Y-111502415D01*
X187922059Y-111502415D02*
X187999468Y-111347596D01*
X187999468Y-111347596D02*
X188076878Y-111270187D01*
X188076878Y-111270187D02*
X188231697Y-111192777D01*
X188231697Y-111192777D02*
X188618744Y-111192777D01*
X188618744Y-111192777D02*
X188850973Y-111270187D01*
X189547658Y-112818377D02*
X189547658Y-111192777D01*
X189547658Y-111192777D02*
X189934706Y-111192777D01*
X189934706Y-111192777D02*
X190166934Y-111270187D01*
X190166934Y-111270187D02*
X190321753Y-111425006D01*
X190321753Y-111425006D02*
X190399163Y-111579825D01*
X190399163Y-111579825D02*
X190476572Y-111889463D01*
X190476572Y-111889463D02*
X190476572Y-112121691D01*
X190476572Y-112121691D02*
X190399163Y-112431329D01*
X190399163Y-112431329D02*
X190321753Y-112586148D01*
X190321753Y-112586148D02*
X190166934Y-112740968D01*
X190166934Y-112740968D02*
X189934706Y-112818377D01*
X189934706Y-112818377D02*
X189547658Y-112818377D01*
X191095849Y-112353920D02*
X191869944Y-112353920D01*
X190941030Y-112818377D02*
X191482896Y-111192777D01*
X191482896Y-111192777D02*
X192024763Y-112818377D01*
X188850973Y-108730187D02*
X188696154Y-108652777D01*
X188696154Y-108652777D02*
X188463925Y-108652777D01*
X188463925Y-108652777D02*
X188231697Y-108730187D01*
X188231697Y-108730187D02*
X188076878Y-108885006D01*
X188076878Y-108885006D02*
X187999468Y-109039825D01*
X187999468Y-109039825D02*
X187922059Y-109349463D01*
X187922059Y-109349463D02*
X187922059Y-109581691D01*
X187922059Y-109581691D02*
X187999468Y-109891329D01*
X187999468Y-109891329D02*
X188076878Y-110046148D01*
X188076878Y-110046148D02*
X188231697Y-110200968D01*
X188231697Y-110200968D02*
X188463925Y-110278377D01*
X188463925Y-110278377D02*
X188618744Y-110278377D01*
X188618744Y-110278377D02*
X188850973Y-110200968D01*
X188850973Y-110200968D02*
X188928382Y-110123558D01*
X188928382Y-110123558D02*
X188928382Y-109581691D01*
X188928382Y-109581691D02*
X188618744Y-109581691D01*
X189625068Y-110278377D02*
X189625068Y-108652777D01*
X189625068Y-108652777D02*
X190553982Y-110278377D01*
X190553982Y-110278377D02*
X190553982Y-108652777D01*
X191328078Y-110278377D02*
X191328078Y-108652777D01*
X191328078Y-108652777D02*
X191715126Y-108652777D01*
X191715126Y-108652777D02*
X191947354Y-108730187D01*
X191947354Y-108730187D02*
X192102173Y-108885006D01*
X192102173Y-108885006D02*
X192179583Y-109039825D01*
X192179583Y-109039825D02*
X192256992Y-109349463D01*
X192256992Y-109349463D02*
X192256992Y-109581691D01*
X192256992Y-109581691D02*
X192179583Y-109891329D01*
X192179583Y-109891329D02*
X192102173Y-110046148D01*
X192102173Y-110046148D02*
X191947354Y-110200968D01*
X191947354Y-110200968D02*
X191715126Y-110278377D01*
X191715126Y-110278377D02*
X191328078Y-110278377D01*
X187844649Y-106112777D02*
X188850973Y-106112777D01*
X188850973Y-106112777D02*
X188309106Y-106732053D01*
X188309106Y-106732053D02*
X188541335Y-106732053D01*
X188541335Y-106732053D02*
X188696154Y-106809463D01*
X188696154Y-106809463D02*
X188773563Y-106886872D01*
X188773563Y-106886872D02*
X188850973Y-107041691D01*
X188850973Y-107041691D02*
X188850973Y-107428739D01*
X188850973Y-107428739D02*
X188773563Y-107583558D01*
X188773563Y-107583558D02*
X188696154Y-107660968D01*
X188696154Y-107660968D02*
X188541335Y-107738377D01*
X188541335Y-107738377D02*
X188076878Y-107738377D01*
X188076878Y-107738377D02*
X187922059Y-107660968D01*
X187922059Y-107660968D02*
X187844649Y-107583558D01*
X189315430Y-106112777D02*
X189857296Y-107738377D01*
X189857296Y-107738377D02*
X190399163Y-106112777D01*
X190786210Y-106112777D02*
X191792534Y-106112777D01*
X191792534Y-106112777D02*
X191250667Y-106732053D01*
X191250667Y-106732053D02*
X191482896Y-106732053D01*
X191482896Y-106732053D02*
X191637715Y-106809463D01*
X191637715Y-106809463D02*
X191715124Y-106886872D01*
X191715124Y-106886872D02*
X191792534Y-107041691D01*
X191792534Y-107041691D02*
X191792534Y-107428739D01*
X191792534Y-107428739D02*
X191715124Y-107583558D01*
X191715124Y-107583558D02*
X191637715Y-107660968D01*
X191637715Y-107660968D02*
X191482896Y-107738377D01*
X191482896Y-107738377D02*
X191018439Y-107738377D01*
X191018439Y-107738377D02*
X190863620Y-107660968D01*
X190863620Y-107660968D02*
X190786210Y-107583558D01*
X138249335Y-121618872D02*
X138481563Y-121696282D01*
X138481563Y-121696282D02*
X138558973Y-121773691D01*
X138558973Y-121773691D02*
X138636382Y-121928510D01*
X138636382Y-121928510D02*
X138636382Y-122160739D01*
X138636382Y-122160739D02*
X138558973Y-122315558D01*
X138558973Y-122315558D02*
X138481563Y-122392968D01*
X138481563Y-122392968D02*
X138326744Y-122470377D01*
X138326744Y-122470377D02*
X137707468Y-122470377D01*
X137707468Y-122470377D02*
X137707468Y-120844777D01*
X137707468Y-120844777D02*
X138249335Y-120844777D01*
X138249335Y-120844777D02*
X138404154Y-120922187D01*
X138404154Y-120922187D02*
X138481563Y-120999596D01*
X138481563Y-120999596D02*
X138558973Y-121154415D01*
X138558973Y-121154415D02*
X138558973Y-121309234D01*
X138558973Y-121309234D02*
X138481563Y-121464053D01*
X138481563Y-121464053D02*
X138404154Y-121541463D01*
X138404154Y-121541463D02*
X138249335Y-121618872D01*
X138249335Y-121618872D02*
X137707468Y-121618872D01*
X139255659Y-122005920D02*
X140029754Y-122005920D01*
X139100840Y-122470377D02*
X139642706Y-120844777D01*
X139642706Y-120844777D02*
X140184573Y-122470377D01*
X140494211Y-120844777D02*
X141423125Y-120844777D01*
X140958668Y-122470377D02*
X140958668Y-120844777D01*
D11*
G36*
X110257166Y-134133712D02*
G01*
X101790500Y-134133712D01*
X101790500Y-133922046D01*
X101790500Y-130006212D01*
X102002167Y-130006212D01*
X102002167Y-133922046D01*
X105918000Y-133922046D01*
X105918000Y-132149337D01*
X106129666Y-132149337D01*
X106129666Y-133922046D01*
X108008208Y-133922046D01*
X108008208Y-133154754D01*
X108219875Y-133154754D01*
X108219875Y-133922046D01*
X109040083Y-133922046D01*
X109040083Y-133154754D01*
X108219875Y-133154754D01*
X108008208Y-133154754D01*
X108008208Y-133101838D01*
X109251750Y-133101838D01*
X109251750Y-133922046D01*
X110045500Y-133922046D01*
X110045500Y-133101838D01*
X109251750Y-133101838D01*
X108008208Y-133101838D01*
X108008208Y-132890171D01*
X108008208Y-132149337D01*
X106129666Y-132149337D01*
X105918000Y-132149337D01*
X105918000Y-132069962D01*
X109251750Y-132069962D01*
X109251750Y-132890171D01*
X110045500Y-132890171D01*
X110045500Y-132069962D01*
X109251750Y-132069962D01*
X105918000Y-132069962D01*
X105918000Y-131858296D01*
X105918000Y-130006212D01*
X108219875Y-130006212D01*
X108219875Y-131858296D01*
X110045500Y-131858296D01*
X110045500Y-130006212D01*
X108219875Y-130006212D01*
X105918000Y-130006212D01*
X102002167Y-130006212D01*
X101790500Y-130006212D01*
X101790500Y-129794546D01*
X101790500Y-125878713D01*
X106129666Y-125878713D01*
X106129666Y-129794546D01*
X110045500Y-129794546D01*
X110045500Y-125878713D01*
X106129666Y-125878713D01*
X101790500Y-125878713D01*
X101790500Y-125667046D01*
X110257166Y-125667046D01*
X110257166Y-134133712D01*
G37*
G36*
X106129666Y-129794546D02*
G01*
X105918000Y-129794546D01*
X105918000Y-130006212D01*
X101790500Y-130006212D01*
X101790500Y-129794546D01*
X101790500Y-126037463D01*
X102002167Y-126037463D01*
X102002167Y-129794546D01*
X105918000Y-129794546D01*
X105918000Y-126037463D01*
X102002167Y-126037463D01*
X101790500Y-126037463D01*
X101790500Y-125825796D01*
X106129666Y-125825796D01*
X106129666Y-129794546D01*
G37*
G36*
X109251750Y-132890171D02*
G01*
X109040083Y-132890171D01*
X109040083Y-132122879D01*
X108219875Y-132122879D01*
X108219875Y-132943087D01*
X109040083Y-132943087D01*
X109040083Y-133154754D01*
X108008208Y-133154754D01*
X108008208Y-131911212D01*
X109251750Y-131911212D01*
X109251750Y-132890171D01*
G37*
D10*
X112595335Y-127052622D02*
X112053468Y-127052622D01*
X112053468Y-127904127D02*
X112053468Y-126278527D01*
X112053468Y-126278527D02*
X112827563Y-126278527D01*
X114143525Y-126820394D02*
X114143525Y-127904127D01*
X113446839Y-126820394D02*
X113446839Y-127671898D01*
X113446839Y-127671898D02*
X113524249Y-127826718D01*
X113524249Y-127826718D02*
X113679068Y-127904127D01*
X113679068Y-127904127D02*
X113911296Y-127904127D01*
X113911296Y-127904127D02*
X114066115Y-127826718D01*
X114066115Y-127826718D02*
X114143525Y-127749308D01*
X114917620Y-126820394D02*
X114917620Y-127904127D01*
X114917620Y-126975213D02*
X114995030Y-126897803D01*
X114995030Y-126897803D02*
X115149849Y-126820394D01*
X115149849Y-126820394D02*
X115382077Y-126820394D01*
X115382077Y-126820394D02*
X115536896Y-126897803D01*
X115536896Y-126897803D02*
X115614306Y-127052622D01*
X115614306Y-127052622D02*
X115614306Y-127904127D01*
X116388401Y-127904127D02*
X116388401Y-126278527D01*
X116543220Y-127284851D02*
X117007677Y-127904127D01*
X117007677Y-126820394D02*
X116388401Y-127439670D01*
X117549544Y-126820394D02*
X117936592Y-127904127D01*
X118323639Y-126820394D02*
X117936592Y-127904127D01*
X117936592Y-127904127D02*
X117781773Y-128291175D01*
X117781773Y-128291175D02*
X117704363Y-128368584D01*
X117704363Y-128368584D02*
X117549544Y-128445994D01*
X120026648Y-126278527D02*
X120413696Y-127904127D01*
X120413696Y-127904127D02*
X120723334Y-126742984D01*
X120723334Y-126742984D02*
X121032972Y-127904127D01*
X121032972Y-127904127D02*
X121420020Y-126278527D01*
X122658572Y-127826718D02*
X122503753Y-127904127D01*
X122503753Y-127904127D02*
X122194115Y-127904127D01*
X122194115Y-127904127D02*
X122039296Y-127826718D01*
X122039296Y-127826718D02*
X121961887Y-127671898D01*
X121961887Y-127671898D02*
X121961887Y-127052622D01*
X121961887Y-127052622D02*
X122039296Y-126897803D01*
X122039296Y-126897803D02*
X122194115Y-126820394D01*
X122194115Y-126820394D02*
X122503753Y-126820394D01*
X122503753Y-126820394D02*
X122658572Y-126897803D01*
X122658572Y-126897803D02*
X122735982Y-127052622D01*
X122735982Y-127052622D02*
X122735982Y-127207441D01*
X122735982Y-127207441D02*
X121961887Y-127362260D01*
X124129353Y-127904127D02*
X124129353Y-127052622D01*
X124129353Y-127052622D02*
X124051943Y-126897803D01*
X124051943Y-126897803D02*
X123897124Y-126820394D01*
X123897124Y-126820394D02*
X123587486Y-126820394D01*
X123587486Y-126820394D02*
X123432667Y-126897803D01*
X124129353Y-127826718D02*
X123974534Y-127904127D01*
X123974534Y-127904127D02*
X123587486Y-127904127D01*
X123587486Y-127904127D02*
X123432667Y-127826718D01*
X123432667Y-127826718D02*
X123355258Y-127671898D01*
X123355258Y-127671898D02*
X123355258Y-127517079D01*
X123355258Y-127517079D02*
X123432667Y-127362260D01*
X123432667Y-127362260D02*
X123587486Y-127284851D01*
X123587486Y-127284851D02*
X123974534Y-127284851D01*
X123974534Y-127284851D02*
X124129353Y-127207441D01*
X124671220Y-126820394D02*
X125290496Y-126820394D01*
X124903448Y-126278527D02*
X124903448Y-127671898D01*
X124903448Y-127671898D02*
X124980858Y-127826718D01*
X124980858Y-127826718D02*
X125135677Y-127904127D01*
X125135677Y-127904127D02*
X125290496Y-127904127D01*
X125832362Y-127904127D02*
X125832362Y-126278527D01*
X126529048Y-127904127D02*
X126529048Y-127052622D01*
X126529048Y-127052622D02*
X126451638Y-126897803D01*
X126451638Y-126897803D02*
X126296819Y-126820394D01*
X126296819Y-126820394D02*
X126064591Y-126820394D01*
X126064591Y-126820394D02*
X125909772Y-126897803D01*
X125909772Y-126897803D02*
X125832362Y-126975213D01*
X127922419Y-127826718D02*
X127767600Y-127904127D01*
X127767600Y-127904127D02*
X127457962Y-127904127D01*
X127457962Y-127904127D02*
X127303143Y-127826718D01*
X127303143Y-127826718D02*
X127225734Y-127671898D01*
X127225734Y-127671898D02*
X127225734Y-127052622D01*
X127225734Y-127052622D02*
X127303143Y-126897803D01*
X127303143Y-126897803D02*
X127457962Y-126820394D01*
X127457962Y-126820394D02*
X127767600Y-126820394D01*
X127767600Y-126820394D02*
X127922419Y-126897803D01*
X127922419Y-126897803D02*
X127999829Y-127052622D01*
X127999829Y-127052622D02*
X127999829Y-127207441D01*
X127999829Y-127207441D02*
X127225734Y-127362260D01*
X128696514Y-127904127D02*
X128696514Y-126820394D01*
X128696514Y-127130032D02*
X128773924Y-126975213D01*
X128773924Y-126975213D02*
X128851333Y-126897803D01*
X128851333Y-126897803D02*
X129006152Y-126820394D01*
X129006152Y-126820394D02*
X129160971Y-126820394D01*
X130863981Y-127826718D02*
X131096209Y-127904127D01*
X131096209Y-127904127D02*
X131483257Y-127904127D01*
X131483257Y-127904127D02*
X131638076Y-127826718D01*
X131638076Y-127826718D02*
X131715485Y-127749308D01*
X131715485Y-127749308D02*
X131792895Y-127594489D01*
X131792895Y-127594489D02*
X131792895Y-127439670D01*
X131792895Y-127439670D02*
X131715485Y-127284851D01*
X131715485Y-127284851D02*
X131638076Y-127207441D01*
X131638076Y-127207441D02*
X131483257Y-127130032D01*
X131483257Y-127130032D02*
X131173619Y-127052622D01*
X131173619Y-127052622D02*
X131018800Y-126975213D01*
X131018800Y-126975213D02*
X130941390Y-126897803D01*
X130941390Y-126897803D02*
X130863981Y-126742984D01*
X130863981Y-126742984D02*
X130863981Y-126588165D01*
X130863981Y-126588165D02*
X130941390Y-126433346D01*
X130941390Y-126433346D02*
X131018800Y-126355937D01*
X131018800Y-126355937D02*
X131173619Y-126278527D01*
X131173619Y-126278527D02*
X131560666Y-126278527D01*
X131560666Y-126278527D02*
X131792895Y-126355937D01*
X132257352Y-126820394D02*
X132876628Y-126820394D01*
X132489580Y-126278527D02*
X132489580Y-127671898D01*
X132489580Y-127671898D02*
X132566990Y-127826718D01*
X132566990Y-127826718D02*
X132721809Y-127904127D01*
X132721809Y-127904127D02*
X132876628Y-127904127D01*
X134115180Y-127904127D02*
X134115180Y-127052622D01*
X134115180Y-127052622D02*
X134037770Y-126897803D01*
X134037770Y-126897803D02*
X133882951Y-126820394D01*
X133882951Y-126820394D02*
X133573313Y-126820394D01*
X133573313Y-126820394D02*
X133418494Y-126897803D01*
X134115180Y-127826718D02*
X133960361Y-127904127D01*
X133960361Y-127904127D02*
X133573313Y-127904127D01*
X133573313Y-127904127D02*
X133418494Y-127826718D01*
X133418494Y-127826718D02*
X133341085Y-127671898D01*
X133341085Y-127671898D02*
X133341085Y-127517079D01*
X133341085Y-127517079D02*
X133418494Y-127362260D01*
X133418494Y-127362260D02*
X133573313Y-127284851D01*
X133573313Y-127284851D02*
X133960361Y-127284851D01*
X133960361Y-127284851D02*
X134115180Y-127207441D01*
X134657047Y-126820394D02*
X135276323Y-126820394D01*
X134889275Y-126278527D02*
X134889275Y-127671898D01*
X134889275Y-127671898D02*
X134966685Y-127826718D01*
X134966685Y-127826718D02*
X135121504Y-127904127D01*
X135121504Y-127904127D02*
X135276323Y-127904127D01*
X135818189Y-127904127D02*
X135818189Y-126820394D01*
X135818189Y-126278527D02*
X135740780Y-126355937D01*
X135740780Y-126355937D02*
X135818189Y-126433346D01*
X135818189Y-126433346D02*
X135895599Y-126355937D01*
X135895599Y-126355937D02*
X135818189Y-126278527D01*
X135818189Y-126278527D02*
X135818189Y-126433346D01*
X136824513Y-127904127D02*
X136669694Y-127826718D01*
X136669694Y-127826718D02*
X136592284Y-127749308D01*
X136592284Y-127749308D02*
X136514875Y-127594489D01*
X136514875Y-127594489D02*
X136514875Y-127130032D01*
X136514875Y-127130032D02*
X136592284Y-126975213D01*
X136592284Y-126975213D02*
X136669694Y-126897803D01*
X136669694Y-126897803D02*
X136824513Y-126820394D01*
X136824513Y-126820394D02*
X137056741Y-126820394D01*
X137056741Y-126820394D02*
X137211560Y-126897803D01*
X137211560Y-126897803D02*
X137288970Y-126975213D01*
X137288970Y-126975213D02*
X137366379Y-127130032D01*
X137366379Y-127130032D02*
X137366379Y-127594489D01*
X137366379Y-127594489D02*
X137288970Y-127749308D01*
X137288970Y-127749308D02*
X137211560Y-127826718D01*
X137211560Y-127826718D02*
X137056741Y-127904127D01*
X137056741Y-127904127D02*
X136824513Y-127904127D01*
X138063065Y-126820394D02*
X138063065Y-127904127D01*
X138063065Y-126975213D02*
X138140475Y-126897803D01*
X138140475Y-126897803D02*
X138295294Y-126820394D01*
X138295294Y-126820394D02*
X138527522Y-126820394D01*
X138527522Y-126820394D02*
X138682341Y-126897803D01*
X138682341Y-126897803D02*
X138759751Y-127052622D01*
X138759751Y-127052622D02*
X138759751Y-127904127D01*
X112053468Y-129669747D02*
X112595335Y-129669747D01*
X112827563Y-130521252D02*
X112053468Y-130521252D01*
X112053468Y-130521252D02*
X112053468Y-128895652D01*
X112053468Y-128895652D02*
X112827563Y-128895652D01*
X113524249Y-130521252D02*
X113524249Y-129437519D01*
X113524249Y-128895652D02*
X113446840Y-128973062D01*
X113446840Y-128973062D02*
X113524249Y-129050471D01*
X113524249Y-129050471D02*
X113601659Y-128973062D01*
X113601659Y-128973062D02*
X113524249Y-128895652D01*
X113524249Y-128895652D02*
X113524249Y-129050471D01*
X114995030Y-129437519D02*
X114995030Y-130753481D01*
X114995030Y-130753481D02*
X114917620Y-130908300D01*
X114917620Y-130908300D02*
X114840211Y-130985709D01*
X114840211Y-130985709D02*
X114685392Y-131063119D01*
X114685392Y-131063119D02*
X114453163Y-131063119D01*
X114453163Y-131063119D02*
X114298344Y-130985709D01*
X114995030Y-130443843D02*
X114840211Y-130521252D01*
X114840211Y-130521252D02*
X114530573Y-130521252D01*
X114530573Y-130521252D02*
X114375754Y-130443843D01*
X114375754Y-130443843D02*
X114298344Y-130366433D01*
X114298344Y-130366433D02*
X114220935Y-130211614D01*
X114220935Y-130211614D02*
X114220935Y-129747157D01*
X114220935Y-129747157D02*
X114298344Y-129592338D01*
X114298344Y-129592338D02*
X114375754Y-129514928D01*
X114375754Y-129514928D02*
X114530573Y-129437519D01*
X114530573Y-129437519D02*
X114840211Y-129437519D01*
X114840211Y-129437519D02*
X114995030Y-129514928D01*
X116388401Y-130443843D02*
X116233582Y-130521252D01*
X116233582Y-130521252D02*
X115923944Y-130521252D01*
X115923944Y-130521252D02*
X115769125Y-130443843D01*
X115769125Y-130443843D02*
X115691716Y-130289023D01*
X115691716Y-130289023D02*
X115691716Y-129669747D01*
X115691716Y-129669747D02*
X115769125Y-129514928D01*
X115769125Y-129514928D02*
X115923944Y-129437519D01*
X115923944Y-129437519D02*
X116233582Y-129437519D01*
X116233582Y-129437519D02*
X116388401Y-129514928D01*
X116388401Y-129514928D02*
X116465811Y-129669747D01*
X116465811Y-129669747D02*
X116465811Y-129824566D01*
X116465811Y-129824566D02*
X115691716Y-129979385D01*
X117162496Y-129437519D02*
X117162496Y-130521252D01*
X117162496Y-129592338D02*
X117239906Y-129514928D01*
X117239906Y-129514928D02*
X117394725Y-129437519D01*
X117394725Y-129437519D02*
X117626953Y-129437519D01*
X117626953Y-129437519D02*
X117781772Y-129514928D01*
X117781772Y-129514928D02*
X117859182Y-129669747D01*
X117859182Y-129669747D02*
X117859182Y-130521252D01*
X118633277Y-129437519D02*
X118633277Y-131063119D01*
X118633277Y-129514928D02*
X118788096Y-129437519D01*
X118788096Y-129437519D02*
X119097734Y-129437519D01*
X119097734Y-129437519D02*
X119252553Y-129514928D01*
X119252553Y-129514928D02*
X119329963Y-129592338D01*
X119329963Y-129592338D02*
X119407372Y-129747157D01*
X119407372Y-129747157D02*
X119407372Y-130211614D01*
X119407372Y-130211614D02*
X119329963Y-130366433D01*
X119329963Y-130366433D02*
X119252553Y-130443843D01*
X119252553Y-130443843D02*
X119097734Y-130521252D01*
X119097734Y-130521252D02*
X118788096Y-130521252D01*
X118788096Y-130521252D02*
X118633277Y-130443843D01*
X120104058Y-130521252D02*
X120104058Y-129437519D01*
X120104058Y-128895652D02*
X120026649Y-128973062D01*
X120026649Y-128973062D02*
X120104058Y-129050471D01*
X120104058Y-129050471D02*
X120181468Y-128973062D01*
X120181468Y-128973062D02*
X120104058Y-128895652D01*
X120104058Y-128895652D02*
X120104058Y-129050471D01*
X122890800Y-130521252D02*
X122116705Y-130521252D01*
X122116705Y-130521252D02*
X122116705Y-128895652D01*
X124129353Y-130521252D02*
X124129353Y-129669747D01*
X124129353Y-129669747D02*
X124051943Y-129514928D01*
X124051943Y-129514928D02*
X123897124Y-129437519D01*
X123897124Y-129437519D02*
X123587486Y-129437519D01*
X123587486Y-129437519D02*
X123432667Y-129514928D01*
X124129353Y-130443843D02*
X123974534Y-130521252D01*
X123974534Y-130521252D02*
X123587486Y-130521252D01*
X123587486Y-130521252D02*
X123432667Y-130443843D01*
X123432667Y-130443843D02*
X123355258Y-130289023D01*
X123355258Y-130289023D02*
X123355258Y-130134204D01*
X123355258Y-130134204D02*
X123432667Y-129979385D01*
X123432667Y-129979385D02*
X123587486Y-129901976D01*
X123587486Y-129901976D02*
X123974534Y-129901976D01*
X123974534Y-129901976D02*
X124129353Y-129824566D01*
X124903448Y-130521252D02*
X124903448Y-128895652D01*
X124903448Y-129514928D02*
X125058267Y-129437519D01*
X125058267Y-129437519D02*
X125367905Y-129437519D01*
X125367905Y-129437519D02*
X125522724Y-129514928D01*
X125522724Y-129514928D02*
X125600134Y-129592338D01*
X125600134Y-129592338D02*
X125677543Y-129747157D01*
X125677543Y-129747157D02*
X125677543Y-130211614D01*
X125677543Y-130211614D02*
X125600134Y-130366433D01*
X125600134Y-130366433D02*
X125522724Y-130443843D01*
X125522724Y-130443843D02*
X125367905Y-130521252D01*
X125367905Y-130521252D02*
X125058267Y-130521252D01*
X125058267Y-130521252D02*
X124903448Y-130443843D01*
X126296820Y-130443843D02*
X126451639Y-130521252D01*
X126451639Y-130521252D02*
X126761277Y-130521252D01*
X126761277Y-130521252D02*
X126916096Y-130443843D01*
X126916096Y-130443843D02*
X126993505Y-130289023D01*
X126993505Y-130289023D02*
X126993505Y-130211614D01*
X126993505Y-130211614D02*
X126916096Y-130056795D01*
X126916096Y-130056795D02*
X126761277Y-129979385D01*
X126761277Y-129979385D02*
X126529048Y-129979385D01*
X126529048Y-129979385D02*
X126374229Y-129901976D01*
X126374229Y-129901976D02*
X126296820Y-129747157D01*
X126296820Y-129747157D02*
X126296820Y-129669747D01*
X126296820Y-129669747D02*
X126374229Y-129514928D01*
X126374229Y-129514928D02*
X126529048Y-129437519D01*
X126529048Y-129437519D02*
X126761277Y-129437519D01*
X126761277Y-129437519D02*
X126916096Y-129514928D01*
X112904973Y-133138377D02*
X111976059Y-133138377D01*
X112440516Y-133138377D02*
X112440516Y-131512777D01*
X112440516Y-131512777D02*
X112285697Y-131745006D01*
X112285697Y-131745006D02*
X112130878Y-131899825D01*
X112130878Y-131899825D02*
X111976059Y-131977234D01*
X113524249Y-131667596D02*
X113601658Y-131590187D01*
X113601658Y-131590187D02*
X113756477Y-131512777D01*
X113756477Y-131512777D02*
X114143525Y-131512777D01*
X114143525Y-131512777D02*
X114298344Y-131590187D01*
X114298344Y-131590187D02*
X114375753Y-131667596D01*
X114375753Y-131667596D02*
X114453163Y-131822415D01*
X114453163Y-131822415D02*
X114453163Y-131977234D01*
X114453163Y-131977234D02*
X114375753Y-132209463D01*
X114375753Y-132209463D02*
X113446839Y-133138377D01*
X113446839Y-133138377D02*
X114453163Y-133138377D01*
X116310991Y-131435368D02*
X114917620Y-133525425D01*
X116698039Y-131512777D02*
X117704363Y-131512777D01*
X117704363Y-131512777D02*
X117162496Y-132132053D01*
X117162496Y-132132053D02*
X117394725Y-132132053D01*
X117394725Y-132132053D02*
X117549544Y-132209463D01*
X117549544Y-132209463D02*
X117626953Y-132286872D01*
X117626953Y-132286872D02*
X117704363Y-132441691D01*
X117704363Y-132441691D02*
X117704363Y-132828739D01*
X117704363Y-132828739D02*
X117626953Y-132983558D01*
X117626953Y-132983558D02*
X117549544Y-133060968D01*
X117549544Y-133060968D02*
X117394725Y-133138377D01*
X117394725Y-133138377D02*
X116930268Y-133138377D01*
X116930268Y-133138377D02*
X116775449Y-133060968D01*
X116775449Y-133060968D02*
X116698039Y-132983558D01*
X119252553Y-133138377D02*
X118323639Y-133138377D01*
X118788096Y-133138377D02*
X118788096Y-131512777D01*
X118788096Y-131512777D02*
X118633277Y-131745006D01*
X118633277Y-131745006D02*
X118478458Y-131899825D01*
X118478458Y-131899825D02*
X118323639Y-131977234D01*
X121110381Y-131435368D02*
X119717010Y-133525425D01*
X121574839Y-131667596D02*
X121652248Y-131590187D01*
X121652248Y-131590187D02*
X121807067Y-131512777D01*
X121807067Y-131512777D02*
X122194115Y-131512777D01*
X122194115Y-131512777D02*
X122348934Y-131590187D01*
X122348934Y-131590187D02*
X122426343Y-131667596D01*
X122426343Y-131667596D02*
X122503753Y-131822415D01*
X122503753Y-131822415D02*
X122503753Y-131977234D01*
X122503753Y-131977234D02*
X122426343Y-132209463D01*
X122426343Y-132209463D02*
X121497429Y-133138377D01*
X121497429Y-133138377D02*
X122503753Y-133138377D01*
X123510076Y-131512777D02*
X123664895Y-131512777D01*
X123664895Y-131512777D02*
X123819714Y-131590187D01*
X123819714Y-131590187D02*
X123897124Y-131667596D01*
X123897124Y-131667596D02*
X123974533Y-131822415D01*
X123974533Y-131822415D02*
X124051943Y-132132053D01*
X124051943Y-132132053D02*
X124051943Y-132519101D01*
X124051943Y-132519101D02*
X123974533Y-132828739D01*
X123974533Y-132828739D02*
X123897124Y-132983558D01*
X123897124Y-132983558D02*
X123819714Y-133060968D01*
X123819714Y-133060968D02*
X123664895Y-133138377D01*
X123664895Y-133138377D02*
X123510076Y-133138377D01*
X123510076Y-133138377D02*
X123355257Y-133060968D01*
X123355257Y-133060968D02*
X123277848Y-132983558D01*
X123277848Y-132983558D02*
X123200438Y-132828739D01*
X123200438Y-132828739D02*
X123123029Y-132519101D01*
X123123029Y-132519101D02*
X123123029Y-132132053D01*
X123123029Y-132132053D02*
X123200438Y-131822415D01*
X123200438Y-131822415D02*
X123277848Y-131667596D01*
X123277848Y-131667596D02*
X123355257Y-131590187D01*
X123355257Y-131590187D02*
X123510076Y-131512777D01*
X124671219Y-131667596D02*
X124748628Y-131590187D01*
X124748628Y-131590187D02*
X124903447Y-131512777D01*
X124903447Y-131512777D02*
X125290495Y-131512777D01*
X125290495Y-131512777D02*
X125445314Y-131590187D01*
X125445314Y-131590187D02*
X125522723Y-131667596D01*
X125522723Y-131667596D02*
X125600133Y-131822415D01*
X125600133Y-131822415D02*
X125600133Y-131977234D01*
X125600133Y-131977234D02*
X125522723Y-132209463D01*
X125522723Y-132209463D02*
X124593809Y-133138377D01*
X124593809Y-133138377D02*
X125600133Y-133138377D01*
X127070913Y-131512777D02*
X126296818Y-131512777D01*
X126296818Y-131512777D02*
X126219409Y-132286872D01*
X126219409Y-132286872D02*
X126296818Y-132209463D01*
X126296818Y-132209463D02*
X126451637Y-132132053D01*
X126451637Y-132132053D02*
X126838685Y-132132053D01*
X126838685Y-132132053D02*
X126993504Y-132209463D01*
X126993504Y-132209463D02*
X127070913Y-132286872D01*
X127070913Y-132286872D02*
X127148323Y-132441691D01*
X127148323Y-132441691D02*
X127148323Y-132828739D01*
X127148323Y-132828739D02*
X127070913Y-132983558D01*
X127070913Y-132983558D02*
X126993504Y-133060968D01*
X126993504Y-133060968D02*
X126838685Y-133138377D01*
X126838685Y-133138377D02*
X126451637Y-133138377D01*
X126451637Y-133138377D02*
X126296818Y-133060968D01*
X126296818Y-133060968D02*
X126219409Y-132983558D01*
D12*
X158798380Y-122997318D02*
X158798380Y-124025413D01*
X158798380Y-124025413D02*
X158858857Y-124146365D01*
X158858857Y-124146365D02*
X158919333Y-124206842D01*
X158919333Y-124206842D02*
X159040285Y-124267318D01*
X159040285Y-124267318D02*
X159282190Y-124267318D01*
X159282190Y-124267318D02*
X159403142Y-124206842D01*
X159403142Y-124206842D02*
X159463619Y-124146365D01*
X159463619Y-124146365D02*
X159524095Y-124025413D01*
X159524095Y-124025413D02*
X159524095Y-122997318D01*
X160794095Y-124267318D02*
X160068380Y-124267318D01*
X160431237Y-124267318D02*
X160431237Y-122997318D01*
X160431237Y-122997318D02*
X160310285Y-123178746D01*
X160310285Y-123178746D02*
X160189333Y-123299699D01*
X160189333Y-123299699D02*
X160068380Y-123360175D01*
X153458333Y-116652318D02*
X153034999Y-116047556D01*
X152732618Y-116652318D02*
X152732618Y-115382318D01*
X152732618Y-115382318D02*
X153216428Y-115382318D01*
X153216428Y-115382318D02*
X153337380Y-115442794D01*
X153337380Y-115442794D02*
X153397857Y-115503270D01*
X153397857Y-115503270D02*
X153458333Y-115624222D01*
X153458333Y-115624222D02*
X153458333Y-115805651D01*
X153458333Y-115805651D02*
X153397857Y-115926603D01*
X153397857Y-115926603D02*
X153337380Y-115987080D01*
X153337380Y-115987080D02*
X153216428Y-116047556D01*
X153216428Y-116047556D02*
X152732618Y-116047556D01*
X153881666Y-115382318D02*
X154667857Y-115382318D01*
X154667857Y-115382318D02*
X154244523Y-115866127D01*
X154244523Y-115866127D02*
X154425952Y-115866127D01*
X154425952Y-115866127D02*
X154546904Y-115926603D01*
X154546904Y-115926603D02*
X154607380Y-115987080D01*
X154607380Y-115987080D02*
X154667857Y-116108032D01*
X154667857Y-116108032D02*
X154667857Y-116410413D01*
X154667857Y-116410413D02*
X154607380Y-116531365D01*
X154607380Y-116531365D02*
X154546904Y-116591842D01*
X154546904Y-116591842D02*
X154425952Y-116652318D01*
X154425952Y-116652318D02*
X154063095Y-116652318D01*
X154063095Y-116652318D02*
X153942142Y-116591842D01*
X153942142Y-116591842D02*
X153881666Y-116531365D01*
X152732618Y-104206318D02*
X152732618Y-102936318D01*
X152732618Y-102936318D02*
X153034999Y-102936318D01*
X153034999Y-102936318D02*
X153216428Y-102996794D01*
X153216428Y-102996794D02*
X153337380Y-103117746D01*
X153337380Y-103117746D02*
X153397857Y-103238699D01*
X153397857Y-103238699D02*
X153458333Y-103480603D01*
X153458333Y-103480603D02*
X153458333Y-103662032D01*
X153458333Y-103662032D02*
X153397857Y-103903937D01*
X153397857Y-103903937D02*
X153337380Y-104024889D01*
X153337380Y-104024889D02*
X153216428Y-104145842D01*
X153216428Y-104145842D02*
X153034999Y-104206318D01*
X153034999Y-104206318D02*
X152732618Y-104206318D01*
X154667857Y-104206318D02*
X153942142Y-104206318D01*
X154304999Y-104206318D02*
X154304999Y-102936318D01*
X154304999Y-102936318D02*
X154184047Y-103117746D01*
X154184047Y-103117746D02*
X154063095Y-103238699D01*
X154063095Y-103238699D02*
X153942142Y-103299175D01*
X139970318Y-116036082D02*
X140877461Y-116036082D01*
X140877461Y-116036082D02*
X141058889Y-116096559D01*
X141058889Y-116096559D02*
X141179842Y-116217511D01*
X141179842Y-116217511D02*
X141240318Y-116398940D01*
X141240318Y-116398940D02*
X141240318Y-116519892D01*
X139970318Y-115552273D02*
X139970318Y-114766082D01*
X139970318Y-114766082D02*
X140454127Y-115189416D01*
X140454127Y-115189416D02*
X140454127Y-115007987D01*
X140454127Y-115007987D02*
X140514603Y-114887035D01*
X140514603Y-114887035D02*
X140575080Y-114826559D01*
X140575080Y-114826559D02*
X140696032Y-114766082D01*
X140696032Y-114766082D02*
X140998413Y-114766082D01*
X140998413Y-114766082D02*
X141119365Y-114826559D01*
X141119365Y-114826559D02*
X141179842Y-114887035D01*
X141179842Y-114887035D02*
X141240318Y-115007987D01*
X141240318Y-115007987D02*
X141240318Y-115370844D01*
X141240318Y-115370844D02*
X141179842Y-115491797D01*
X141179842Y-115491797D02*
X141119365Y-115552273D01*
X145880666Y-105161842D02*
X146062095Y-105222318D01*
X146062095Y-105222318D02*
X146364476Y-105222318D01*
X146364476Y-105222318D02*
X146485428Y-105161842D01*
X146485428Y-105161842D02*
X146545904Y-105101365D01*
X146545904Y-105101365D02*
X146606381Y-104980413D01*
X146606381Y-104980413D02*
X146606381Y-104859461D01*
X146606381Y-104859461D02*
X146545904Y-104738508D01*
X146545904Y-104738508D02*
X146485428Y-104678032D01*
X146485428Y-104678032D02*
X146364476Y-104617556D01*
X146364476Y-104617556D02*
X146122571Y-104557080D01*
X146122571Y-104557080D02*
X146001619Y-104496603D01*
X146001619Y-104496603D02*
X145941142Y-104436127D01*
X145941142Y-104436127D02*
X145880666Y-104315175D01*
X145880666Y-104315175D02*
X145880666Y-104194222D01*
X145880666Y-104194222D02*
X145941142Y-104073270D01*
X145941142Y-104073270D02*
X146001619Y-104012794D01*
X146001619Y-104012794D02*
X146122571Y-103952318D01*
X146122571Y-103952318D02*
X146424952Y-103952318D01*
X146424952Y-103952318D02*
X146606381Y-104012794D01*
X147029714Y-103952318D02*
X147332095Y-105222318D01*
X147332095Y-105222318D02*
X147574000Y-104315175D01*
X147574000Y-104315175D02*
X147815905Y-105222318D01*
X147815905Y-105222318D02*
X148118286Y-103952318D01*
X149267334Y-105222318D02*
X148541619Y-105222318D01*
X148904476Y-105222318D02*
X148904476Y-103952318D01*
X148904476Y-103952318D02*
X148783524Y-104133746D01*
X148783524Y-104133746D02*
X148662572Y-104254699D01*
X148662572Y-104254699D02*
X148541619Y-104315175D01*
X149394333Y-109540318D02*
X148970999Y-108935556D01*
X148668618Y-109540318D02*
X148668618Y-108270318D01*
X148668618Y-108270318D02*
X149152428Y-108270318D01*
X149152428Y-108270318D02*
X149273380Y-108330794D01*
X149273380Y-108330794D02*
X149333857Y-108391270D01*
X149333857Y-108391270D02*
X149394333Y-108512222D01*
X149394333Y-108512222D02*
X149394333Y-108693651D01*
X149394333Y-108693651D02*
X149333857Y-108814603D01*
X149333857Y-108814603D02*
X149273380Y-108875080D01*
X149273380Y-108875080D02*
X149152428Y-108935556D01*
X149152428Y-108935556D02*
X148668618Y-108935556D01*
X150603857Y-109540318D02*
X149878142Y-109540318D01*
X150240999Y-109540318D02*
X150240999Y-108270318D01*
X150240999Y-108270318D02*
X150120047Y-108451746D01*
X150120047Y-108451746D02*
X149999095Y-108572699D01*
X149999095Y-108572699D02*
X149878142Y-108633175D01*
X149394333Y-121478318D02*
X148970999Y-120873556D01*
X148668618Y-121478318D02*
X148668618Y-120208318D01*
X148668618Y-120208318D02*
X149152428Y-120208318D01*
X149152428Y-120208318D02*
X149273380Y-120268794D01*
X149273380Y-120268794D02*
X149333857Y-120329270D01*
X149333857Y-120329270D02*
X149394333Y-120450222D01*
X149394333Y-120450222D02*
X149394333Y-120631651D01*
X149394333Y-120631651D02*
X149333857Y-120752603D01*
X149333857Y-120752603D02*
X149273380Y-120813080D01*
X149273380Y-120813080D02*
X149152428Y-120873556D01*
X149152428Y-120873556D02*
X148668618Y-120873556D01*
X149878142Y-120329270D02*
X149938618Y-120268794D01*
X149938618Y-120268794D02*
X150059571Y-120208318D01*
X150059571Y-120208318D02*
X150361952Y-120208318D01*
X150361952Y-120208318D02*
X150482904Y-120268794D01*
X150482904Y-120268794D02*
X150543380Y-120329270D01*
X150543380Y-120329270D02*
X150603857Y-120450222D01*
X150603857Y-120450222D02*
X150603857Y-120571175D01*
X150603857Y-120571175D02*
X150543380Y-120752603D01*
X150543380Y-120752603D02*
X149817666Y-121478318D01*
X149817666Y-121478318D02*
X150603857Y-121478318D01*
X101902380Y-120548318D02*
X101902380Y-121576413D01*
X101902380Y-121576413D02*
X101962857Y-121697365D01*
X101962857Y-121697365D02*
X102023333Y-121757842D01*
X102023333Y-121757842D02*
X102144285Y-121818318D01*
X102144285Y-121818318D02*
X102386190Y-121818318D01*
X102386190Y-121818318D02*
X102507142Y-121757842D01*
X102507142Y-121757842D02*
X102567619Y-121697365D01*
X102567619Y-121697365D02*
X102628095Y-121576413D01*
X102628095Y-121576413D02*
X102628095Y-120548318D01*
X103172380Y-120669270D02*
X103232856Y-120608794D01*
X103232856Y-120608794D02*
X103353809Y-120548318D01*
X103353809Y-120548318D02*
X103656190Y-120548318D01*
X103656190Y-120548318D02*
X103777142Y-120608794D01*
X103777142Y-120608794D02*
X103837618Y-120669270D01*
X103837618Y-120669270D02*
X103898095Y-120790222D01*
X103898095Y-120790222D02*
X103898095Y-120911175D01*
X103898095Y-120911175D02*
X103837618Y-121092603D01*
X103837618Y-121092603D02*
X103111904Y-121818318D01*
X103111904Y-121818318D02*
X103898095Y-121818318D01*
%TO.C,U1*%
D13*
X158660000Y-98068000D02*
X176660000Y-98068000D01*
X176660000Y-121568000D01*
X158660000Y-121568000D01*
X158660000Y-98068000D01*
D14*
X163310000Y-98068000D02*
X171990000Y-98068000D01*
X171990000Y-96568000D01*
X163310000Y-96568000D01*
X163310000Y-98068000D01*
D15*
%TO.C,R3*%
X154432000Y-112512000D02*
X153670000Y-112512000D01*
X154432000Y-107432000D02*
X154432000Y-112512000D01*
X153670000Y-112512000D02*
X153670000Y-112766000D01*
X153670000Y-112512000D02*
X152908000Y-112512000D01*
X153670000Y-107432000D02*
X154432000Y-107432000D01*
X153670000Y-107432000D02*
X153670000Y-107178000D01*
X152908000Y-112512000D02*
X152908000Y-107432000D01*
X152908000Y-107432000D02*
X153670000Y-107432000D01*
D16*
%TO.C,J3*%
X137416000Y-115612750D02*
X137416000Y-119590750D01*
X137416000Y-119590750D02*
X144016000Y-119590750D01*
X144016000Y-114175250D02*
X140666000Y-114175250D01*
X144016000Y-119590750D02*
X144016000Y-114175250D01*
%TO.C,SW1*%
X140022000Y-99088000D02*
X148522000Y-99088000D01*
X140022000Y-102588000D02*
X140022000Y-99088000D01*
X144272000Y-97088000D02*
X146272000Y-97088000D01*
X144272000Y-99088000D02*
X144272000Y-97088000D01*
X146272000Y-97088000D02*
X146272000Y-99088000D01*
D14*
X146772000Y-103138000D02*
X146772000Y-103138000D01*
X146772000Y-103238000D02*
X146772000Y-103238000D01*
D16*
X148522000Y-99088000D02*
X148522000Y-102588000D01*
X148522000Y-102588000D02*
X140022000Y-102588000D01*
D14*
X146772000Y-103138000D02*
G75*
G02*
X146772000Y-103238000I0J-50000D01*
G01*
X146772000Y-103238000D02*
G75*
G02*
X146772000Y-103138000I0J50000D01*
G01*
D15*
%TO.C,R1*%
X148082000Y-108702000D02*
X148082000Y-113782000D01*
X147320000Y-108702000D02*
X147320000Y-108448000D01*
X147320000Y-108702000D02*
X148082000Y-108702000D01*
X146558000Y-108702000D02*
X147320000Y-108702000D01*
X148082000Y-113782000D02*
X147320000Y-113782000D01*
X147320000Y-113782000D02*
X146558000Y-113782000D01*
X147320000Y-113782000D02*
X147320000Y-114036000D01*
X146558000Y-113782000D02*
X146558000Y-108702000D01*
%TO.C,R2*%
X148082000Y-120640000D02*
X148082000Y-125720000D01*
X147320000Y-120640000D02*
X147320000Y-120386000D01*
X147320000Y-120640000D02*
X148082000Y-120640000D01*
X146558000Y-120640000D02*
X147320000Y-120640000D01*
X148082000Y-125720000D02*
X147320000Y-125720000D01*
X147320000Y-125720000D02*
X146558000Y-125720000D01*
X147320000Y-125720000D02*
X147320000Y-125974000D01*
X146558000Y-125720000D02*
X146558000Y-120640000D01*
D13*
%TO.C,U2*%
X135872000Y-96336000D02*
X135872000Y-98736000D01*
X133472000Y-96336000D02*
X135872000Y-96336000D01*
X127072000Y-96336000D02*
X127072000Y-98736000D01*
X124672000Y-96336000D02*
X127072000Y-96336000D01*
X121072000Y-96336000D02*
X121072000Y-98736000D01*
X118672000Y-96336000D02*
X121072000Y-96336000D01*
X105072000Y-96336000D02*
X105072000Y-98736000D01*
X102672000Y-96336000D02*
X105072000Y-96336000D01*
X135872000Y-98736000D02*
X133472000Y-98736000D01*
X133472000Y-98736000D02*
X133472000Y-96336000D01*
X127072000Y-98736000D02*
X124672000Y-98736000D01*
X124672000Y-98736000D02*
X124672000Y-96336000D01*
X121072000Y-98736000D02*
X118672000Y-98736000D01*
X118672000Y-98736000D02*
X118672000Y-96336000D01*
X105072000Y-98736000D02*
X102672000Y-98736000D01*
X102672000Y-98736000D02*
X102672000Y-96336000D01*
X118072000Y-117036000D02*
X118072000Y-119436000D01*
X115672000Y-117036000D02*
X118072000Y-117036000D01*
X108072000Y-117036000D02*
X108072000Y-119436000D01*
X105672000Y-117036000D02*
X108072000Y-117036000D01*
X118072000Y-119436000D02*
X115672000Y-119436000D01*
X115672000Y-119436000D02*
X115672000Y-117036000D01*
X108072000Y-119436000D02*
X105672000Y-119436000D01*
X105672000Y-119436000D02*
X105672000Y-117036000D01*
X135872000Y-96536000D02*
X101872000Y-96536000D01*
X101872000Y-119536000D01*
X135872000Y-119536000D01*
X135872000Y-96536000D01*
%TD*%
M02*
