M48
; DRILL file {KiCad 9.0.6} date 2026-01-09T06:41:58-0600
; FORMAT={-:-/ absolute / inch / decimal}
; #@! TF.CreationDate,2026-01-09T06:41:58-06:00
; #@! TF.GenerationSoftware,Kicad,Pcbnew,9.0.6
; #@! TF.FileFunction,Plated,1,2,PTH
FMAT,2
INCH
; #@! TA.AperFunction,Plated,PTH,ComponentDrill
T1C0.0311
; #@! TA.AperFunction,Plated,PTH,ComponentDrill
T2C0.0354
; #@! TA.AperFunction,Plated,PTH,ComponentDrill
T3C0.0394
; #@! TA.AperFunction,Plated,PTH,ComponentDrill
T4C0.0400
; #@! TA.AperFunction,Plated,PTH,ComponentDrill
T5C0.0571
%
G90
G05
T1
X5.5816Y-3.97
X5.68Y-3.97
X5.7784Y-3.97
T2
X5.8Y-4.2296
X5.8Y-4.5296
X5.8Y-4.6996
X5.8Y-4.9996
X6.05Y-4.1796
X6.05Y-4.4796
T3
X4.0894Y-3.84
X4.2076Y-4.655
X4.6013Y-4.655
X4.7194Y-3.84
X4.9556Y-3.84
X5.302Y-3.84
X6.3055Y-3.92
X6.3055Y-4.0199
X6.3055Y-4.1198
X6.3055Y-4.2197
X6.3055Y-4.3196
X6.3055Y-4.4195
X6.3055Y-4.5194
X6.3055Y-4.6193
X6.3055Y-4.7192
X6.9Y-3.92
X6.9Y-4.0199
X6.9Y-4.1198
X6.9Y-4.2197
X6.9Y-4.3196
X6.9Y-4.4195
X6.9Y-4.5194
X6.9Y-4.6193
X6.9Y-4.7192
T4
X6.0Y-3.91
X6.1Y-3.91
X7.14Y-4.21
X7.14Y-4.31
X7.14Y-4.41
X7.14Y-4.51
X7.14Y-4.61
X7.14Y-4.71
X7.14Y-4.81
X7.14Y-4.91
T5
X5.538Y-4.5517
X5.538Y-4.6517
M30
