%TF.GenerationSoftware,KiCad,Pcbnew,9.0.6*%
%TF.CreationDate,2026-01-09T06:42:04-06:00*%
%TF.ProjectId,weather_station1,77656174-6865-4725-9f73-746174696f6e,V1.10*%
%TF.SameCoordinates,Original*%
%TF.FileFunction,Copper,L2,Bot*%
%TF.FilePolarity,Positive*%
%FSLAX46Y46*%
G04 Gerber Fmt 4.6, Leading zero omitted, Abs format (unit mm)*
G04 Created by KiCad (PCBNEW 9.0.6) date 2026-01-09 06:42:04*
%MOMM*%
%LPD*%
G01*
G04 APERTURE LIST*
%TA.AperFunction,ComponentPad*%
%ADD10R,3.010000X1.510000*%
%TD*%
%TA.AperFunction,ComponentPad*%
%ADD11C,1.879600*%
%TD*%
%TA.AperFunction,ComponentPad*%
%ADD12R,2.175000X2.175000*%
%TD*%
%TA.AperFunction,ComponentPad*%
%ADD13C,2.175000*%
%TD*%
%TA.AperFunction,ComponentPad*%
%ADD14R,1.354000X1.354000*%
%TD*%
%TA.AperFunction,ComponentPad*%
%ADD15C,1.354000*%
%TD*%
%TA.AperFunction,ComponentPad*%
%ADD16R,2.000000X2.000000*%
%TD*%
%TA.AperFunction,Conductor*%
%ADD17C,0.508000*%
%TD*%
G04 APERTURE END LIST*
D10*
%TO.P,U1,1,VCC*%
%TO.N,5V*%
X160115000Y-99613000D03*
%TO.P,U1,2,GND*%
%TO.N,GND*%
X160115000Y-102150500D03*
%TO.P,U1,3,V3V*%
%TO.N,/3.3V*%
X160115000Y-104688000D03*
%TO.P,U1,4,IO0*%
%TO.N,/BAT_LEVEL*%
X160115000Y-107225500D03*
%TO.P,U1,5,IO1*%
%TO.N,/D{slash}C*%
X160115000Y-109763000D03*
%TO.P,U1,6,IO2*%
%TO.N,unconnected-(U1-IO2-Pad6)*%
X160115000Y-112300500D03*
%TO.P,U1,7,IO3*%
%TO.N,/BUSY*%
X160115000Y-114838000D03*
%TO.P,U1,8,IO4*%
%TO.N,/SCL*%
X160115000Y-117375500D03*
%TO.P,U1,9,IO5*%
%TO.N,unconnected-(U1-IO5-Pad9)*%
X160115000Y-119913000D03*
%TO.P,U1,10,IO6*%
%TO.N,/SDA*%
X175215000Y-119913000D03*
%TO.P,U1,11,IO7*%
%TO.N,/CS*%
X175215000Y-117375500D03*
%TO.P,U1,12,IO8*%
%TO.N,/RES*%
X175215000Y-114838000D03*
%TO.P,U1,13,IO9*%
%TO.N,unconnected-(U1-IO9-Pad13)*%
X175215000Y-112300500D03*
%TO.P,U1,14,IO10*%
%TO.N,Net-(U1-IO10)*%
X175215000Y-109763000D03*
%TO.P,U1,15,IO18*%
%TO.N,unconnected-(U1-IO18-Pad15)*%
X175215000Y-107225500D03*
%TO.P,U1,16,IO19*%
%TO.N,unconnected-(U1-IO19-Pad16)*%
X175215000Y-104688000D03*
%TO.P,U1,17,IO20*%
%TO.N,unconnected-(U1-IO20-Pad17)*%
X175215000Y-102150500D03*
%TO.P,U1,18,IO21*%
%TO.N,unconnected-(U1-IO21-Pad18)*%
X175215000Y-99613000D03*
%TD*%
D11*
%TO.P,R3,2*%
%TO.N,Net-(D1-A)*%
X153670000Y-106162000D03*
%TO.P,R3,1*%
%TO.N,Net-(U1-IO10)*%
X153670000Y-113782000D03*
%TD*%
%TO.P,D1,2,A*%
%TO.N,Net-(D1-A)*%
X152400000Y-99314000D03*
%TO.P,D1,1,K*%
%TO.N,GND*%
X154940000Y-99314000D03*
%TD*%
%TO.P,J1,8,Pin_8*%
%TO.N,/BUSY*%
X181356000Y-124714000D03*
%TO.P,J1,7,Pin_7*%
%TO.N,/RES*%
X181356000Y-122174000D03*
%TO.P,J1,6,Pin_6*%
%TO.N,/D{slash}C*%
X181356000Y-119634000D03*
%TO.P,J1,5,Pin_5*%
%TO.N,/CS*%
X181356000Y-117094000D03*
%TO.P,J1,4,Pin_4*%
%TO.N,/SCL*%
X181356000Y-114554000D03*
%TO.P,J1,3,Pin_3*%
%TO.N,/SDA*%
X181356000Y-112014000D03*
%TO.P,J1,2,Pin_2*%
%TO.N,GND*%
X181356000Y-109474000D03*
%TO.P,J1,1,Pin_1*%
%TO.N,/3.3V*%
X181356000Y-106934000D03*
%TD*%
D12*
%TO.P,J3,1,1*%
%TO.N,/BAT_OUT*%
X140666000Y-115612750D03*
D13*
%TO.P,J3,2,2*%
%TO.N,GND*%
X140666000Y-118152750D03*
%TD*%
D14*
%TO.P,SW1,1,NC*%
%TO.N,unconnected-(SW1-NC-Pad1)*%
X146772000Y-100838000D03*
D15*
%TO.P,SW1,2,COM*%
%TO.N,/BAT_OUT*%
X144272000Y-100838000D03*
%TO.P,SW1,3,NO*%
%TO.N,/BAT+*%
X141772000Y-100838000D03*
%TD*%
D11*
%TO.P,R1,1*%
%TO.N,/BAT_LEVEL*%
X147320000Y-115052000D03*
%TO.P,R1,2*%
%TO.N,/BAT_OUT*%
X147320000Y-107432000D03*
%TD*%
%TO.P,R2,1*%
%TO.N,GND*%
X147320000Y-126990000D03*
%TO.P,R2,2*%
%TO.N,/BAT_LEVEL*%
X147320000Y-119370000D03*
%TD*%
D16*
%TO.P,U2,1,VOUT+*%
%TO.N,5V*%
X134672000Y-97536000D03*
%TO.P,U2,2,VOUT-*%
%TO.N,GND*%
X125872000Y-97536000D03*
%TO.P,U2,3,IN+*%
%TO.N,unconnected-(U2-IN+-Pad3)*%
X119872000Y-97536000D03*
%TO.P,U2,4,IN-*%
%TO.N,unconnected-(U2-IN--Pad4)*%
X103872000Y-97536000D03*
%TO.P,U2,5,BAT-*%
%TO.N,GND*%
X106872000Y-118236000D03*
%TO.P,U2,6,BAT+*%
%TO.N,/BAT+*%
X116872000Y-118236000D03*
%TD*%
D17*
%TO.N,GND*%
X140412000Y-122174000D02*
X140666000Y-122428000D01*
X140666000Y-122428000D02*
X140666000Y-125426000D01*
X106872000Y-120588000D02*
X108458000Y-122174000D01*
X108458000Y-122174000D02*
X140412000Y-122174000D01*
X106872000Y-118236000D02*
X106872000Y-120588000D01*
X106872000Y-116536000D02*
X125872000Y-97536000D01*
X106872000Y-118236000D02*
X106872000Y-116536000D01*
X142250000Y-126990000D02*
X147320000Y-126990000D01*
X142240000Y-127000000D02*
X142250000Y-126990000D01*
X140666000Y-125426000D02*
X142240000Y-127000000D01*
X140666000Y-118152750D02*
X140666000Y-122428000D01*
X156720500Y-102105500D02*
X156464000Y-102362000D01*
X156464000Y-102362000D02*
X156464000Y-107188000D01*
X160160000Y-102105500D02*
X156720500Y-102105500D01*
X142203957Y-118152750D02*
X140666000Y-118152750D01*
X143510000Y-116846707D02*
X142203957Y-118152750D01*
X143510000Y-114554000D02*
X143510000Y-116846707D01*
X151130000Y-112522000D02*
X145542000Y-112522000D01*
X156464000Y-107188000D02*
X151130000Y-112522000D01*
X156464000Y-100838000D02*
X156464000Y-102362000D01*
X154940000Y-99314000D02*
X156464000Y-100838000D01*
X145542000Y-112522000D02*
X143510000Y-114554000D01*
%TO.N,Net-(U1-IO10)*%
X153776400Y-113675600D02*
X153670000Y-113782000D01*
X165724400Y-113675600D02*
X153776400Y-113675600D01*
X169672000Y-109728000D02*
X165724400Y-113675600D01*
X175250000Y-109728000D02*
X175260000Y-109718000D01*
X169672000Y-109728000D02*
X175250000Y-109728000D01*
%TO.N,/SCL*%
X163322000Y-122936000D02*
X166878000Y-126492000D01*
X163322000Y-118872000D02*
X163322000Y-122936000D01*
X166878000Y-126492000D02*
X182626000Y-126492000D01*
X161780500Y-117330500D02*
X163322000Y-118872000D01*
X160160000Y-117330500D02*
X161780500Y-117330500D01*
%TO.N,/SDA*%
X180086000Y-112014000D02*
X181356000Y-112014000D01*
X178816000Y-118618000D02*
X178816000Y-113284000D01*
X178054000Y-119380000D02*
X178816000Y-118618000D01*
X178816000Y-113284000D02*
X180086000Y-112014000D01*
X175748000Y-119380000D02*
X178054000Y-119380000D01*
X175260000Y-119868000D02*
X175748000Y-119380000D01*
%TO.N,/RES*%
X174991000Y-115062000D02*
X175260000Y-114793000D01*
X172212000Y-121412000D02*
X172212000Y-116078000D01*
X173228000Y-115062000D02*
X174991000Y-115062000D01*
X172974000Y-122174000D02*
X172212000Y-121412000D01*
X181356000Y-122174000D02*
X172974000Y-122174000D01*
X172212000Y-116078000D02*
X173228000Y-115062000D01*
%TO.N,/SCL*%
X181356000Y-114554000D02*
X183134000Y-114554000D01*
X183134000Y-114554000D02*
X183896000Y-115316000D01*
X183896000Y-125222000D02*
X182626000Y-126492000D01*
X183896000Y-115316000D02*
X183896000Y-125222000D01*
%TO.N,GND*%
X160160000Y-102105500D02*
X161546500Y-102105500D01*
X179324000Y-109474000D02*
X181356000Y-109474000D01*
X178054000Y-97790000D02*
X178054000Y-108204000D01*
X161546500Y-102105500D02*
X167132000Y-96520000D01*
X167132000Y-96520000D02*
X176784000Y-96520000D01*
X178054000Y-108204000D02*
X179324000Y-109474000D01*
X176784000Y-96520000D02*
X178054000Y-97790000D01*
%TD*%
%TA.AperFunction,Conductor*%
%TO.N,GND*%
G36*
X95481739Y-96032185D02*
G01*
X95527494Y-96084989D01*
X95537438Y-96154147D01*
X95508413Y-96217703D01*
X95455655Y-96253541D01*
X95369945Y-96283532D01*
X95066316Y-96429752D01*
X94780962Y-96609053D01*
X94517477Y-96819174D01*
X94279174Y-97057477D01*
X94069053Y-97320962D01*
X93889752Y-97606316D01*
X93743532Y-97909945D01*
X93632227Y-98228034D01*
X93632223Y-98228046D01*
X93557233Y-98556602D01*
X93557231Y-98556618D01*
X93519500Y-98891491D01*
X93519500Y-99228508D01*
X93557231Y-99563381D01*
X93557233Y-99563397D01*
X93632223Y-99891953D01*
X93632227Y-99891965D01*
X93743532Y-100210054D01*
X93889752Y-100513683D01*
X93889754Y-100513686D01*
X94069054Y-100799039D01*
X94214176Y-100981017D01*
X94259583Y-101037956D01*
X94279175Y-101062523D01*
X94517477Y-101300825D01*
X94780961Y-101510946D01*
X95066314Y-101690246D01*
X95369949Y-101836469D01*
X95552939Y-101900500D01*
X95688034Y-101947772D01*
X95688046Y-101947776D01*
X96016606Y-102022767D01*
X96351492Y-102060499D01*
X96351493Y-102060500D01*
X96351496Y-102060500D01*
X96688507Y-102060500D01*
X96688507Y-102060499D01*
X97023394Y-102022767D01*
X97351954Y-101947776D01*
X97670051Y-101836469D01*
X97973686Y-101690246D01*
X98259039Y-101510946D01*
X98522523Y-101300825D01*
X98760825Y-101062523D01*
X98970946Y-100799039D01*
X99004694Y-100745329D01*
X140594500Y-100745329D01*
X140594500Y-100930671D01*
X140611492Y-101037954D01*
X140623494Y-101113732D01*
X140680769Y-101290007D01*
X140764911Y-101455143D01*
X140764912Y-101455144D01*
X140873853Y-101605090D01*
X141004910Y-101736147D01*
X141034068Y-101757331D01*
X141154856Y-101845088D01*
X141319992Y-101929230D01*
X141319994Y-101929230D01*
X141319997Y-101929232D01*
X141496268Y-101986506D01*
X141679329Y-102015500D01*
X141679330Y-102015500D01*
X141864670Y-102015500D01*
X141864671Y-102015500D01*
X142047732Y-101986506D01*
X142224003Y-101929232D01*
X142389144Y-101845088D01*
X142539090Y-101736147D01*
X142670147Y-101605090D01*
X142779088Y-101455144D01*
X142863232Y-101290003D01*
X142904069Y-101164320D01*
X142943507Y-101106644D01*
X143007865Y-101079446D01*
X143076712Y-101091361D01*
X143128187Y-101138605D01*
X143139931Y-101164320D01*
X143180158Y-101288127D01*
X143180769Y-101290005D01*
X143212667Y-101352609D01*
X143264912Y-101455144D01*
X143373853Y-101605090D01*
X143504910Y-101736147D01*
X143534068Y-101757331D01*
X143654856Y-101845088D01*
X143819992Y-101929230D01*
X143819994Y-101929230D01*
X143819997Y-101929232D01*
X143996268Y-101986506D01*
X144179329Y-102015500D01*
X144179330Y-102015500D01*
X144364670Y-102015500D01*
X144364671Y-102015500D01*
X144547732Y-101986506D01*
X144724003Y-101929232D01*
X144889144Y-101845088D01*
X145039090Y-101736147D01*
X145170147Y-101605090D01*
X145279088Y-101455144D01*
X145360016Y-101296313D01*
X145407989Y-101245519D01*
X145475810Y-101228724D01*
X145541945Y-101251261D01*
X145585397Y-101305976D01*
X145594500Y-101352609D01*
X145594500Y-101562869D01*
X145594501Y-101562876D01*
X145600908Y-101622483D01*
X145651202Y-101757328D01*
X145651206Y-101757335D01*
X145737452Y-101872544D01*
X145737455Y-101872547D01*
X145852664Y-101958793D01*
X145852671Y-101958797D01*
X145987517Y-102009091D01*
X145987516Y-102009091D01*
X145994444Y-102009835D01*
X146047127Y-102015500D01*
X147496872Y-102015499D01*
X147556483Y-102009091D01*
X147691331Y-101958796D01*
X147806546Y-101872546D01*
X147892796Y-101757331D01*
X147943091Y-101622483D01*
X147949500Y-101562873D01*
X147949499Y-100113128D01*
X147943091Y-100053517D01*
X147892796Y-99918669D01*
X147892795Y-99918668D01*
X147892793Y-99918664D01*
X147806547Y-99803455D01*
X147806544Y-99803452D01*
X147691335Y-99717206D01*
X147691328Y-99717202D01*
X147556482Y-99666908D01*
X147556483Y-99666908D01*
X147496883Y-99660501D01*
X147496881Y-99660500D01*
X147496873Y-99660500D01*
X147496864Y-99660500D01*
X146047129Y-99660500D01*
X146047123Y-99660501D01*
X145987516Y-99666908D01*
X145852671Y-99717202D01*
X145852664Y-99717206D01*
X145737455Y-99803452D01*
X145737452Y-99803455D01*
X145651206Y-99918664D01*
X145651202Y-99918671D01*
X145600908Y-100053517D01*
X145598966Y-100071586D01*
X145594501Y-100113123D01*
X145594500Y-100113135D01*
X145594500Y-100323388D01*
X145574815Y-100390427D01*
X145522011Y-100436182D01*
X145452853Y-100446126D01*
X145389297Y-100417101D01*
X145360015Y-100379683D01*
X145279088Y-100220856D01*
X145218884Y-100137991D01*
X145170147Y-100070910D01*
X145039090Y-99939853D01*
X144973161Y-99891953D01*
X144889143Y-99830911D01*
X144724007Y-99746769D01*
X144547732Y-99689494D01*
X144364671Y-99660500D01*
X144179329Y-99660500D01*
X144087798Y-99674997D01*
X143996267Y-99689494D01*
X143819992Y-99746769D01*
X143654856Y-99830911D01*
X143504909Y-99939853D01*
X143373853Y-100070909D01*
X143264911Y-100220856D01*
X143180769Y-100385992D01*
X143139931Y-100511680D01*
X143100493Y-100569355D01*
X143036134Y-100596553D01*
X142967288Y-100584638D01*
X142915812Y-100537394D01*
X142904069Y-100511680D01*
X142873338Y-100417101D01*
X142863232Y-100385997D01*
X142863230Y-100385994D01*
X142863230Y-100385992D01*
X142779088Y-100220856D01*
X142718884Y-100137991D01*
X142670147Y-100070910D01*
X142539090Y-99939853D01*
X142473161Y-99891953D01*
X142389143Y-99830911D01*
X142224007Y-99746769D01*
X142047732Y-99689494D01*
X141864671Y-99660500D01*
X141679329Y-99660500D01*
X141587798Y-99674997D01*
X141496267Y-99689494D01*
X141319992Y-99746769D01*
X141154856Y-99830911D01*
X141004909Y-99939853D01*
X140873853Y-100070909D01*
X140764911Y-100220856D01*
X140680769Y-100385992D01*
X140623494Y-100562267D01*
X140594500Y-100745329D01*
X99004694Y-100745329D01*
X99150246Y-100513686D01*
X99296469Y-100210051D01*
X99407776Y-99891954D01*
X99482767Y-99563394D01*
X99520500Y-99228504D01*
X99520500Y-99200646D01*
X150959700Y-99200646D01*
X150959700Y-99427353D01*
X150995165Y-99651272D01*
X151065219Y-99866880D01*
X151065220Y-99866883D01*
X151091607Y-99918669D01*
X151168013Y-100068623D01*
X151168147Y-100068885D01*
X151301394Y-100252286D01*
X151301398Y-100252291D01*
X151461708Y-100412601D01*
X151461713Y-100412605D01*
X151598080Y-100511680D01*
X151645118Y-100545855D01*
X151771653Y-100610328D01*
X151847116Y-100648779D01*
X151847119Y-100648780D01*
X151954923Y-100683807D01*
X152062729Y-100718835D01*
X152286646Y-100754300D01*
X152286647Y-100754300D01*
X152513353Y-100754300D01*
X152513354Y-100754300D01*
X152737271Y-100718835D01*
X152952883Y-100648779D01*
X153154882Y-100545855D01*
X153338293Y-100412600D01*
X153498600Y-100252293D01*
X153569990Y-100154031D01*
X153625320Y-100111365D01*
X153694933Y-100105386D01*
X153756728Y-100137991D01*
X153770627Y-100154031D01*
X153841776Y-100251961D01*
X154002034Y-100412219D01*
X154002039Y-100412223D01*
X154185376Y-100545424D01*
X154387311Y-100648316D01*
X154602838Y-100718344D01*
X154690000Y-100732149D01*
X154690000Y-99756251D01*
X154743919Y-99787381D01*
X154873120Y-99822000D01*
X155006880Y-99822000D01*
X155136081Y-99787381D01*
X155190000Y-99756251D01*
X155190000Y-100732148D01*
X155277161Y-100718344D01*
X155492688Y-100648316D01*
X155694623Y-100545424D01*
X155877960Y-100412223D01*
X155877965Y-100412219D01*
X156038219Y-100251965D01*
X156038223Y-100251960D01*
X156171424Y-100068623D01*
X156274316Y-99866688D01*
X156344346Y-99651158D01*
X156344346Y-99651155D01*
X156358151Y-99564000D01*
X155382251Y-99564000D01*
X155413381Y-99510081D01*
X155448000Y-99380880D01*
X155448000Y-99247120D01*
X155413381Y-99117919D01*
X155382251Y-99064000D01*
X156358151Y-99064000D01*
X156344346Y-98976844D01*
X156344346Y-98976841D01*
X156301549Y-98845124D01*
X156274316Y-98761311D01*
X156171424Y-98559376D01*
X156038223Y-98376039D01*
X156038219Y-98376034D01*
X155877965Y-98215780D01*
X155877960Y-98215776D01*
X155694623Y-98082575D01*
X155492688Y-97979683D01*
X155277156Y-97909653D01*
X155190000Y-97895848D01*
X155190000Y-98871748D01*
X155136081Y-98840619D01*
X155006880Y-98806000D01*
X154873120Y-98806000D01*
X154743919Y-98840619D01*
X154690000Y-98871748D01*
X154690000Y-97895848D01*
X154602844Y-97909653D01*
X154602841Y-97909653D01*
X154387311Y-97979683D01*
X154185376Y-98082575D01*
X154002039Y-98215776D01*
X154002034Y-98215780D01*
X153841780Y-98376034D01*
X153841776Y-98376039D01*
X153770627Y-98473968D01*
X153715297Y-98516634D01*
X153645684Y-98522613D01*
X153583889Y-98490007D01*
X153569991Y-98473968D01*
X153498605Y-98375712D01*
X153338291Y-98215398D01*
X153338286Y-98215394D01*
X153154885Y-98082147D01*
X153154884Y-98082146D01*
X153154882Y-98082145D01*
X153064318Y-98036000D01*
X152952883Y-97979220D01*
X152952880Y-97979219D01*
X152737272Y-97909165D01*
X152625312Y-97891432D01*
X152513354Y-97873700D01*
X152286646Y-97873700D01*
X152212007Y-97885521D01*
X152062727Y-97909165D01*
X151847119Y-97979219D01*
X151847116Y-97979220D01*
X151645114Y-98082147D01*
X151461713Y-98215394D01*
X151461708Y-98215398D01*
X151301398Y-98375708D01*
X151301394Y-98375713D01*
X151168147Y-98559114D01*
X151065220Y-98761116D01*
X151065219Y-98761119D01*
X150995165Y-98976727D01*
X150959700Y-99200646D01*
X99520500Y-99200646D01*
X99520500Y-98891496D01*
X99482767Y-98556606D01*
X99407776Y-98228046D01*
X99296469Y-97909949D01*
X99150246Y-97606314D01*
X98970946Y-97320961D01*
X98760825Y-97057477D01*
X98522523Y-96819175D01*
X98259039Y-96609054D01*
X97973686Y-96429754D01*
X97973683Y-96429752D01*
X97670054Y-96283532D01*
X97584345Y-96253541D01*
X97527569Y-96212819D01*
X97501822Y-96147867D01*
X97515278Y-96079305D01*
X97563666Y-96028902D01*
X97625300Y-96012500D01*
X102390965Y-96012500D01*
X102458004Y-96032185D01*
X102503759Y-96084989D01*
X102513703Y-96154147D01*
X102490231Y-96210811D01*
X102428206Y-96293664D01*
X102428202Y-96293671D01*
X102377908Y-96428517D01*
X102371501Y-96488116D01*
X102371501Y-96488123D01*
X102371500Y-96488135D01*
X102371500Y-98583870D01*
X102371501Y-98583876D01*
X102377908Y-98643483D01*
X102428202Y-98778328D01*
X102428206Y-98778335D01*
X102514452Y-98893544D01*
X102514455Y-98893547D01*
X102629664Y-98979793D01*
X102629671Y-98979797D01*
X102764517Y-99030091D01*
X102764516Y-99030091D01*
X102771444Y-99030835D01*
X102824127Y-99036500D01*
X104919872Y-99036499D01*
X104979483Y-99030091D01*
X105114331Y-98979796D01*
X105229546Y-98893546D01*
X105315796Y-98778331D01*
X105366091Y-98643483D01*
X105372500Y-98583873D01*
X105372499Y-96488128D01*
X105366091Y-96428517D01*
X105315886Y-96293911D01*
X105315797Y-96293671D01*
X105315793Y-96293664D01*
X105253769Y-96210811D01*
X105229351Y-96145347D01*
X105244202Y-96077074D01*
X105293607Y-96027668D01*
X105353035Y-96012500D01*
X118390965Y-96012500D01*
X118458004Y-96032185D01*
X118503759Y-96084989D01*
X118513703Y-96154147D01*
X118490231Y-96210811D01*
X118428206Y-96293664D01*
X118428202Y-96293671D01*
X118377908Y-96428517D01*
X118371501Y-96488116D01*
X118371501Y-96488123D01*
X118371500Y-96488135D01*
X118371500Y-98583870D01*
X118371501Y-98583876D01*
X118377908Y-98643483D01*
X118428202Y-98778328D01*
X118428206Y-98778335D01*
X118514452Y-98893544D01*
X118514455Y-98893547D01*
X118629664Y-98979793D01*
X118629671Y-98979797D01*
X118764517Y-99030091D01*
X118764516Y-99030091D01*
X118771444Y-99030835D01*
X118824127Y-99036500D01*
X120919872Y-99036499D01*
X120979483Y-99030091D01*
X121114331Y-98979796D01*
X121229546Y-98893546D01*
X121315796Y-98778331D01*
X121366091Y-98643483D01*
X121372500Y-98583873D01*
X121372499Y-97470174D01*
X121372499Y-96488129D01*
X121372498Y-96488123D01*
X121372497Y-96488116D01*
X121366091Y-96428517D01*
X121315886Y-96293911D01*
X121315797Y-96293671D01*
X121315793Y-96293664D01*
X121253769Y-96210811D01*
X121229351Y-96145347D01*
X121244202Y-96077074D01*
X121293607Y-96027668D01*
X121353035Y-96012500D01*
X124391589Y-96012500D01*
X124458628Y-96032185D01*
X124504383Y-96084989D01*
X124514327Y-96154147D01*
X124490856Y-96210811D01*
X124428646Y-96293911D01*
X124428645Y-96293913D01*
X124378403Y-96428620D01*
X124378401Y-96428627D01*
X124372000Y-96488155D01*
X124372000Y-97286000D01*
X125438988Y-97286000D01*
X125406075Y-97343007D01*
X125372000Y-97470174D01*
X125372000Y-97601826D01*
X125406075Y-97728993D01*
X125438988Y-97786000D01*
X124372000Y-97786000D01*
X124372000Y-98583844D01*
X124378401Y-98643372D01*
X124378403Y-98643379D01*
X124428645Y-98778086D01*
X124428649Y-98778093D01*
X124514809Y-98893187D01*
X124514812Y-98893190D01*
X124629906Y-98979350D01*
X124629913Y-98979354D01*
X124764620Y-99029596D01*
X124764627Y-99029598D01*
X124824155Y-99035999D01*
X124824172Y-99036000D01*
X125622000Y-99036000D01*
X125622000Y-97969012D01*
X125679007Y-98001925D01*
X125806174Y-98036000D01*
X125937826Y-98036000D01*
X126064993Y-98001925D01*
X126122000Y-97969012D01*
X126122000Y-99036000D01*
X126919828Y-99036000D01*
X126919844Y-99035999D01*
X126979372Y-99029598D01*
X126979379Y-99029596D01*
X127114086Y-98979354D01*
X127114093Y-98979350D01*
X127229187Y-98893190D01*
X127229190Y-98893187D01*
X127315350Y-98778093D01*
X127315354Y-98778086D01*
X127365596Y-98643379D01*
X127365598Y-98643372D01*
X127371999Y-98583844D01*
X127372000Y-98583827D01*
X127372000Y-97786000D01*
X126305012Y-97786000D01*
X126337925Y-97728993D01*
X126372000Y-97601826D01*
X126372000Y-97470174D01*
X126337925Y-97343007D01*
X126305012Y-97286000D01*
X127372000Y-97286000D01*
X127372000Y-96488172D01*
X127371999Y-96488155D01*
X127365598Y-96428627D01*
X127365596Y-96428620D01*
X127315354Y-96293913D01*
X127315353Y-96293911D01*
X127253144Y-96210811D01*
X127228727Y-96145347D01*
X127243578Y-96077074D01*
X127292983Y-96027668D01*
X127352411Y-96012500D01*
X133190965Y-96012500D01*
X133258004Y-96032185D01*
X133303759Y-96084989D01*
X133313703Y-96154147D01*
X133290231Y-96210811D01*
X133228206Y-96293664D01*
X133228202Y-96293671D01*
X133177908Y-96428517D01*
X133171501Y-96488116D01*
X133171501Y-96488123D01*
X133171500Y-96488135D01*
X133171500Y-98583870D01*
X133171501Y-98583876D01*
X133177908Y-98643483D01*
X133228202Y-98778328D01*
X133228206Y-98778335D01*
X133314452Y-98893544D01*
X133314455Y-98893547D01*
X133429664Y-98979793D01*
X133429671Y-98979797D01*
X133564517Y-99030091D01*
X133564516Y-99030091D01*
X133571444Y-99030835D01*
X133624127Y-99036500D01*
X135719872Y-99036499D01*
X135779483Y-99030091D01*
X135914331Y-98979796D01*
X136029546Y-98893546D01*
X136115796Y-98778331D01*
X136166091Y-98643483D01*
X136172500Y-98583873D01*
X136172499Y-96488128D01*
X136166091Y-96428517D01*
X136115886Y-96293911D01*
X136115797Y-96293671D01*
X136115793Y-96293664D01*
X136053769Y-96210811D01*
X136029351Y-96145347D01*
X136044202Y-96077074D01*
X136093607Y-96027668D01*
X136153035Y-96012500D01*
X180230700Y-96012500D01*
X180297739Y-96032185D01*
X180343494Y-96084989D01*
X180353438Y-96154147D01*
X180324413Y-96217703D01*
X180271655Y-96253541D01*
X180185945Y-96283532D01*
X179882316Y-96429752D01*
X179596962Y-96609053D01*
X179333477Y-96819174D01*
X179095174Y-97057477D01*
X178885053Y-97320962D01*
X178705752Y-97606316D01*
X178559532Y-97909945D01*
X178448227Y-98228034D01*
X178448223Y-98228046D01*
X178373233Y-98556602D01*
X178373231Y-98556618D01*
X178335500Y-98891491D01*
X178335500Y-99228508D01*
X178373231Y-99563381D01*
X178373233Y-99563397D01*
X178448223Y-99891953D01*
X178448227Y-99891965D01*
X178559532Y-100210054D01*
X178705752Y-100513683D01*
X178705754Y-100513686D01*
X178885054Y-100799039D01*
X179030176Y-100981017D01*
X179075583Y-101037956D01*
X179095175Y-101062523D01*
X179333477Y-101300825D01*
X179596961Y-101510946D01*
X179882314Y-101690246D01*
X180185949Y-101836469D01*
X180368939Y-101900500D01*
X180504034Y-101947772D01*
X180504046Y-101947776D01*
X180832606Y-102022767D01*
X181167492Y-102060499D01*
X181167493Y-102060500D01*
X181167496Y-102060500D01*
X181504507Y-102060500D01*
X181504507Y-102060499D01*
X181839394Y-102022767D01*
X182167954Y-101947776D01*
X182486051Y-101836469D01*
X182789686Y-101690246D01*
X183075039Y-101510946D01*
X183338523Y-101300825D01*
X183576825Y-101062523D01*
X183786946Y-100799039D01*
X183966246Y-100513686D01*
X184112469Y-100210051D01*
X184223776Y-99891954D01*
X184298767Y-99563394D01*
X184336500Y-99228504D01*
X184336500Y-98891496D01*
X184298767Y-98556606D01*
X184223776Y-98228046D01*
X184112469Y-97909949D01*
X183966246Y-97606314D01*
X183786946Y-97320961D01*
X183576825Y-97057477D01*
X183338523Y-96819175D01*
X183075039Y-96609054D01*
X182789686Y-96429754D01*
X182789683Y-96429752D01*
X182486054Y-96283532D01*
X182400345Y-96253541D01*
X182343569Y-96212819D01*
X182317822Y-96147867D01*
X182331278Y-96079305D01*
X182379666Y-96028902D01*
X182441300Y-96012500D01*
X188886700Y-96012500D01*
X188953739Y-96032185D01*
X188999494Y-96084989D01*
X189009438Y-96154147D01*
X188980413Y-96217703D01*
X188927655Y-96253541D01*
X188841945Y-96283532D01*
X188538316Y-96429752D01*
X188252962Y-96609053D01*
X187989477Y-96819174D01*
X187751174Y-97057477D01*
X187541053Y-97320962D01*
X187361752Y-97606316D01*
X187215532Y-97909945D01*
X187104227Y-98228034D01*
X187104223Y-98228046D01*
X187029233Y-98556602D01*
X187029231Y-98556618D01*
X186991500Y-98891491D01*
X186991500Y-99228508D01*
X187029231Y-99563381D01*
X187029233Y-99563397D01*
X187104223Y-99891953D01*
X187104227Y-99891965D01*
X187215532Y-100210054D01*
X187361752Y-100513683D01*
X187361754Y-100513686D01*
X187541054Y-100799039D01*
X187686176Y-100981017D01*
X187731583Y-101037956D01*
X187751175Y-101062523D01*
X187989477Y-101300825D01*
X188252961Y-101510946D01*
X188538314Y-101690246D01*
X188841949Y-101836469D01*
X189024939Y-101900500D01*
X189160034Y-101947772D01*
X189160046Y-101947776D01*
X189488606Y-102022767D01*
X189823492Y-102060499D01*
X189823493Y-102060500D01*
X189823496Y-102060500D01*
X190160507Y-102060500D01*
X190160507Y-102060499D01*
X190495394Y-102022767D01*
X190823954Y-101947776D01*
X191142051Y-101836469D01*
X191445686Y-101690246D01*
X191731039Y-101510946D01*
X191994523Y-101300825D01*
X192232825Y-101062523D01*
X192442946Y-100799039D01*
X192622246Y-100513686D01*
X192768469Y-100210051D01*
X192798460Y-100124340D01*
X192839180Y-100067568D01*
X192904133Y-100041821D01*
X192972695Y-100055277D01*
X193023097Y-100103665D01*
X193039500Y-100165299D01*
X193039500Y-130974700D01*
X193019815Y-131041739D01*
X192967011Y-131087494D01*
X192897853Y-131097438D01*
X192834297Y-131068413D01*
X192798459Y-131015655D01*
X192784128Y-130974700D01*
X192768469Y-130929949D01*
X192622246Y-130626314D01*
X192442946Y-130340961D01*
X192232825Y-130077477D01*
X191994523Y-129839175D01*
X191731039Y-129629054D01*
X191445686Y-129449754D01*
X191445683Y-129449752D01*
X191142054Y-129303532D01*
X190823965Y-129192227D01*
X190823953Y-129192223D01*
X190495397Y-129117233D01*
X190495381Y-129117231D01*
X190160508Y-129079500D01*
X190160504Y-129079500D01*
X189823496Y-129079500D01*
X189823491Y-129079500D01*
X189488618Y-129117231D01*
X189488602Y-129117233D01*
X189160046Y-129192223D01*
X189160034Y-129192227D01*
X188841945Y-129303532D01*
X188538316Y-129449752D01*
X188252962Y-129629053D01*
X187989477Y-129839174D01*
X187751174Y-130077477D01*
X187541053Y-130340962D01*
X187361752Y-130626316D01*
X187215532Y-130929945D01*
X187104227Y-131248034D01*
X187104223Y-131248046D01*
X187029233Y-131576602D01*
X187029231Y-131576618D01*
X186991500Y-131911491D01*
X186991500Y-132248508D01*
X187029231Y-132583381D01*
X187029233Y-132583397D01*
X187104223Y-132911953D01*
X187104227Y-132911965D01*
X187215532Y-133230054D01*
X187361752Y-133533683D01*
X187361754Y-133533686D01*
X187541054Y-133819039D01*
X187751175Y-134082523D01*
X187989477Y-134320825D01*
X188252961Y-134530946D01*
X188538314Y-134710246D01*
X188841949Y-134856469D01*
X188898171Y-134876142D01*
X188922405Y-134884622D01*
X188979181Y-134925344D01*
X189004928Y-134990296D01*
X188991471Y-135058858D01*
X188943084Y-135109261D01*
X188881395Y-135125663D01*
X182454603Y-135122825D01*
X182387572Y-135103111D01*
X182341841Y-135050287D01*
X182331928Y-134981124D01*
X182360981Y-134917581D01*
X182413699Y-134881785D01*
X182486051Y-134856469D01*
X182789686Y-134710246D01*
X183075039Y-134530946D01*
X183338523Y-134320825D01*
X183576825Y-134082523D01*
X183786946Y-133819039D01*
X183966246Y-133533686D01*
X184112469Y-133230051D01*
X184223776Y-132911954D01*
X184298767Y-132583394D01*
X184336500Y-132248504D01*
X184336500Y-131911496D01*
X184298767Y-131576606D01*
X184223776Y-131248046D01*
X184112469Y-130929949D01*
X183966246Y-130626314D01*
X183786946Y-130340961D01*
X183576825Y-130077477D01*
X183338523Y-129839175D01*
X183075039Y-129629054D01*
X182789686Y-129449754D01*
X182789683Y-129449752D01*
X182486054Y-129303532D01*
X182167965Y-129192227D01*
X182167953Y-129192223D01*
X181839397Y-129117233D01*
X181839381Y-129117231D01*
X181504508Y-129079500D01*
X181504504Y-129079500D01*
X181167496Y-129079500D01*
X181167491Y-129079500D01*
X180832618Y-129117231D01*
X180832602Y-129117233D01*
X180504046Y-129192223D01*
X180504034Y-129192227D01*
X180185945Y-129303532D01*
X179882316Y-129449752D01*
X179596962Y-129629053D01*
X179333477Y-129839174D01*
X179095174Y-130077477D01*
X178885053Y-130340962D01*
X178705752Y-130626316D01*
X178559532Y-130929945D01*
X178448227Y-131248034D01*
X178448223Y-131248046D01*
X178373233Y-131576602D01*
X178373231Y-131576618D01*
X178335500Y-131911491D01*
X178335500Y-132248508D01*
X178373231Y-132583381D01*
X178373233Y-132583397D01*
X178448223Y-132911953D01*
X178448227Y-132911965D01*
X178559532Y-133230054D01*
X178705752Y-133533683D01*
X178705754Y-133533686D01*
X178885054Y-133819039D01*
X179095175Y-134082523D01*
X179333477Y-134320825D01*
X179596961Y-134530946D01*
X179882314Y-134710246D01*
X180185949Y-134856469D01*
X180253700Y-134880176D01*
X180255469Y-134880795D01*
X180312245Y-134921516D01*
X180337992Y-134986469D01*
X180324536Y-135055031D01*
X180276148Y-135105433D01*
X180214459Y-135121836D01*
X97737853Y-135085420D01*
X97670822Y-135065706D01*
X97625091Y-135012882D01*
X97615178Y-134943719D01*
X97644231Y-134880176D01*
X97684107Y-134849700D01*
X97973680Y-134710249D01*
X97973680Y-134710248D01*
X97973686Y-134710246D01*
X98259039Y-134530946D01*
X98522523Y-134320825D01*
X98760825Y-134082523D01*
X98970946Y-133819039D01*
X99150246Y-133533686D01*
X99296469Y-133230051D01*
X99407776Y-132911954D01*
X99482767Y-132583394D01*
X99520500Y-132248504D01*
X99520500Y-131911496D01*
X99482767Y-131576606D01*
X99407776Y-131248046D01*
X99296469Y-130929949D01*
X99150246Y-130626314D01*
X98970946Y-130340961D01*
X98760825Y-130077477D01*
X98522523Y-129839175D01*
X98259039Y-129629054D01*
X97973686Y-129449754D01*
X97973683Y-129449752D01*
X97670054Y-129303532D01*
X97351965Y-129192227D01*
X97351953Y-129192223D01*
X97023397Y-129117233D01*
X97023381Y-129117231D01*
X96688508Y-129079500D01*
X96688504Y-129079500D01*
X96351496Y-129079500D01*
X96351491Y-129079500D01*
X96016618Y-129117231D01*
X96016602Y-129117233D01*
X95688046Y-129192223D01*
X95688034Y-129192227D01*
X95369945Y-129303532D01*
X95066316Y-129449752D01*
X94780962Y-129629053D01*
X94517477Y-129839174D01*
X94279174Y-130077477D01*
X94069053Y-130340962D01*
X93889752Y-130626316D01*
X93743532Y-130929945D01*
X93632227Y-131248034D01*
X93632223Y-131248046D01*
X93557233Y-131576602D01*
X93557231Y-131576618D01*
X93519500Y-131911491D01*
X93519500Y-132248508D01*
X93557231Y-132583381D01*
X93557233Y-132583397D01*
X93632223Y-132911953D01*
X93632227Y-132911965D01*
X93743532Y-133230054D01*
X93889752Y-133533683D01*
X93889754Y-133533686D01*
X94069054Y-133819039D01*
X94279175Y-134082523D01*
X94517477Y-134320825D01*
X94780961Y-134530946D01*
X95066314Y-134710246D01*
X95066316Y-134710247D01*
X95353658Y-134848624D01*
X95405517Y-134895446D01*
X95423830Y-134962873D01*
X95402782Y-135029497D01*
X95349056Y-135074166D01*
X95299801Y-135084344D01*
X88602229Y-135081386D01*
X88535198Y-135061672D01*
X88489467Y-135008848D01*
X88479554Y-134939685D01*
X88508607Y-134876142D01*
X88548481Y-134845666D01*
X88829686Y-134710246D01*
X89115039Y-134530946D01*
X89378523Y-134320825D01*
X89616825Y-134082523D01*
X89826946Y-133819039D01*
X90006246Y-133533686D01*
X90152469Y-133230051D01*
X90263776Y-132911954D01*
X90338767Y-132583394D01*
X90376500Y-132248504D01*
X90376500Y-131911496D01*
X90338767Y-131576606D01*
X90263776Y-131248046D01*
X90152469Y-130929949D01*
X90006246Y-130626314D01*
X89826946Y-130340961D01*
X89616825Y-130077477D01*
X89378523Y-129839175D01*
X89115039Y-129629054D01*
X88829686Y-129449754D01*
X88829683Y-129449752D01*
X88526054Y-129303532D01*
X88207965Y-129192227D01*
X88207953Y-129192223D01*
X87879397Y-129117233D01*
X87879381Y-129117231D01*
X87544508Y-129079500D01*
X87544504Y-129079500D01*
X87207496Y-129079500D01*
X87207491Y-129079500D01*
X86872618Y-129117231D01*
X86872602Y-129117233D01*
X86544046Y-129192223D01*
X86544034Y-129192227D01*
X86225945Y-129303532D01*
X85922316Y-129449752D01*
X85636962Y-129629053D01*
X85373477Y-129839174D01*
X85135174Y-130077477D01*
X84925053Y-130340962D01*
X84745752Y-130626316D01*
X84599532Y-130929945D01*
X84569541Y-131015655D01*
X84528819Y-131072431D01*
X84463867Y-131098178D01*
X84395305Y-131084722D01*
X84344902Y-131036334D01*
X84328500Y-130974700D01*
X84328500Y-126740000D01*
X145901849Y-126740000D01*
X146944722Y-126740000D01*
X146900667Y-126816306D01*
X146870000Y-126930756D01*
X146870000Y-127049244D01*
X146900667Y-127163694D01*
X146944722Y-127240000D01*
X145901849Y-127240000D01*
X145915653Y-127327155D01*
X145915653Y-127327158D01*
X145985683Y-127542688D01*
X146088575Y-127744623D01*
X146221776Y-127927960D01*
X146221780Y-127927965D01*
X146382034Y-128088219D01*
X146382039Y-128088223D01*
X146565376Y-128221424D01*
X146767311Y-128324316D01*
X146982838Y-128394344D01*
X147070000Y-128408149D01*
X147070000Y-127365277D01*
X147146306Y-127409333D01*
X147260756Y-127440000D01*
X147379244Y-127440000D01*
X147493694Y-127409333D01*
X147570000Y-127365277D01*
X147570000Y-128408148D01*
X147657161Y-128394344D01*
X147872688Y-128324316D01*
X148074623Y-128221424D01*
X148257960Y-128088223D01*
X148257965Y-128088219D01*
X148418219Y-127927965D01*
X148418223Y-127927960D01*
X148551424Y-127744623D01*
X148654316Y-127542688D01*
X148724346Y-127327158D01*
X148724346Y-127327155D01*
X148738151Y-127240000D01*
X147695278Y-127240000D01*
X147739333Y-127163694D01*
X147770000Y-127049244D01*
X147770000Y-126930756D01*
X147739333Y-126816306D01*
X147695278Y-126740000D01*
X148738151Y-126740000D01*
X148724346Y-126652844D01*
X148724346Y-126652841D01*
X148654316Y-126437311D01*
X148551424Y-126235376D01*
X148418223Y-126052039D01*
X148418219Y-126052034D01*
X148257965Y-125891780D01*
X148257960Y-125891776D01*
X148074623Y-125758575D01*
X147872688Y-125655683D01*
X147657156Y-125585653D01*
X147570000Y-125571848D01*
X147570000Y-126614722D01*
X147493694Y-126570667D01*
X147379244Y-126540000D01*
X147260756Y-126540000D01*
X147146306Y-126570667D01*
X147070000Y-126614722D01*
X147070000Y-125571848D01*
X146982844Y-125585653D01*
X146982841Y-125585653D01*
X146767311Y-125655683D01*
X146565376Y-125758575D01*
X146382039Y-125891776D01*
X146382034Y-125891780D01*
X146221780Y-126052034D01*
X146221776Y-126052039D01*
X146088575Y-126235376D01*
X145985683Y-126437311D01*
X145915653Y-126652841D01*
X145915653Y-126652844D01*
X145901849Y-126740000D01*
X84328500Y-126740000D01*
X84328500Y-117188155D01*
X105372000Y-117188155D01*
X105372000Y-117986000D01*
X106438988Y-117986000D01*
X106406075Y-118043007D01*
X106372000Y-118170174D01*
X106372000Y-118301826D01*
X106406075Y-118428993D01*
X106438988Y-118486000D01*
X105372000Y-118486000D01*
X105372000Y-119283844D01*
X105378401Y-119343372D01*
X105378403Y-119343379D01*
X105428645Y-119478086D01*
X105428649Y-119478093D01*
X105514809Y-119593187D01*
X105514812Y-119593190D01*
X105629906Y-119679350D01*
X105629913Y-119679354D01*
X105764620Y-119729596D01*
X105764627Y-119729598D01*
X105824155Y-119735999D01*
X105824172Y-119736000D01*
X106622000Y-119736000D01*
X106622000Y-118669012D01*
X106679007Y-118701925D01*
X106806174Y-118736000D01*
X106937826Y-118736000D01*
X107064993Y-118701925D01*
X107122000Y-118669012D01*
X107122000Y-119736000D01*
X107919828Y-119736000D01*
X107919844Y-119735999D01*
X107979372Y-119729598D01*
X107979379Y-119729596D01*
X108114086Y-119679354D01*
X108114093Y-119679350D01*
X108229187Y-119593190D01*
X108229190Y-119593187D01*
X108315350Y-119478093D01*
X108315354Y-119478086D01*
X108365596Y-119343379D01*
X108365598Y-119343372D01*
X108371999Y-119283844D01*
X108372000Y-119283827D01*
X108372000Y-118486000D01*
X107305012Y-118486000D01*
X107337925Y-118428993D01*
X107372000Y-118301826D01*
X107372000Y-118170174D01*
X107337925Y-118043007D01*
X107305012Y-117986000D01*
X108372000Y-117986000D01*
X108372000Y-117188164D01*
X108371997Y-117188135D01*
X115371500Y-117188135D01*
X115371500Y-119283870D01*
X115371501Y-119283876D01*
X115377908Y-119343483D01*
X115428202Y-119478328D01*
X115428206Y-119478335D01*
X115514452Y-119593544D01*
X115514455Y-119593547D01*
X115629664Y-119679793D01*
X115629671Y-119679797D01*
X115764517Y-119730091D01*
X115764516Y-119730091D01*
X115771444Y-119730835D01*
X115824127Y-119736500D01*
X117919872Y-119736499D01*
X117979483Y-119730091D01*
X118114331Y-119679796D01*
X118229546Y-119593546D01*
X118315796Y-119478331D01*
X118366091Y-119343483D01*
X118372500Y-119283873D01*
X118372499Y-117188128D01*
X118366091Y-117128517D01*
X118315884Y-116993906D01*
X118315797Y-116993671D01*
X118315793Y-116993664D01*
X118229547Y-116878455D01*
X118229544Y-116878452D01*
X118114335Y-116792206D01*
X118114328Y-116792202D01*
X117979482Y-116741908D01*
X117979483Y-116741908D01*
X117919883Y-116735501D01*
X117919881Y-116735500D01*
X117919873Y-116735500D01*
X117919864Y-116735500D01*
X115824129Y-116735500D01*
X115824123Y-116735501D01*
X115764516Y-116741908D01*
X115629671Y-116792202D01*
X115629664Y-116792206D01*
X115514455Y-116878452D01*
X115514452Y-116878455D01*
X115428206Y-116993664D01*
X115428202Y-116993671D01*
X115377908Y-117128517D01*
X115372866Y-117175423D01*
X115371501Y-117188123D01*
X115371500Y-117188135D01*
X108371997Y-117188135D01*
X108365598Y-117128627D01*
X108365596Y-117128620D01*
X108315354Y-116993913D01*
X108315350Y-116993906D01*
X108229190Y-116878812D01*
X108229187Y-116878809D01*
X108114093Y-116792649D01*
X108114086Y-116792645D01*
X107979379Y-116742403D01*
X107979372Y-116742401D01*
X107919844Y-116736000D01*
X107122000Y-116736000D01*
X107122000Y-117802988D01*
X107064993Y-117770075D01*
X106937826Y-117736000D01*
X106806174Y-117736000D01*
X106679007Y-117770075D01*
X106622000Y-117802988D01*
X106622000Y-116736000D01*
X105824155Y-116736000D01*
X105764627Y-116742401D01*
X105764620Y-116742403D01*
X105629913Y-116792645D01*
X105629906Y-116792649D01*
X105514812Y-116878809D01*
X105514809Y-116878812D01*
X105428649Y-116993906D01*
X105428645Y-116993913D01*
X105378403Y-117128620D01*
X105378401Y-117128627D01*
X105372000Y-117188155D01*
X84328500Y-117188155D01*
X84328500Y-114477385D01*
X139078000Y-114477385D01*
X139078000Y-116748120D01*
X139078001Y-116748126D01*
X139084408Y-116807733D01*
X139134702Y-116942578D01*
X139134706Y-116942585D01*
X139173131Y-116993913D01*
X139220954Y-117057796D01*
X139303367Y-117119490D01*
X139345237Y-117175423D01*
X139350221Y-117245115D01*
X139329374Y-117291640D01*
X139308249Y-117320716D01*
X139194807Y-117543356D01*
X139117588Y-117781009D01*
X139078500Y-118027805D01*
X139078500Y-118277694D01*
X139117588Y-118524490D01*
X139194807Y-118762143D01*
X139308248Y-118984781D01*
X139380697Y-119084497D01*
X139380697Y-119084498D01*
X140007555Y-118457640D01*
X140023513Y-118496166D01*
X140102856Y-118614911D01*
X140203839Y-118715894D01*
X140322584Y-118795237D01*
X140361108Y-118811194D01*
X139734250Y-119438051D01*
X139833968Y-119510501D01*
X140056606Y-119623942D01*
X140294259Y-119701161D01*
X140541056Y-119740250D01*
X140790944Y-119740250D01*
X141037740Y-119701161D01*
X141275393Y-119623942D01*
X141498030Y-119510502D01*
X141597747Y-119438051D01*
X141597748Y-119438051D01*
X141499152Y-119339455D01*
X141416343Y-119256646D01*
X145879700Y-119256646D01*
X145879700Y-119483354D01*
X145897096Y-119593187D01*
X145915165Y-119707272D01*
X145985219Y-119922880D01*
X145985220Y-119922883D01*
X146088147Y-120124885D01*
X146221394Y-120308286D01*
X146221398Y-120308291D01*
X146381708Y-120468601D01*
X146381713Y-120468605D01*
X146524419Y-120572286D01*
X146565118Y-120601855D01*
X146671837Y-120656231D01*
X146767116Y-120704779D01*
X146767119Y-120704780D01*
X146852739Y-120732599D01*
X146982729Y-120774835D01*
X147206646Y-120810300D01*
X147206647Y-120810300D01*
X147433353Y-120810300D01*
X147433354Y-120810300D01*
X147657271Y-120774835D01*
X147872883Y-120704779D01*
X148074882Y-120601855D01*
X148258293Y-120468600D01*
X148418600Y-120308293D01*
X148551855Y-120124882D01*
X148654779Y-119922883D01*
X148724835Y-119707271D01*
X148760300Y-119483354D01*
X148760300Y-119256646D01*
X148724835Y-119032729D01*
X148661591Y-118838083D01*
X148654780Y-118817119D01*
X148654779Y-118817116D01*
X148602342Y-118714204D01*
X148551855Y-118615118D01*
X148500900Y-118544984D01*
X148418605Y-118431713D01*
X148418601Y-118431708D01*
X148258291Y-118271398D01*
X148258286Y-118271394D01*
X148074885Y-118138147D01*
X148074884Y-118138146D01*
X148074882Y-118138145D01*
X148010166Y-118105170D01*
X147872883Y-118035220D01*
X147872880Y-118035219D01*
X147657272Y-117965165D01*
X147545312Y-117947432D01*
X147433354Y-117929700D01*
X147206646Y-117929700D01*
X147133564Y-117941275D01*
X146982727Y-117965165D01*
X146767119Y-118035219D01*
X146767116Y-118035220D01*
X146565114Y-118138147D01*
X146381713Y-118271394D01*
X146381708Y-118271398D01*
X146221398Y-118431708D01*
X146221394Y-118431713D01*
X146088147Y-118615114D01*
X145985220Y-118817116D01*
X145985219Y-118817119D01*
X145915165Y-119032727D01*
X145882988Y-119235886D01*
X145879700Y-119256646D01*
X141416343Y-119256646D01*
X140970891Y-118811194D01*
X141009416Y-118795237D01*
X141128161Y-118715894D01*
X141229144Y-118614911D01*
X141308487Y-118496166D01*
X141324444Y-118457641D01*
X141951301Y-119084498D01*
X141951301Y-119084497D01*
X142023752Y-118984780D01*
X142137192Y-118762143D01*
X142214411Y-118524490D01*
X142253500Y-118277694D01*
X142253500Y-118027805D01*
X142214411Y-117781009D01*
X142137192Y-117543356D01*
X142023751Y-117320718D01*
X142002626Y-117291642D01*
X141979146Y-117225836D01*
X141994971Y-117157782D01*
X142028629Y-117119493D01*
X142111046Y-117057796D01*
X142197296Y-116942581D01*
X142247591Y-116807733D01*
X142254000Y-116748123D01*
X142253999Y-114938646D01*
X145879700Y-114938646D01*
X145879700Y-115165353D01*
X145915165Y-115389272D01*
X145985219Y-115604880D01*
X145985220Y-115604883D01*
X146044188Y-115720612D01*
X146084320Y-115799376D01*
X146088147Y-115806885D01*
X146221394Y-115990286D01*
X146221398Y-115990291D01*
X146381708Y-116150601D01*
X146381713Y-116150605D01*
X146457981Y-116206016D01*
X146565118Y-116283855D01*
X146697166Y-116351137D01*
X146767116Y-116386779D01*
X146767119Y-116386780D01*
X146874923Y-116421807D01*
X146982729Y-116456835D01*
X147206646Y-116492300D01*
X147206647Y-116492300D01*
X147433353Y-116492300D01*
X147433354Y-116492300D01*
X147657271Y-116456835D01*
X147872883Y-116386779D01*
X148074882Y-116283855D01*
X148258293Y-116150600D01*
X148418600Y-115990293D01*
X148551855Y-115806882D01*
X148654779Y-115604883D01*
X148724835Y-115389271D01*
X148760300Y-115165354D01*
X148760300Y-114938646D01*
X148724835Y-114714729D01*
X148672644Y-114554100D01*
X148654780Y-114499119D01*
X148654779Y-114499116D01*
X148613328Y-114417766D01*
X148551855Y-114297118D01*
X148499524Y-114225090D01*
X148418605Y-114113713D01*
X148418601Y-114113708D01*
X148258291Y-113953398D01*
X148258286Y-113953394D01*
X148074884Y-113820146D01*
X147984826Y-113774259D01*
X147872883Y-113717220D01*
X147872880Y-113717219D01*
X147723385Y-113668646D01*
X152229700Y-113668646D01*
X152229700Y-113895353D01*
X152265165Y-114119272D01*
X152335219Y-114334880D01*
X152335220Y-114334883D01*
X152438147Y-114536885D01*
X152571394Y-114720286D01*
X152571398Y-114720291D01*
X152731708Y-114880601D01*
X152731713Y-114880605D01*
X152891684Y-114996829D01*
X152915118Y-115013855D01*
X153047166Y-115081137D01*
X153117116Y-115116779D01*
X153117119Y-115116780D01*
X153224923Y-115151807D01*
X153332729Y-115186835D01*
X153556646Y-115222300D01*
X153556647Y-115222300D01*
X153783353Y-115222300D01*
X153783354Y-115222300D01*
X154007271Y-115186835D01*
X154222883Y-115116779D01*
X154424882Y-115013855D01*
X154608293Y-114880600D01*
X154768600Y-114720293D01*
X154901855Y-114536882D01*
X154909317Y-114522235D01*
X154921767Y-114497804D01*
X154969741Y-114447009D01*
X155032251Y-114430100D01*
X157985500Y-114430100D01*
X158052539Y-114449785D01*
X158098294Y-114502589D01*
X158109500Y-114554100D01*
X158109500Y-115640870D01*
X158109501Y-115640876D01*
X158115908Y-115700483D01*
X158166202Y-115835328D01*
X158166206Y-115835335D01*
X158252452Y-115950544D01*
X158252453Y-115950544D01*
X158252454Y-115950546D01*
X158283349Y-115973674D01*
X158328513Y-116007484D01*
X158370383Y-116063418D01*
X158375367Y-116133109D01*
X158341881Y-116194432D01*
X158328513Y-116206016D01*
X158252452Y-116262955D01*
X158166206Y-116378164D01*
X158166202Y-116378171D01*
X158115908Y-116513017D01*
X158109501Y-116572616D01*
X158109501Y-116572623D01*
X158109500Y-116572635D01*
X158109500Y-118178370D01*
X158109501Y-118178376D01*
X158115908Y-118237983D01*
X158166202Y-118372828D01*
X158166206Y-118372835D01*
X158252452Y-118488044D01*
X158252453Y-118488044D01*
X158252454Y-118488046D01*
X158263301Y-118496166D01*
X158328513Y-118544984D01*
X158370383Y-118600918D01*
X158375367Y-118670609D01*
X158341881Y-118731932D01*
X158328513Y-118743516D01*
X158252452Y-118800455D01*
X158166206Y-118915664D01*
X158166202Y-118915671D01*
X158115908Y-119050517D01*
X158110700Y-119098966D01*
X158109501Y-119110123D01*
X158109500Y-119110135D01*
X158109500Y-120715870D01*
X158109501Y-120715876D01*
X158115908Y-120775483D01*
X158166202Y-120910328D01*
X158166206Y-120910335D01*
X158252452Y-121025544D01*
X158252455Y-121025547D01*
X158367664Y-121111793D01*
X158367671Y-121111797D01*
X158502517Y-121162091D01*
X158502516Y-121162091D01*
X158509444Y-121162835D01*
X158562127Y-121168500D01*
X161667872Y-121168499D01*
X161727483Y-121162091D01*
X161862331Y-121111796D01*
X161977546Y-121025546D01*
X162063796Y-120910331D01*
X162114091Y-120775483D01*
X162120500Y-120715873D01*
X162120499Y-119110128D01*
X162114091Y-119050517D01*
X162113262Y-119042804D01*
X162116485Y-119042457D01*
X162119413Y-118987529D01*
X162160263Y-118930845D01*
X162225274Y-118905245D01*
X162293805Y-118918856D01*
X162324043Y-118941067D01*
X162531181Y-119148205D01*
X162564666Y-119209528D01*
X162567500Y-119235886D01*
X162567500Y-122856552D01*
X162567499Y-122856578D01*
X162567499Y-122861688D01*
X162567499Y-123010312D01*
X162567499Y-123010314D01*
X162567498Y-123010314D01*
X162596493Y-123156073D01*
X162596496Y-123156083D01*
X162653366Y-123293381D01*
X162653372Y-123293392D01*
X162735942Y-123416968D01*
X162735943Y-123416969D01*
X166287600Y-126968624D01*
X166287621Y-126968647D01*
X166397028Y-127078054D01*
X166397035Y-127078060D01*
X166520608Y-127160628D01*
X166520609Y-127160628D01*
X166520610Y-127160629D01*
X166657920Y-127217505D01*
X166803683Y-127246499D01*
X166803687Y-127246500D01*
X166803688Y-127246500D01*
X182545554Y-127246500D01*
X182545574Y-127246501D01*
X182551688Y-127246501D01*
X182700314Y-127246501D01*
X182737009Y-127239200D01*
X182821894Y-127222315D01*
X182846080Y-127217505D01*
X182902955Y-127193946D01*
X182983389Y-127160630D01*
X183106966Y-127078059D01*
X184376963Y-125808060D01*
X184376966Y-125808059D01*
X184482059Y-125702966D01*
X184564629Y-125579390D01*
X184621505Y-125442080D01*
X184650500Y-125296312D01*
X184650500Y-115396446D01*
X184650501Y-115396425D01*
X184650501Y-115241685D01*
X184621506Y-115095926D01*
X184621505Y-115095925D01*
X184621505Y-115095921D01*
X184564630Y-114958611D01*
X184564628Y-114958609D01*
X184564628Y-114958607D01*
X184524885Y-114899129D01*
X184490835Y-114848169D01*
X184482059Y-114835034D01*
X184376966Y-114729941D01*
X184376963Y-114729939D01*
X184183906Y-114536882D01*
X183614969Y-113967943D01*
X183614968Y-113967942D01*
X183491392Y-113885372D01*
X183491391Y-113885371D01*
X183491389Y-113885370D01*
X183491386Y-113885368D01*
X183491381Y-113885366D01*
X183368432Y-113834440D01*
X183360004Y-113830949D01*
X183354080Y-113828495D01*
X183312102Y-113820145D01*
X183309086Y-113819545D01*
X183309082Y-113819544D01*
X183208313Y-113799499D01*
X183208312Y-113799499D01*
X183059688Y-113799499D01*
X183053574Y-113799499D01*
X183053554Y-113799500D01*
X182651314Y-113799500D01*
X182584275Y-113779815D01*
X182550996Y-113748386D01*
X182454600Y-113615707D01*
X182294293Y-113455400D01*
X182196456Y-113384317D01*
X182153791Y-113328989D01*
X182147812Y-113259376D01*
X182180417Y-113197580D01*
X182196456Y-113183682D01*
X182294293Y-113112600D01*
X182454600Y-112952293D01*
X182587855Y-112768882D01*
X182690779Y-112566883D01*
X182760835Y-112351271D01*
X182796300Y-112127354D01*
X182796300Y-111900646D01*
X182760835Y-111676729D01*
X182714146Y-111533034D01*
X182690780Y-111461119D01*
X182690779Y-111461116D01*
X182610300Y-111303169D01*
X182587855Y-111259118D01*
X182536153Y-111187956D01*
X182454605Y-111075713D01*
X182454601Y-111075708D01*
X182294291Y-110915398D01*
X182294286Y-110915394D01*
X182196031Y-110844008D01*
X182153365Y-110788679D01*
X182147386Y-110719065D01*
X182179991Y-110657270D01*
X182196032Y-110643371D01*
X182293963Y-110572221D01*
X182454219Y-110411965D01*
X182454223Y-110411960D01*
X182587424Y-110228623D01*
X182690316Y-110026688D01*
X182760346Y-109811158D01*
X182760346Y-109811155D01*
X182774151Y-109724000D01*
X181798251Y-109724000D01*
X181829381Y-109670081D01*
X181864000Y-109540880D01*
X181864000Y-109407120D01*
X181829381Y-109277919D01*
X181798251Y-109224000D01*
X182774151Y-109224000D01*
X182760346Y-109136844D01*
X182760346Y-109136841D01*
X182690316Y-108921311D01*
X182587424Y-108719376D01*
X182454223Y-108536039D01*
X182454219Y-108536034D01*
X182293961Y-108375776D01*
X182196031Y-108304627D01*
X182153365Y-108249298D01*
X182147386Y-108179684D01*
X182179991Y-108117889D01*
X182196032Y-108103990D01*
X182218066Y-108087982D01*
X182294293Y-108032600D01*
X182454600Y-107872293D01*
X182587855Y-107688882D01*
X182690779Y-107486883D01*
X182760835Y-107271271D01*
X182796300Y-107047354D01*
X182796300Y-106820646D01*
X182760835Y-106596729D01*
X182704267Y-106422628D01*
X182690780Y-106381119D01*
X182690779Y-106381116D01*
X182636889Y-106275353D01*
X182587855Y-106179118D01*
X182539785Y-106112955D01*
X182454605Y-105995713D01*
X182454601Y-105995708D01*
X182294291Y-105835398D01*
X182294286Y-105835394D01*
X182110885Y-105702147D01*
X182110884Y-105702146D01*
X182110882Y-105702145D01*
X182046166Y-105669170D01*
X181908883Y-105599220D01*
X181908880Y-105599219D01*
X181693272Y-105529165D01*
X181581312Y-105511432D01*
X181469354Y-105493700D01*
X181242646Y-105493700D01*
X181168007Y-105505521D01*
X181018727Y-105529165D01*
X180803119Y-105599219D01*
X180803116Y-105599220D01*
X180601114Y-105702147D01*
X180417713Y-105835394D01*
X180417708Y-105835398D01*
X180257398Y-105995708D01*
X180257394Y-105995713D01*
X180124147Y-106179114D01*
X180021220Y-106381116D01*
X180021219Y-106381119D01*
X179951165Y-106596727D01*
X179932452Y-106714880D01*
X179915700Y-106820646D01*
X179915700Y-107047354D01*
X179924084Y-107100286D01*
X179951165Y-107271272D01*
X180021219Y-107486880D01*
X180021220Y-107486883D01*
X180124147Y-107688885D01*
X180257394Y-107872286D01*
X180257398Y-107872291D01*
X180417712Y-108032605D01*
X180515968Y-108103991D01*
X180558634Y-108159320D01*
X180564613Y-108228934D01*
X180532008Y-108290729D01*
X180515968Y-108304627D01*
X180418039Y-108375776D01*
X180418034Y-108375780D01*
X180257780Y-108536034D01*
X180257776Y-108536039D01*
X180124575Y-108719376D01*
X180021683Y-108921311D01*
X179951653Y-109136841D01*
X179951653Y-109136844D01*
X179937849Y-109224000D01*
X180913749Y-109224000D01*
X180882619Y-109277919D01*
X180848000Y-109407120D01*
X180848000Y-109540880D01*
X180882619Y-109670081D01*
X180913749Y-109724000D01*
X179937849Y-109724000D01*
X179951653Y-109811155D01*
X179951653Y-109811158D01*
X180021683Y-110026688D01*
X180124575Y-110228623D01*
X180257776Y-110411960D01*
X180257780Y-110411965D01*
X180418032Y-110572217D01*
X180515968Y-110643371D01*
X180558634Y-110698701D01*
X180564613Y-110768314D01*
X180532008Y-110830110D01*
X180515968Y-110844008D01*
X180417713Y-110915394D01*
X180417708Y-110915398D01*
X180257400Y-111075706D01*
X180238512Y-111101704D01*
X180161003Y-111208385D01*
X180105675Y-111251051D01*
X180060686Y-111259500D01*
X180011683Y-111259500D01*
X179865927Y-111288493D01*
X179865919Y-111288495D01*
X179728608Y-111345371D01*
X179605035Y-111427939D01*
X179605034Y-111427940D01*
X179571859Y-111461116D01*
X179499941Y-111533034D01*
X179499939Y-111533036D01*
X178229943Y-112803030D01*
X178229942Y-112803031D01*
X178147372Y-112926607D01*
X178147366Y-112926618D01*
X178123705Y-112983744D01*
X178123705Y-112983745D01*
X178098871Y-113043699D01*
X178090495Y-113063919D01*
X178090493Y-113063925D01*
X178061499Y-113209685D01*
X178061499Y-113364425D01*
X178061500Y-113364446D01*
X178061500Y-118254113D01*
X178041815Y-118321152D01*
X178025181Y-118341794D01*
X177777794Y-118589181D01*
X177716471Y-118622666D01*
X177690113Y-118625500D01*
X177222370Y-118625500D01*
X177155331Y-118605815D01*
X177109576Y-118553011D01*
X177099632Y-118483853D01*
X177123104Y-118427188D01*
X177136728Y-118408989D01*
X177163796Y-118372831D01*
X177214091Y-118237983D01*
X177220500Y-118178373D01*
X177220499Y-116572628D01*
X177214091Y-116513017D01*
X177193136Y-116456835D01*
X177163797Y-116378171D01*
X177163793Y-116378164D01*
X177077547Y-116262956D01*
X177077548Y-116262956D01*
X177077546Y-116262954D01*
X177001485Y-116206015D01*
X176959616Y-116150083D01*
X176954632Y-116080391D01*
X176988117Y-116019068D01*
X177001480Y-116007488D01*
X177077546Y-115950546D01*
X177163796Y-115835331D01*
X177214091Y-115700483D01*
X177220500Y-115640873D01*
X177220499Y-114035128D01*
X177214091Y-113975517D01*
X177211265Y-113967941D01*
X177163797Y-113840671D01*
X177163793Y-113840664D01*
X177077547Y-113725456D01*
X177077548Y-113725456D01*
X177077546Y-113725454D01*
X177001485Y-113668515D01*
X176959616Y-113612583D01*
X176954632Y-113542891D01*
X176988117Y-113481568D01*
X177001480Y-113469988D01*
X177077546Y-113413046D01*
X177163796Y-113297831D01*
X177214091Y-113162983D01*
X177220500Y-113103373D01*
X177220499Y-111497628D01*
X177214091Y-111438017D01*
X177210332Y-111427939D01*
X177163797Y-111303171D01*
X177163793Y-111303164D01*
X177112123Y-111234143D01*
X177077546Y-111187954D01*
X177001485Y-111131015D01*
X176959616Y-111075083D01*
X176954632Y-111005391D01*
X176988117Y-110944068D01*
X177001480Y-110932488D01*
X177077546Y-110875546D01*
X177163796Y-110760331D01*
X177214091Y-110625483D01*
X177220500Y-110565873D01*
X177220499Y-108960128D01*
X177214091Y-108900517D01*
X177164210Y-108766780D01*
X177163797Y-108765671D01*
X177163793Y-108765664D01*
X177087578Y-108663855D01*
X177077546Y-108650454D01*
X177001485Y-108593515D01*
X176959616Y-108537583D01*
X176954632Y-108467891D01*
X176988117Y-108406568D01*
X177001480Y-108394988D01*
X177077546Y-108338046D01*
X177163796Y-108222831D01*
X177214091Y-108087983D01*
X177220500Y-108028373D01*
X177220499Y-106422628D01*
X177214091Y-106363017D01*
X177203042Y-106333394D01*
X177163797Y-106228171D01*
X177163793Y-106228164D01*
X177077547Y-106112956D01*
X177077548Y-106112956D01*
X177077546Y-106112954D01*
X177001485Y-106056015D01*
X176959616Y-106000083D01*
X176954632Y-105930391D01*
X176988117Y-105869068D01*
X177001480Y-105857488D01*
X177077546Y-105800546D01*
X177163796Y-105685331D01*
X177214091Y-105550483D01*
X177220500Y-105490873D01*
X177220499Y-103885128D01*
X177214091Y-103825517D01*
X177163796Y-103690669D01*
X177163795Y-103690668D01*
X177163793Y-103690664D01*
X177077547Y-103575456D01*
X177077548Y-103575456D01*
X177077546Y-103575454D01*
X177001485Y-103518515D01*
X176959616Y-103462583D01*
X176954632Y-103392891D01*
X176988117Y-103331568D01*
X177001480Y-103319988D01*
X177077546Y-103263046D01*
X177163796Y-103147831D01*
X177214091Y-103012983D01*
X177220500Y-102953373D01*
X177220499Y-101347628D01*
X177214305Y-101290005D01*
X177214091Y-101288016D01*
X177163797Y-101153171D01*
X177163793Y-101153164D01*
X177095938Y-101062523D01*
X177077546Y-101037954D01*
X177001485Y-100981015D01*
X176959616Y-100925083D01*
X176954632Y-100855391D01*
X176988117Y-100794068D01*
X177001480Y-100782488D01*
X177077546Y-100725546D01*
X177163796Y-100610331D01*
X177214091Y-100475483D01*
X177220500Y-100415873D01*
X177220499Y-98810128D01*
X177214091Y-98750517D01*
X177163796Y-98615669D01*
X177163795Y-98615668D01*
X177163793Y-98615664D01*
X177077547Y-98500455D01*
X177077544Y-98500452D01*
X176962335Y-98414206D01*
X176962328Y-98414202D01*
X176827482Y-98363908D01*
X176827483Y-98363908D01*
X176767883Y-98357501D01*
X176767881Y-98357500D01*
X176767873Y-98357500D01*
X176767864Y-98357500D01*
X173662129Y-98357500D01*
X173662123Y-98357501D01*
X173602516Y-98363908D01*
X173467671Y-98414202D01*
X173467664Y-98414206D01*
X173352455Y-98500452D01*
X173352452Y-98500455D01*
X173266206Y-98615664D01*
X173266202Y-98615671D01*
X173215908Y-98750517D01*
X173209501Y-98810116D01*
X173209501Y-98810123D01*
X173209500Y-98810135D01*
X173209500Y-100415870D01*
X173209501Y-100415876D01*
X173215908Y-100475483D01*
X173266202Y-100610328D01*
X173266206Y-100610335D01*
X173352452Y-100725544D01*
X173352453Y-100725544D01*
X173352454Y-100725546D01*
X173406950Y-100766342D01*
X173428513Y-100782484D01*
X173470383Y-100838418D01*
X173475367Y-100908109D01*
X173441881Y-100969432D01*
X173428513Y-100981016D01*
X173352452Y-101037955D01*
X173266206Y-101153164D01*
X173266202Y-101153171D01*
X173215908Y-101288017D01*
X173209501Y-101347616D01*
X173209501Y-101347623D01*
X173209500Y-101347635D01*
X173209500Y-102953370D01*
X173209501Y-102953376D01*
X173215908Y-103012983D01*
X173266202Y-103147828D01*
X173266206Y-103147835D01*
X173352452Y-103263044D01*
X173352453Y-103263044D01*
X173352454Y-103263046D01*
X173406950Y-103303842D01*
X173428513Y-103319984D01*
X173470383Y-103375918D01*
X173475367Y-103445609D01*
X173441881Y-103506932D01*
X173428513Y-103518516D01*
X173352452Y-103575455D01*
X173266206Y-103690664D01*
X173266202Y-103690671D01*
X173215908Y-103825517D01*
X173209501Y-103885116D01*
X173209501Y-103885123D01*
X173209500Y-103885135D01*
X173209500Y-105490870D01*
X173209501Y-105490876D01*
X173215908Y-105550483D01*
X173266202Y-105685328D01*
X173266206Y-105685335D01*
X173352452Y-105800544D01*
X173352453Y-105800544D01*
X173352454Y-105800546D01*
X173399005Y-105835394D01*
X173428513Y-105857484D01*
X173470383Y-105913418D01*
X173475367Y-105983109D01*
X173441881Y-106044432D01*
X173428513Y-106056016D01*
X173352452Y-106112955D01*
X173266206Y-106228164D01*
X173266202Y-106228171D01*
X173215908Y-106363017D01*
X173209501Y-106422616D01*
X173209501Y-106422623D01*
X173209500Y-106422635D01*
X173209500Y-108028370D01*
X173209501Y-108028376D01*
X173215908Y-108087983D01*
X173266202Y-108222828D01*
X173266206Y-108222835D01*
X173352452Y-108338044D01*
X173352453Y-108338044D01*
X173352454Y-108338046D01*
X173400883Y-108374300D01*
X173428513Y-108394984D01*
X173470383Y-108450918D01*
X173475367Y-108520609D01*
X173441881Y-108581932D01*
X173428513Y-108593516D01*
X173352452Y-108650455D01*
X173266206Y-108765664D01*
X173266202Y-108765671D01*
X173218775Y-108892833D01*
X173176904Y-108948767D01*
X173111440Y-108973184D01*
X173102593Y-108973500D01*
X169597683Y-108973500D01*
X169451927Y-109002493D01*
X169451919Y-109002495D01*
X169314608Y-109059371D01*
X169191035Y-109141939D01*
X169191034Y-109141940D01*
X169138488Y-109194487D01*
X169085941Y-109247034D01*
X165448194Y-112884781D01*
X165386871Y-112918266D01*
X165360513Y-112921100D01*
X162244500Y-112921100D01*
X162177461Y-112901415D01*
X162131706Y-112848611D01*
X162120500Y-112797100D01*
X162120499Y-111497629D01*
X162120498Y-111497623D01*
X162120497Y-111497616D01*
X162114091Y-111438017D01*
X162110332Y-111427939D01*
X162063797Y-111303171D01*
X162063793Y-111303164D01*
X162012123Y-111234143D01*
X161977546Y-111187954D01*
X161901485Y-111131015D01*
X161859616Y-111075083D01*
X161854632Y-111005391D01*
X161888117Y-110944068D01*
X161901480Y-110932488D01*
X161977546Y-110875546D01*
X162063796Y-110760331D01*
X162114091Y-110625483D01*
X162120500Y-110565873D01*
X162120499Y-108960128D01*
X162114091Y-108900517D01*
X162064210Y-108766780D01*
X162063797Y-108765671D01*
X162063793Y-108765664D01*
X161987578Y-108663855D01*
X161977546Y-108650454D01*
X161901485Y-108593515D01*
X161859616Y-108537583D01*
X161854632Y-108467891D01*
X161888117Y-108406568D01*
X161901480Y-108394988D01*
X161977546Y-108338046D01*
X162063796Y-108222831D01*
X162114091Y-108087983D01*
X162120500Y-108028373D01*
X162120499Y-106422628D01*
X162114091Y-106363017D01*
X162103042Y-106333394D01*
X162063797Y-106228171D01*
X162063793Y-106228164D01*
X161977547Y-106112956D01*
X161977548Y-106112956D01*
X161977546Y-106112954D01*
X161901485Y-106056015D01*
X161859616Y-106000083D01*
X161854632Y-105930391D01*
X161888117Y-105869068D01*
X161901480Y-105857488D01*
X161977546Y-105800546D01*
X162063796Y-105685331D01*
X162114091Y-105550483D01*
X162120500Y-105490873D01*
X162120499Y-103885128D01*
X162114091Y-103825517D01*
X162063796Y-103690669D01*
X162063795Y-103690668D01*
X162063793Y-103690664D01*
X161977547Y-103575455D01*
X161901069Y-103518203D01*
X161859199Y-103462269D01*
X161854215Y-103392577D01*
X161887701Y-103331255D01*
X161901071Y-103319670D01*
X161977189Y-103262688D01*
X161977190Y-103262687D01*
X162063350Y-103147593D01*
X162063354Y-103147586D01*
X162113596Y-103012879D01*
X162113598Y-103012872D01*
X162119999Y-102953344D01*
X162120000Y-102953327D01*
X162120000Y-102400500D01*
X160567031Y-102400500D01*
X160625925Y-102298493D01*
X160660000Y-102171326D01*
X160660000Y-102039674D01*
X160625925Y-101912507D01*
X160618993Y-101900500D01*
X162120000Y-101900500D01*
X162120000Y-101347672D01*
X162119999Y-101347655D01*
X162113598Y-101288127D01*
X162113596Y-101288120D01*
X162063354Y-101153413D01*
X162063350Y-101153406D01*
X161977190Y-101038313D01*
X161901070Y-100981329D01*
X161859199Y-100925395D01*
X161854215Y-100855703D01*
X161887700Y-100794380D01*
X161901061Y-100782802D01*
X161977546Y-100725546D01*
X162063796Y-100610331D01*
X162114091Y-100475483D01*
X162120500Y-100415873D01*
X162120499Y-98810128D01*
X162114091Y-98750517D01*
X162063796Y-98615669D01*
X162063795Y-98615668D01*
X162063793Y-98615664D01*
X161977547Y-98500455D01*
X161977544Y-98500452D01*
X161862335Y-98414206D01*
X161862328Y-98414202D01*
X161727482Y-98363908D01*
X161727483Y-98363908D01*
X161667883Y-98357501D01*
X161667881Y-98357500D01*
X161667873Y-98357500D01*
X161667864Y-98357500D01*
X158562129Y-98357500D01*
X158562123Y-98357501D01*
X158502516Y-98363908D01*
X158367671Y-98414202D01*
X158367664Y-98414206D01*
X158252455Y-98500452D01*
X158252452Y-98500455D01*
X158166206Y-98615664D01*
X158166202Y-98615671D01*
X158115908Y-98750517D01*
X158109501Y-98810116D01*
X158109501Y-98810123D01*
X158109500Y-98810135D01*
X158109500Y-100415870D01*
X158109501Y-100415876D01*
X158115908Y-100475483D01*
X158166202Y-100610328D01*
X158166206Y-100610335D01*
X158252452Y-100725544D01*
X158252455Y-100725547D01*
X158328929Y-100782796D01*
X158370800Y-100838730D01*
X158375784Y-100908421D01*
X158342298Y-100969744D01*
X158328930Y-100981328D01*
X158252809Y-101038312D01*
X158166649Y-101153406D01*
X158166645Y-101153413D01*
X158116403Y-101288120D01*
X158116401Y-101288127D01*
X158110000Y-101347655D01*
X158110000Y-101900500D01*
X159701007Y-101900500D01*
X159694075Y-101912507D01*
X159660000Y-102039674D01*
X159660000Y-102171326D01*
X159694075Y-102298493D01*
X159752969Y-102400500D01*
X158110000Y-102400500D01*
X158110000Y-102953344D01*
X158116401Y-103012872D01*
X158116403Y-103012879D01*
X158166645Y-103147586D01*
X158166649Y-103147593D01*
X158252808Y-103262686D01*
X158328929Y-103319670D01*
X158370800Y-103375604D01*
X158375784Y-103445296D01*
X158342299Y-103506619D01*
X158328930Y-103518203D01*
X158252452Y-103575455D01*
X158166206Y-103690664D01*
X158166202Y-103690671D01*
X158115908Y-103825517D01*
X158109501Y-103885116D01*
X158109501Y-103885123D01*
X158109500Y-103885135D01*
X158109500Y-105490870D01*
X158109501Y-105490876D01*
X158115908Y-105550483D01*
X158166202Y-105685328D01*
X158166206Y-105685335D01*
X158252452Y-105800544D01*
X158252453Y-105800544D01*
X158252454Y-105800546D01*
X158299005Y-105835394D01*
X158328513Y-105857484D01*
X158370383Y-105913418D01*
X158375367Y-105983109D01*
X158341881Y-106044432D01*
X158328513Y-106056016D01*
X158252452Y-106112955D01*
X158166206Y-106228164D01*
X158166202Y-106228171D01*
X158115908Y-106363017D01*
X158109501Y-106422616D01*
X158109501Y-106422623D01*
X158109500Y-106422635D01*
X158109500Y-108028370D01*
X158109501Y-108028376D01*
X158115908Y-108087983D01*
X158166202Y-108222828D01*
X158166206Y-108222835D01*
X158252452Y-108338044D01*
X158252453Y-108338044D01*
X158252454Y-108338046D01*
X158300883Y-108374300D01*
X158328513Y-108394984D01*
X158370383Y-108450918D01*
X158375367Y-108520609D01*
X158341881Y-108581932D01*
X158328513Y-108593516D01*
X158252452Y-108650455D01*
X158166206Y-108765664D01*
X158166202Y-108765671D01*
X158115908Y-108900517D01*
X158113673Y-108921311D01*
X158109501Y-108960123D01*
X158109500Y-108960135D01*
X158109500Y-110565870D01*
X158109501Y-110565876D01*
X158115908Y-110625483D01*
X158166202Y-110760328D01*
X158166206Y-110760335D01*
X158252452Y-110875544D01*
X158252453Y-110875544D01*
X158252454Y-110875546D01*
X158305684Y-110915394D01*
X158328513Y-110932484D01*
X158370383Y-110988418D01*
X158375367Y-111058109D01*
X158341881Y-111119432D01*
X158328513Y-111131016D01*
X158252452Y-111187955D01*
X158166206Y-111303164D01*
X158166202Y-111303171D01*
X158115908Y-111438017D01*
X158109501Y-111497616D01*
X158109501Y-111497623D01*
X158109500Y-111497635D01*
X158109501Y-112797100D01*
X158089816Y-112864139D01*
X158037013Y-112909894D01*
X157985501Y-112921100D01*
X154888011Y-112921100D01*
X154820972Y-112901415D01*
X154787693Y-112869985D01*
X154768605Y-112843713D01*
X154768601Y-112843708D01*
X154608291Y-112683398D01*
X154608286Y-112683394D01*
X154424885Y-112550147D01*
X154424884Y-112550146D01*
X154424882Y-112550145D01*
X154360166Y-112517170D01*
X154222883Y-112447220D01*
X154222880Y-112447219D01*
X154007272Y-112377165D01*
X153843789Y-112351272D01*
X153783354Y-112341700D01*
X153556646Y-112341700D01*
X153496217Y-112351271D01*
X153332727Y-112377165D01*
X153117119Y-112447219D01*
X153117116Y-112447220D01*
X152915114Y-112550147D01*
X152731713Y-112683394D01*
X152731708Y-112683398D01*
X152571398Y-112843708D01*
X152571394Y-112843713D01*
X152438147Y-113027114D01*
X152335220Y-113229116D01*
X152335219Y-113229119D01*
X152265165Y-113444727D01*
X152229700Y-113668646D01*
X147723385Y-113668646D01*
X147657272Y-113647165D01*
X147545312Y-113629432D01*
X147433354Y-113611700D01*
X147206646Y-113611700D01*
X147132007Y-113623521D01*
X146982727Y-113647165D01*
X146767119Y-113717219D01*
X146767116Y-113717220D01*
X146565116Y-113820146D01*
X146381713Y-113953394D01*
X146381708Y-113953398D01*
X146221398Y-114113708D01*
X146221394Y-114113713D01*
X146088147Y-114297114D01*
X145985220Y-114499116D01*
X145985219Y-114499119D01*
X145915165Y-114714727D01*
X145879700Y-114938646D01*
X142253999Y-114938646D01*
X142253999Y-114477378D01*
X142247591Y-114417767D01*
X142243817Y-114407649D01*
X142197297Y-114282921D01*
X142197293Y-114282914D01*
X142111047Y-114167705D01*
X142111044Y-114167702D01*
X141995835Y-114081456D01*
X141995828Y-114081452D01*
X141860982Y-114031158D01*
X141860983Y-114031158D01*
X141801383Y-114024751D01*
X141801381Y-114024750D01*
X141801373Y-114024750D01*
X141801364Y-114024750D01*
X139530629Y-114024750D01*
X139530623Y-114024751D01*
X139471016Y-114031158D01*
X139336171Y-114081452D01*
X139336164Y-114081456D01*
X139220955Y-114167702D01*
X139220952Y-114167705D01*
X139134706Y-114282914D01*
X139134702Y-114282921D01*
X139084408Y-114417767D01*
X139078154Y-114475941D01*
X139078001Y-114477373D01*
X139078000Y-114477385D01*
X84328500Y-114477385D01*
X84328500Y-107318646D01*
X145879700Y-107318646D01*
X145879700Y-107545353D01*
X145915165Y-107769272D01*
X145985219Y-107984880D01*
X145985220Y-107984883D01*
X146037753Y-108087982D01*
X146084477Y-108179684D01*
X146088147Y-108186885D01*
X146221394Y-108370286D01*
X146221398Y-108370291D01*
X146381708Y-108530601D01*
X146381713Y-108530605D01*
X146468304Y-108593516D01*
X146565118Y-108663855D01*
X146674084Y-108719376D01*
X146767116Y-108766779D01*
X146767119Y-108766780D01*
X146874923Y-108801807D01*
X146982729Y-108836835D01*
X147206646Y-108872300D01*
X147206647Y-108872300D01*
X147433353Y-108872300D01*
X147433354Y-108872300D01*
X147657271Y-108836835D01*
X147872883Y-108766779D01*
X148074882Y-108663855D01*
X148258293Y-108530600D01*
X148418600Y-108370293D01*
X148551855Y-108186882D01*
X148654779Y-107984883D01*
X148724835Y-107769271D01*
X148760300Y-107545354D01*
X148760300Y-107318646D01*
X148724835Y-107094729D01*
X148689807Y-106986923D01*
X148654780Y-106879119D01*
X148654779Y-106879116D01*
X148571097Y-106714883D01*
X148551855Y-106677118D01*
X148534829Y-106653684D01*
X148418605Y-106493713D01*
X148418601Y-106493708D01*
X148258291Y-106333398D01*
X148258286Y-106333394D01*
X148074885Y-106200147D01*
X148074884Y-106200146D01*
X148074882Y-106200145D01*
X147984826Y-106154259D01*
X147872883Y-106097220D01*
X147872880Y-106097219D01*
X147723385Y-106048646D01*
X152229700Y-106048646D01*
X152229700Y-106275354D01*
X152246451Y-106381116D01*
X152265165Y-106499272D01*
X152335219Y-106714880D01*
X152335220Y-106714883D01*
X152438147Y-106916885D01*
X152571394Y-107100286D01*
X152571398Y-107100291D01*
X152731708Y-107260601D01*
X152731713Y-107260605D01*
X152811601Y-107318646D01*
X152915118Y-107393855D01*
X153047166Y-107461137D01*
X153117116Y-107496779D01*
X153117119Y-107496780D01*
X153224923Y-107531807D01*
X153332729Y-107566835D01*
X153556646Y-107602300D01*
X153556647Y-107602300D01*
X153783353Y-107602300D01*
X153783354Y-107602300D01*
X154007271Y-107566835D01*
X154222883Y-107496779D01*
X154424882Y-107393855D01*
X154608293Y-107260600D01*
X154768600Y-107100293D01*
X154901855Y-106916882D01*
X155004779Y-106714883D01*
X155074835Y-106499271D01*
X155110300Y-106275354D01*
X155110300Y-106048646D01*
X155074835Y-105824729D01*
X155004779Y-105609117D01*
X155004779Y-105609116D01*
X154945971Y-105493700D01*
X154901855Y-105407118D01*
X154884829Y-105383684D01*
X154768605Y-105223713D01*
X154768601Y-105223708D01*
X154608291Y-105063398D01*
X154608286Y-105063394D01*
X154424885Y-104930147D01*
X154424884Y-104930146D01*
X154424882Y-104930145D01*
X154360166Y-104897170D01*
X154222883Y-104827220D01*
X154222880Y-104827219D01*
X154007272Y-104757165D01*
X153895312Y-104739432D01*
X153783354Y-104721700D01*
X153556646Y-104721700D01*
X153482007Y-104733521D01*
X153332727Y-104757165D01*
X153117119Y-104827219D01*
X153117116Y-104827220D01*
X152915114Y-104930147D01*
X152731713Y-105063394D01*
X152731708Y-105063398D01*
X152571398Y-105223708D01*
X152571394Y-105223713D01*
X152438147Y-105407114D01*
X152335220Y-105609116D01*
X152335219Y-105609119D01*
X152265165Y-105824727D01*
X152238084Y-105995713D01*
X152229700Y-106048646D01*
X147723385Y-106048646D01*
X147657272Y-106027165D01*
X147486282Y-106000083D01*
X147433354Y-105991700D01*
X147206646Y-105991700D01*
X147153718Y-106000083D01*
X146982727Y-106027165D01*
X146767119Y-106097219D01*
X146767116Y-106097220D01*
X146565114Y-106200147D01*
X146381713Y-106333394D01*
X146381708Y-106333398D01*
X146221398Y-106493708D01*
X146221394Y-106493713D01*
X146088147Y-106677114D01*
X145985220Y-106879116D01*
X145985219Y-106879119D01*
X145915165Y-107094727D01*
X145879700Y-107318646D01*
X84328500Y-107318646D01*
X84328500Y-100165299D01*
X84348185Y-100098260D01*
X84400989Y-100052505D01*
X84470147Y-100042561D01*
X84533703Y-100071586D01*
X84569539Y-100124340D01*
X84599531Y-100210051D01*
X84599535Y-100210059D01*
X84599536Y-100210062D01*
X84745752Y-100513683D01*
X84745754Y-100513686D01*
X84925054Y-100799039D01*
X85070176Y-100981017D01*
X85115583Y-101037956D01*
X85135175Y-101062523D01*
X85373477Y-101300825D01*
X85636961Y-101510946D01*
X85922314Y-101690246D01*
X86225949Y-101836469D01*
X86408939Y-101900500D01*
X86544034Y-101947772D01*
X86544046Y-101947776D01*
X86872606Y-102022767D01*
X87207492Y-102060499D01*
X87207493Y-102060500D01*
X87207496Y-102060500D01*
X87544507Y-102060500D01*
X87544507Y-102060499D01*
X87879394Y-102022767D01*
X88207954Y-101947776D01*
X88526051Y-101836469D01*
X88829686Y-101690246D01*
X89115039Y-101510946D01*
X89378523Y-101300825D01*
X89616825Y-101062523D01*
X89826946Y-100799039D01*
X90006246Y-100513686D01*
X90152469Y-100210051D01*
X90263776Y-99891954D01*
X90338767Y-99563394D01*
X90376500Y-99228504D01*
X90376500Y-98891496D01*
X90338767Y-98556606D01*
X90263776Y-98228046D01*
X90152469Y-97909949D01*
X90006246Y-97606314D01*
X89826946Y-97320961D01*
X89616825Y-97057477D01*
X89378523Y-96819175D01*
X89115039Y-96609054D01*
X88829686Y-96429754D01*
X88829683Y-96429752D01*
X88526054Y-96283532D01*
X88440345Y-96253541D01*
X88383569Y-96212819D01*
X88357822Y-96147867D01*
X88371278Y-96079305D01*
X88419666Y-96028902D01*
X88481300Y-96012500D01*
X95414700Y-96012500D01*
X95481739Y-96032185D01*
G37*
%TD.AperFunction*%
%TD*%
M02*
