%TF.GenerationSoftware,KiCad,Pcbnew,9.0.6*%
%TF.CreationDate,2026-01-09T06:41:58-06:00*%
%TF.ProjectId,weather_station1,77656174-6865-4725-9f73-746174696f6e,V1.10*%
%TF.SameCoordinates,Original*%
%TF.FileFunction,Drillmap*%
%TF.FilePolarity,Positive*%
%FSLAX45Y45*%
G04 Gerber Fmt 4.5, Leading zero omitted, Abs format (unit mm)*
G04 Created by KiCad (PCBNEW 9.0.6) date 2026-01-09 06:41:58*
%MOMM*%
%LPD*%
G01*
G04 APERTURE LIST*
%ADD10C,0.050000*%
%ADD11C,0.200000*%
%ADD12C,0.100000*%
%ADD13C,0.101600*%
%ADD14C,0.145000*%
G04 APERTURE END LIST*
D10*
X19304000Y-9601200D02*
X19304000Y-13512800D01*
X8432800Y-9601200D02*
X8432800Y-13508000D01*
X19304000Y-13512800D02*
X8432800Y-13508000D01*
X8432800Y-9601200D02*
X19304000Y-9601200D01*
D11*
D12*
X14137700Y-10044300D02*
X14216700Y-10123300D01*
X14216700Y-10044300D02*
X14137700Y-10123300D01*
X14387700Y-10044300D02*
X14466700Y-10123300D01*
X14466700Y-10044300D02*
X14387700Y-10123300D01*
X14637700Y-10044300D02*
X14716700Y-10123300D01*
X14716700Y-10044300D02*
X14637700Y-10123300D01*
X14777000Y-10743200D02*
G75*
G02*
X14687000Y-10743200I-45000J0D01*
G01*
X14687000Y-10743200D02*
G75*
G02*
X14777000Y-10743200I45000J0D01*
G01*
X14777000Y-11505200D02*
G75*
G02*
X14687000Y-11505200I-45000J0D01*
G01*
X14687000Y-11505200D02*
G75*
G02*
X14777000Y-11505200I45000J0D01*
G01*
X14777000Y-11937000D02*
G75*
G02*
X14687000Y-11937000I-45000J0D01*
G01*
X14687000Y-11937000D02*
G75*
G02*
X14777000Y-11937000I45000J0D01*
G01*
X14777000Y-12699000D02*
G75*
G02*
X14687000Y-12699000I-45000J0D01*
G01*
X14687000Y-12699000D02*
G75*
G02*
X14777000Y-12699000I45000J0D01*
G01*
X15412000Y-10616200D02*
G75*
G02*
X15322000Y-10616200I-45000J0D01*
G01*
X15322000Y-10616200D02*
G75*
G02*
X15412000Y-10616200I45000J0D01*
G01*
X15412000Y-11378200D02*
G75*
G02*
X15322000Y-11378200I-45000J0D01*
G01*
X15322000Y-11378200D02*
G75*
G02*
X15412000Y-11378200I45000J0D01*
G01*
X10387200Y-9703600D02*
X10387200Y-9803600D01*
X10337200Y-9753600D02*
X10437200Y-9753600D01*
X10687200Y-11773600D02*
X10687200Y-11873600D01*
X10637200Y-11823600D02*
X10737200Y-11823600D01*
X11687200Y-11773600D02*
X11687200Y-11873600D01*
X11637200Y-11823600D02*
X11737200Y-11823600D01*
X11987200Y-9703600D02*
X11987200Y-9803600D01*
X11937200Y-9753600D02*
X12037200Y-9753600D01*
X12587200Y-9703600D02*
X12587200Y-9803600D01*
X12537200Y-9753600D02*
X12637200Y-9753600D01*
X13467200Y-9703600D02*
X13467200Y-9803600D01*
X13417200Y-9753600D02*
X13517200Y-9753600D01*
X16016000Y-9906800D02*
X16016000Y-10006800D01*
X15966000Y-9956800D02*
X16066000Y-9956800D01*
X16016000Y-10160550D02*
X16016000Y-10260550D01*
X15966000Y-10210550D02*
X16066000Y-10210550D01*
X16016000Y-10414300D02*
X16016000Y-10514300D01*
X15966000Y-10464300D02*
X16066000Y-10464300D01*
X16016000Y-10668050D02*
X16016000Y-10768050D01*
X15966000Y-10718050D02*
X16066000Y-10718050D01*
X16016000Y-10921800D02*
X16016000Y-11021800D01*
X15966000Y-10971800D02*
X16066000Y-10971800D01*
X16016000Y-11175550D02*
X16016000Y-11275550D01*
X15966000Y-11225550D02*
X16066000Y-11225550D01*
X16016000Y-11429300D02*
X16016000Y-11529300D01*
X15966000Y-11479300D02*
X16066000Y-11479300D01*
X16016000Y-11683050D02*
X16016000Y-11783050D01*
X15966000Y-11733050D02*
X16066000Y-11733050D01*
X16016000Y-11936800D02*
X16016000Y-12036800D01*
X15966000Y-11986800D02*
X16066000Y-11986800D01*
X17526000Y-9906800D02*
X17526000Y-10006800D01*
X17476000Y-9956800D02*
X17576000Y-9956800D01*
X17526000Y-10160550D02*
X17526000Y-10260550D01*
X17476000Y-10210550D02*
X17576000Y-10210550D01*
X17526000Y-10414300D02*
X17526000Y-10514300D01*
X17476000Y-10464300D02*
X17576000Y-10464300D01*
X17526000Y-10668050D02*
X17526000Y-10768050D01*
X17476000Y-10718050D02*
X17576000Y-10718050D01*
X17526000Y-10921800D02*
X17526000Y-11021800D01*
X17476000Y-10971800D02*
X17576000Y-10971800D01*
X17526000Y-11175550D02*
X17526000Y-11275550D01*
X17476000Y-11225550D02*
X17576000Y-11225550D01*
X17526000Y-11429300D02*
X17526000Y-11529300D01*
X17476000Y-11479300D02*
X17576000Y-11479300D01*
X17526000Y-11683050D02*
X17526000Y-11783050D01*
X17476000Y-11733050D02*
X17576000Y-11733050D01*
X17526000Y-11936800D02*
X17526000Y-12036800D01*
X17476000Y-11986800D02*
X17576000Y-11986800D01*
D13*
X15275921Y-9967321D02*
X15275921Y-9895479D01*
X15204079Y-9895479D01*
X15204079Y-9967321D01*
X15275921Y-9967321D01*
X15529921Y-9967321D02*
X15529921Y-9895479D01*
X15458079Y-9895479D01*
X15458079Y-9967321D01*
X15529921Y-9967321D01*
X18171521Y-10729321D02*
X18171521Y-10657479D01*
X18099679Y-10657479D01*
X18099679Y-10729321D01*
X18171521Y-10729321D01*
X18171521Y-10983321D02*
X18171521Y-10911479D01*
X18099679Y-10911479D01*
X18099679Y-10983321D01*
X18171521Y-10983321D01*
X18171521Y-11237321D02*
X18171521Y-11165479D01*
X18099679Y-11165479D01*
X18099679Y-11237321D01*
X18171521Y-11237321D01*
X18171521Y-11491321D02*
X18171521Y-11419479D01*
X18099679Y-11419479D01*
X18099679Y-11491321D01*
X18171521Y-11491321D01*
X18171521Y-11745321D02*
X18171521Y-11673479D01*
X18099679Y-11673479D01*
X18099679Y-11745321D01*
X18171521Y-11745321D01*
X18171521Y-11999321D02*
X18171521Y-11927479D01*
X18099679Y-11927479D01*
X18099679Y-11999321D01*
X18171521Y-11999321D01*
X18171521Y-12253321D02*
X18171521Y-12181479D01*
X18099679Y-12181479D01*
X18099679Y-12253321D01*
X18171521Y-12253321D01*
X18171521Y-12507321D02*
X18171521Y-12435479D01*
X18099679Y-12435479D01*
X18099679Y-12507321D01*
X18171521Y-12507321D01*
D14*
X14066600Y-11633775D02*
X14139100Y-11561275D01*
X14066600Y-11488775D01*
X13994100Y-11561275D01*
X14066600Y-11633775D01*
X14066600Y-11887775D02*
X14139100Y-11815275D01*
X14066600Y-11742775D01*
X13994100Y-11815275D01*
X14066600Y-11887775D01*
D11*
X8691077Y-13826784D02*
X8691077Y-13626784D01*
X8691077Y-13626784D02*
X8738696Y-13626784D01*
X8738696Y-13626784D02*
X8767267Y-13636308D01*
X8767267Y-13636308D02*
X8786315Y-13655355D01*
X8786315Y-13655355D02*
X8795839Y-13674403D01*
X8795839Y-13674403D02*
X8805363Y-13712498D01*
X8805363Y-13712498D02*
X8805363Y-13741069D01*
X8805363Y-13741069D02*
X8795839Y-13779165D01*
X8795839Y-13779165D02*
X8786315Y-13798212D01*
X8786315Y-13798212D02*
X8767267Y-13817260D01*
X8767267Y-13817260D02*
X8738696Y-13826784D01*
X8738696Y-13826784D02*
X8691077Y-13826784D01*
X8891077Y-13826784D02*
X8891077Y-13693450D01*
X8891077Y-13731546D02*
X8900601Y-13712498D01*
X8900601Y-13712498D02*
X8910124Y-13702974D01*
X8910124Y-13702974D02*
X8929172Y-13693450D01*
X8929172Y-13693450D02*
X8948220Y-13693450D01*
X9014886Y-13826784D02*
X9014886Y-13693450D01*
X9014886Y-13626784D02*
X9005363Y-13636308D01*
X9005363Y-13636308D02*
X9014886Y-13645831D01*
X9014886Y-13645831D02*
X9024410Y-13636308D01*
X9024410Y-13636308D02*
X9014886Y-13626784D01*
X9014886Y-13626784D02*
X9014886Y-13645831D01*
X9138696Y-13826784D02*
X9119648Y-13817260D01*
X9119648Y-13817260D02*
X9110124Y-13798212D01*
X9110124Y-13798212D02*
X9110124Y-13626784D01*
X9243458Y-13826784D02*
X9224410Y-13817260D01*
X9224410Y-13817260D02*
X9214886Y-13798212D01*
X9214886Y-13798212D02*
X9214886Y-13626784D01*
X9472029Y-13826784D02*
X9472029Y-13626784D01*
X9472029Y-13626784D02*
X9538696Y-13769641D01*
X9538696Y-13769641D02*
X9605363Y-13626784D01*
X9605363Y-13626784D02*
X9605363Y-13826784D01*
X9786315Y-13826784D02*
X9786315Y-13722022D01*
X9786315Y-13722022D02*
X9776791Y-13702974D01*
X9776791Y-13702974D02*
X9757744Y-13693450D01*
X9757744Y-13693450D02*
X9719648Y-13693450D01*
X9719648Y-13693450D02*
X9700601Y-13702974D01*
X9786315Y-13817260D02*
X9767267Y-13826784D01*
X9767267Y-13826784D02*
X9719648Y-13826784D01*
X9719648Y-13826784D02*
X9700601Y-13817260D01*
X9700601Y-13817260D02*
X9691077Y-13798212D01*
X9691077Y-13798212D02*
X9691077Y-13779165D01*
X9691077Y-13779165D02*
X9700601Y-13760117D01*
X9700601Y-13760117D02*
X9719648Y-13750593D01*
X9719648Y-13750593D02*
X9767267Y-13750593D01*
X9767267Y-13750593D02*
X9786315Y-13741069D01*
X9881553Y-13693450D02*
X9881553Y-13893450D01*
X9881553Y-13702974D02*
X9900601Y-13693450D01*
X9900601Y-13693450D02*
X9938696Y-13693450D01*
X9938696Y-13693450D02*
X9957744Y-13702974D01*
X9957744Y-13702974D02*
X9967267Y-13712498D01*
X9967267Y-13712498D02*
X9976791Y-13731546D01*
X9976791Y-13731546D02*
X9976791Y-13788688D01*
X9976791Y-13788688D02*
X9967267Y-13807736D01*
X9967267Y-13807736D02*
X9957744Y-13817260D01*
X9957744Y-13817260D02*
X9938696Y-13826784D01*
X9938696Y-13826784D02*
X9900601Y-13826784D01*
X9900601Y-13826784D02*
X9881553Y-13817260D01*
X10062505Y-13807736D02*
X10072029Y-13817260D01*
X10072029Y-13817260D02*
X10062505Y-13826784D01*
X10062505Y-13826784D02*
X10052982Y-13817260D01*
X10052982Y-13817260D02*
X10062505Y-13807736D01*
X10062505Y-13807736D02*
X10062505Y-13826784D01*
X10062505Y-13702974D02*
X10072029Y-13712498D01*
X10072029Y-13712498D02*
X10062505Y-13722022D01*
X10062505Y-13722022D02*
X10052982Y-13712498D01*
X10052982Y-13712498D02*
X10062505Y-13702974D01*
X10062505Y-13702974D02*
X10062505Y-13722022D01*
D12*
X8351300Y-14115800D02*
X8430300Y-14194800D01*
X8430300Y-14115800D02*
X8351300Y-14194800D01*
D11*
X8729172Y-14046784D02*
X8748220Y-14046784D01*
X8748220Y-14046784D02*
X8767267Y-14056308D01*
X8767267Y-14056308D02*
X8776791Y-14065831D01*
X8776791Y-14065831D02*
X8786315Y-14084879D01*
X8786315Y-14084879D02*
X8795839Y-14122974D01*
X8795839Y-14122974D02*
X8795839Y-14170593D01*
X8795839Y-14170593D02*
X8786315Y-14208688D01*
X8786315Y-14208688D02*
X8776791Y-14227736D01*
X8776791Y-14227736D02*
X8767267Y-14237260D01*
X8767267Y-14237260D02*
X8748220Y-14246784D01*
X8748220Y-14246784D02*
X8729172Y-14246784D01*
X8729172Y-14246784D02*
X8710124Y-14237260D01*
X8710124Y-14237260D02*
X8700601Y-14227736D01*
X8700601Y-14227736D02*
X8691077Y-14208688D01*
X8691077Y-14208688D02*
X8681553Y-14170593D01*
X8681553Y-14170593D02*
X8681553Y-14122974D01*
X8681553Y-14122974D02*
X8691077Y-14084879D01*
X8691077Y-14084879D02*
X8700601Y-14065831D01*
X8700601Y-14065831D02*
X8710124Y-14056308D01*
X8710124Y-14056308D02*
X8729172Y-14046784D01*
X8881553Y-14227736D02*
X8891077Y-14237260D01*
X8891077Y-14237260D02*
X8881553Y-14246784D01*
X8881553Y-14246784D02*
X8872029Y-14237260D01*
X8872029Y-14237260D02*
X8881553Y-14227736D01*
X8881553Y-14227736D02*
X8881553Y-14246784D01*
X8957744Y-14046784D02*
X9091077Y-14046784D01*
X9091077Y-14046784D02*
X9005363Y-14246784D01*
X9176791Y-14246784D02*
X9214886Y-14246784D01*
X9214886Y-14246784D02*
X9233934Y-14237260D01*
X9233934Y-14237260D02*
X9243458Y-14227736D01*
X9243458Y-14227736D02*
X9262505Y-14199165D01*
X9262505Y-14199165D02*
X9272029Y-14161069D01*
X9272029Y-14161069D02*
X9272029Y-14084879D01*
X9272029Y-14084879D02*
X9262505Y-14065831D01*
X9262505Y-14065831D02*
X9252982Y-14056308D01*
X9252982Y-14056308D02*
X9233934Y-14046784D01*
X9233934Y-14046784D02*
X9195839Y-14046784D01*
X9195839Y-14046784D02*
X9176791Y-14056308D01*
X9176791Y-14056308D02*
X9167267Y-14065831D01*
X9167267Y-14065831D02*
X9157744Y-14084879D01*
X9157744Y-14084879D02*
X9157744Y-14132498D01*
X9157744Y-14132498D02*
X9167267Y-14151546D01*
X9167267Y-14151546D02*
X9176791Y-14161069D01*
X9176791Y-14161069D02*
X9195839Y-14170593D01*
X9195839Y-14170593D02*
X9233934Y-14170593D01*
X9233934Y-14170593D02*
X9252982Y-14161069D01*
X9252982Y-14161069D02*
X9262505Y-14151546D01*
X9262505Y-14151546D02*
X9272029Y-14132498D01*
X9395839Y-14046784D02*
X9414886Y-14046784D01*
X9414886Y-14046784D02*
X9433934Y-14056308D01*
X9433934Y-14056308D02*
X9443458Y-14065831D01*
X9443458Y-14065831D02*
X9452982Y-14084879D01*
X9452982Y-14084879D02*
X9462505Y-14122974D01*
X9462505Y-14122974D02*
X9462505Y-14170593D01*
X9462505Y-14170593D02*
X9452982Y-14208688D01*
X9452982Y-14208688D02*
X9443458Y-14227736D01*
X9443458Y-14227736D02*
X9433934Y-14237260D01*
X9433934Y-14237260D02*
X9414886Y-14246784D01*
X9414886Y-14246784D02*
X9395839Y-14246784D01*
X9395839Y-14246784D02*
X9376791Y-14237260D01*
X9376791Y-14237260D02*
X9367267Y-14227736D01*
X9367267Y-14227736D02*
X9357744Y-14208688D01*
X9357744Y-14208688D02*
X9348220Y-14170593D01*
X9348220Y-14170593D02*
X9348220Y-14122974D01*
X9348220Y-14122974D02*
X9357744Y-14084879D01*
X9357744Y-14084879D02*
X9367267Y-14065831D01*
X9367267Y-14065831D02*
X9376791Y-14056308D01*
X9376791Y-14056308D02*
X9395839Y-14046784D01*
X9548220Y-14246784D02*
X9548220Y-14113450D01*
X9548220Y-14132498D02*
X9557744Y-14122974D01*
X9557744Y-14122974D02*
X9576791Y-14113450D01*
X9576791Y-14113450D02*
X9605363Y-14113450D01*
X9605363Y-14113450D02*
X9624410Y-14122974D01*
X9624410Y-14122974D02*
X9633934Y-14142022D01*
X9633934Y-14142022D02*
X9633934Y-14246784D01*
X9633934Y-14142022D02*
X9643458Y-14122974D01*
X9643458Y-14122974D02*
X9662505Y-14113450D01*
X9662505Y-14113450D02*
X9691077Y-14113450D01*
X9691077Y-14113450D02*
X9710125Y-14122974D01*
X9710125Y-14122974D02*
X9719648Y-14142022D01*
X9719648Y-14142022D02*
X9719648Y-14246784D01*
X9814886Y-14246784D02*
X9814886Y-14113450D01*
X9814886Y-14132498D02*
X9824410Y-14122974D01*
X9824410Y-14122974D02*
X9843458Y-14113450D01*
X9843458Y-14113450D02*
X9872029Y-14113450D01*
X9872029Y-14113450D02*
X9891077Y-14122974D01*
X9891077Y-14122974D02*
X9900601Y-14142022D01*
X9900601Y-14142022D02*
X9900601Y-14246784D01*
X9900601Y-14142022D02*
X9910125Y-14122974D01*
X9910125Y-14122974D02*
X9929172Y-14113450D01*
X9929172Y-14113450D02*
X9957744Y-14113450D01*
X9957744Y-14113450D02*
X9976791Y-14122974D01*
X9976791Y-14122974D02*
X9986315Y-14142022D01*
X9986315Y-14142022D02*
X9986315Y-14246784D01*
X10376791Y-14037260D02*
X10205363Y-14294403D01*
X10633934Y-14046784D02*
X10652982Y-14046784D01*
X10652982Y-14046784D02*
X10672029Y-14056308D01*
X10672029Y-14056308D02*
X10681553Y-14065831D01*
X10681553Y-14065831D02*
X10691077Y-14084879D01*
X10691077Y-14084879D02*
X10700601Y-14122974D01*
X10700601Y-14122974D02*
X10700601Y-14170593D01*
X10700601Y-14170593D02*
X10691077Y-14208688D01*
X10691077Y-14208688D02*
X10681553Y-14227736D01*
X10681553Y-14227736D02*
X10672029Y-14237260D01*
X10672029Y-14237260D02*
X10652982Y-14246784D01*
X10652982Y-14246784D02*
X10633934Y-14246784D01*
X10633934Y-14246784D02*
X10614887Y-14237260D01*
X10614887Y-14237260D02*
X10605363Y-14227736D01*
X10605363Y-14227736D02*
X10595839Y-14208688D01*
X10595839Y-14208688D02*
X10586315Y-14170593D01*
X10586315Y-14170593D02*
X10586315Y-14122974D01*
X10586315Y-14122974D02*
X10595839Y-14084879D01*
X10595839Y-14084879D02*
X10605363Y-14065831D01*
X10605363Y-14065831D02*
X10614887Y-14056308D01*
X10614887Y-14056308D02*
X10633934Y-14046784D01*
X10786315Y-14227736D02*
X10795839Y-14237260D01*
X10795839Y-14237260D02*
X10786315Y-14246784D01*
X10786315Y-14246784D02*
X10776791Y-14237260D01*
X10776791Y-14237260D02*
X10786315Y-14227736D01*
X10786315Y-14227736D02*
X10786315Y-14246784D01*
X10919648Y-14046784D02*
X10938696Y-14046784D01*
X10938696Y-14046784D02*
X10957744Y-14056308D01*
X10957744Y-14056308D02*
X10967268Y-14065831D01*
X10967268Y-14065831D02*
X10976791Y-14084879D01*
X10976791Y-14084879D02*
X10986315Y-14122974D01*
X10986315Y-14122974D02*
X10986315Y-14170593D01*
X10986315Y-14170593D02*
X10976791Y-14208688D01*
X10976791Y-14208688D02*
X10967268Y-14227736D01*
X10967268Y-14227736D02*
X10957744Y-14237260D01*
X10957744Y-14237260D02*
X10938696Y-14246784D01*
X10938696Y-14246784D02*
X10919648Y-14246784D01*
X10919648Y-14246784D02*
X10900601Y-14237260D01*
X10900601Y-14237260D02*
X10891077Y-14227736D01*
X10891077Y-14227736D02*
X10881553Y-14208688D01*
X10881553Y-14208688D02*
X10872029Y-14170593D01*
X10872029Y-14170593D02*
X10872029Y-14122974D01*
X10872029Y-14122974D02*
X10881553Y-14084879D01*
X10881553Y-14084879D02*
X10891077Y-14065831D01*
X10891077Y-14065831D02*
X10900601Y-14056308D01*
X10900601Y-14056308D02*
X10919648Y-14046784D01*
X11052982Y-14046784D02*
X11176791Y-14046784D01*
X11176791Y-14046784D02*
X11110125Y-14122974D01*
X11110125Y-14122974D02*
X11138696Y-14122974D01*
X11138696Y-14122974D02*
X11157744Y-14132498D01*
X11157744Y-14132498D02*
X11167268Y-14142022D01*
X11167268Y-14142022D02*
X11176791Y-14161069D01*
X11176791Y-14161069D02*
X11176791Y-14208688D01*
X11176791Y-14208688D02*
X11167268Y-14227736D01*
X11167268Y-14227736D02*
X11157744Y-14237260D01*
X11157744Y-14237260D02*
X11138696Y-14246784D01*
X11138696Y-14246784D02*
X11081553Y-14246784D01*
X11081553Y-14246784D02*
X11062506Y-14237260D01*
X11062506Y-14237260D02*
X11052982Y-14227736D01*
X11367267Y-14246784D02*
X11252982Y-14246784D01*
X11310125Y-14246784D02*
X11310125Y-14046784D01*
X11310125Y-14046784D02*
X11291077Y-14075355D01*
X11291077Y-14075355D02*
X11272029Y-14094403D01*
X11272029Y-14094403D02*
X11252982Y-14103927D01*
X11557744Y-14246784D02*
X11443458Y-14246784D01*
X11500601Y-14246784D02*
X11500601Y-14046784D01*
X11500601Y-14046784D02*
X11481553Y-14075355D01*
X11481553Y-14075355D02*
X11462506Y-14094403D01*
X11462506Y-14094403D02*
X11443458Y-14103927D01*
X11633934Y-14046784D02*
X11633934Y-14084879D01*
X11710125Y-14046784D02*
X11710125Y-14084879D01*
X12005363Y-14322974D02*
X11995839Y-14313450D01*
X11995839Y-14313450D02*
X11976791Y-14284879D01*
X11976791Y-14284879D02*
X11967268Y-14265831D01*
X11967268Y-14265831D02*
X11957744Y-14237260D01*
X11957744Y-14237260D02*
X11948220Y-14189641D01*
X11948220Y-14189641D02*
X11948220Y-14151546D01*
X11948220Y-14151546D02*
X11957744Y-14103927D01*
X11957744Y-14103927D02*
X11967268Y-14075355D01*
X11967268Y-14075355D02*
X11976791Y-14056308D01*
X11976791Y-14056308D02*
X11995839Y-14027736D01*
X11995839Y-14027736D02*
X12005363Y-14018212D01*
X12062506Y-14046784D02*
X12186315Y-14046784D01*
X12186315Y-14046784D02*
X12119648Y-14122974D01*
X12119648Y-14122974D02*
X12148220Y-14122974D01*
X12148220Y-14122974D02*
X12167268Y-14132498D01*
X12167268Y-14132498D02*
X12176791Y-14142022D01*
X12176791Y-14142022D02*
X12186315Y-14161069D01*
X12186315Y-14161069D02*
X12186315Y-14208688D01*
X12186315Y-14208688D02*
X12176791Y-14227736D01*
X12176791Y-14227736D02*
X12167268Y-14237260D01*
X12167268Y-14237260D02*
X12148220Y-14246784D01*
X12148220Y-14246784D02*
X12091077Y-14246784D01*
X12091077Y-14246784D02*
X12072029Y-14237260D01*
X12072029Y-14237260D02*
X12062506Y-14227736D01*
X12424410Y-14246784D02*
X12424410Y-14046784D01*
X12510125Y-14246784D02*
X12510125Y-14142022D01*
X12510125Y-14142022D02*
X12500601Y-14122974D01*
X12500601Y-14122974D02*
X12481553Y-14113450D01*
X12481553Y-14113450D02*
X12452982Y-14113450D01*
X12452982Y-14113450D02*
X12433934Y-14122974D01*
X12433934Y-14122974D02*
X12424410Y-14132498D01*
X12633934Y-14246784D02*
X12614887Y-14237260D01*
X12614887Y-14237260D02*
X12605363Y-14227736D01*
X12605363Y-14227736D02*
X12595839Y-14208688D01*
X12595839Y-14208688D02*
X12595839Y-14151546D01*
X12595839Y-14151546D02*
X12605363Y-14132498D01*
X12605363Y-14132498D02*
X12614887Y-14122974D01*
X12614887Y-14122974D02*
X12633934Y-14113450D01*
X12633934Y-14113450D02*
X12662506Y-14113450D01*
X12662506Y-14113450D02*
X12681553Y-14122974D01*
X12681553Y-14122974D02*
X12691077Y-14132498D01*
X12691077Y-14132498D02*
X12700601Y-14151546D01*
X12700601Y-14151546D02*
X12700601Y-14208688D01*
X12700601Y-14208688D02*
X12691077Y-14227736D01*
X12691077Y-14227736D02*
X12681553Y-14237260D01*
X12681553Y-14237260D02*
X12662506Y-14246784D01*
X12662506Y-14246784D02*
X12633934Y-14246784D01*
X12814887Y-14246784D02*
X12795839Y-14237260D01*
X12795839Y-14237260D02*
X12786315Y-14218212D01*
X12786315Y-14218212D02*
X12786315Y-14046784D01*
X12967268Y-14237260D02*
X12948220Y-14246784D01*
X12948220Y-14246784D02*
X12910125Y-14246784D01*
X12910125Y-14246784D02*
X12891077Y-14237260D01*
X12891077Y-14237260D02*
X12881553Y-14218212D01*
X12881553Y-14218212D02*
X12881553Y-14142022D01*
X12881553Y-14142022D02*
X12891077Y-14122974D01*
X12891077Y-14122974D02*
X12910125Y-14113450D01*
X12910125Y-14113450D02*
X12948220Y-14113450D01*
X12948220Y-14113450D02*
X12967268Y-14122974D01*
X12967268Y-14122974D02*
X12976791Y-14142022D01*
X12976791Y-14142022D02*
X12976791Y-14161069D01*
X12976791Y-14161069D02*
X12881553Y-14180117D01*
X13052982Y-14237260D02*
X13072030Y-14246784D01*
X13072030Y-14246784D02*
X13110125Y-14246784D01*
X13110125Y-14246784D02*
X13129172Y-14237260D01*
X13129172Y-14237260D02*
X13138696Y-14218212D01*
X13138696Y-14218212D02*
X13138696Y-14208688D01*
X13138696Y-14208688D02*
X13129172Y-14189641D01*
X13129172Y-14189641D02*
X13110125Y-14180117D01*
X13110125Y-14180117D02*
X13081553Y-14180117D01*
X13081553Y-14180117D02*
X13062506Y-14170593D01*
X13062506Y-14170593D02*
X13052982Y-14151546D01*
X13052982Y-14151546D02*
X13052982Y-14142022D01*
X13052982Y-14142022D02*
X13062506Y-14122974D01*
X13062506Y-14122974D02*
X13081553Y-14113450D01*
X13081553Y-14113450D02*
X13110125Y-14113450D01*
X13110125Y-14113450D02*
X13129172Y-14122974D01*
X13205363Y-14322974D02*
X13214887Y-14313450D01*
X13214887Y-14313450D02*
X13233934Y-14284879D01*
X13233934Y-14284879D02*
X13243458Y-14265831D01*
X13243458Y-14265831D02*
X13252982Y-14237260D01*
X13252982Y-14237260D02*
X13262506Y-14189641D01*
X13262506Y-14189641D02*
X13262506Y-14151546D01*
X13262506Y-14151546D02*
X13252982Y-14103927D01*
X13252982Y-14103927D02*
X13243458Y-14075355D01*
X13243458Y-14075355D02*
X13233934Y-14056308D01*
X13233934Y-14056308D02*
X13214887Y-14027736D01*
X13214887Y-14027736D02*
X13205363Y-14018212D01*
D12*
X8430300Y-14419300D02*
G75*
G02*
X8340300Y-14419300I-45000J0D01*
G01*
X8340300Y-14419300D02*
G75*
G02*
X8430300Y-14419300I45000J0D01*
G01*
D11*
X8729172Y-14310784D02*
X8748220Y-14310784D01*
X8748220Y-14310784D02*
X8767267Y-14320308D01*
X8767267Y-14320308D02*
X8776791Y-14329831D01*
X8776791Y-14329831D02*
X8786315Y-14348879D01*
X8786315Y-14348879D02*
X8795839Y-14386974D01*
X8795839Y-14386974D02*
X8795839Y-14434593D01*
X8795839Y-14434593D02*
X8786315Y-14472688D01*
X8786315Y-14472688D02*
X8776791Y-14491736D01*
X8776791Y-14491736D02*
X8767267Y-14501260D01*
X8767267Y-14501260D02*
X8748220Y-14510784D01*
X8748220Y-14510784D02*
X8729172Y-14510784D01*
X8729172Y-14510784D02*
X8710124Y-14501260D01*
X8710124Y-14501260D02*
X8700601Y-14491736D01*
X8700601Y-14491736D02*
X8691077Y-14472688D01*
X8691077Y-14472688D02*
X8681553Y-14434593D01*
X8681553Y-14434593D02*
X8681553Y-14386974D01*
X8681553Y-14386974D02*
X8691077Y-14348879D01*
X8691077Y-14348879D02*
X8700601Y-14329831D01*
X8700601Y-14329831D02*
X8710124Y-14320308D01*
X8710124Y-14320308D02*
X8729172Y-14310784D01*
X8881553Y-14491736D02*
X8891077Y-14501260D01*
X8891077Y-14501260D02*
X8881553Y-14510784D01*
X8881553Y-14510784D02*
X8872029Y-14501260D01*
X8872029Y-14501260D02*
X8881553Y-14491736D01*
X8881553Y-14491736D02*
X8881553Y-14510784D01*
X8986315Y-14510784D02*
X9024410Y-14510784D01*
X9024410Y-14510784D02*
X9043458Y-14501260D01*
X9043458Y-14501260D02*
X9052982Y-14491736D01*
X9052982Y-14491736D02*
X9072029Y-14463165D01*
X9072029Y-14463165D02*
X9081553Y-14425069D01*
X9081553Y-14425069D02*
X9081553Y-14348879D01*
X9081553Y-14348879D02*
X9072029Y-14329831D01*
X9072029Y-14329831D02*
X9062505Y-14320308D01*
X9062505Y-14320308D02*
X9043458Y-14310784D01*
X9043458Y-14310784D02*
X9005363Y-14310784D01*
X9005363Y-14310784D02*
X8986315Y-14320308D01*
X8986315Y-14320308D02*
X8976791Y-14329831D01*
X8976791Y-14329831D02*
X8967267Y-14348879D01*
X8967267Y-14348879D02*
X8967267Y-14396498D01*
X8967267Y-14396498D02*
X8976791Y-14415546D01*
X8976791Y-14415546D02*
X8986315Y-14425069D01*
X8986315Y-14425069D02*
X9005363Y-14434593D01*
X9005363Y-14434593D02*
X9043458Y-14434593D01*
X9043458Y-14434593D02*
X9062505Y-14425069D01*
X9062505Y-14425069D02*
X9072029Y-14415546D01*
X9072029Y-14415546D02*
X9081553Y-14396498D01*
X9205363Y-14310784D02*
X9224410Y-14310784D01*
X9224410Y-14310784D02*
X9243458Y-14320308D01*
X9243458Y-14320308D02*
X9252982Y-14329831D01*
X9252982Y-14329831D02*
X9262505Y-14348879D01*
X9262505Y-14348879D02*
X9272029Y-14386974D01*
X9272029Y-14386974D02*
X9272029Y-14434593D01*
X9272029Y-14434593D02*
X9262505Y-14472688D01*
X9262505Y-14472688D02*
X9252982Y-14491736D01*
X9252982Y-14491736D02*
X9243458Y-14501260D01*
X9243458Y-14501260D02*
X9224410Y-14510784D01*
X9224410Y-14510784D02*
X9205363Y-14510784D01*
X9205363Y-14510784D02*
X9186315Y-14501260D01*
X9186315Y-14501260D02*
X9176791Y-14491736D01*
X9176791Y-14491736D02*
X9167267Y-14472688D01*
X9167267Y-14472688D02*
X9157744Y-14434593D01*
X9157744Y-14434593D02*
X9157744Y-14386974D01*
X9157744Y-14386974D02*
X9167267Y-14348879D01*
X9167267Y-14348879D02*
X9176791Y-14329831D01*
X9176791Y-14329831D02*
X9186315Y-14320308D01*
X9186315Y-14320308D02*
X9205363Y-14310784D01*
X9395839Y-14310784D02*
X9414886Y-14310784D01*
X9414886Y-14310784D02*
X9433934Y-14320308D01*
X9433934Y-14320308D02*
X9443458Y-14329831D01*
X9443458Y-14329831D02*
X9452982Y-14348879D01*
X9452982Y-14348879D02*
X9462505Y-14386974D01*
X9462505Y-14386974D02*
X9462505Y-14434593D01*
X9462505Y-14434593D02*
X9452982Y-14472688D01*
X9452982Y-14472688D02*
X9443458Y-14491736D01*
X9443458Y-14491736D02*
X9433934Y-14501260D01*
X9433934Y-14501260D02*
X9414886Y-14510784D01*
X9414886Y-14510784D02*
X9395839Y-14510784D01*
X9395839Y-14510784D02*
X9376791Y-14501260D01*
X9376791Y-14501260D02*
X9367267Y-14491736D01*
X9367267Y-14491736D02*
X9357744Y-14472688D01*
X9357744Y-14472688D02*
X9348220Y-14434593D01*
X9348220Y-14434593D02*
X9348220Y-14386974D01*
X9348220Y-14386974D02*
X9357744Y-14348879D01*
X9357744Y-14348879D02*
X9367267Y-14329831D01*
X9367267Y-14329831D02*
X9376791Y-14320308D01*
X9376791Y-14320308D02*
X9395839Y-14310784D01*
X9548220Y-14510784D02*
X9548220Y-14377450D01*
X9548220Y-14396498D02*
X9557744Y-14386974D01*
X9557744Y-14386974D02*
X9576791Y-14377450D01*
X9576791Y-14377450D02*
X9605363Y-14377450D01*
X9605363Y-14377450D02*
X9624410Y-14386974D01*
X9624410Y-14386974D02*
X9633934Y-14406022D01*
X9633934Y-14406022D02*
X9633934Y-14510784D01*
X9633934Y-14406022D02*
X9643458Y-14386974D01*
X9643458Y-14386974D02*
X9662505Y-14377450D01*
X9662505Y-14377450D02*
X9691077Y-14377450D01*
X9691077Y-14377450D02*
X9710125Y-14386974D01*
X9710125Y-14386974D02*
X9719648Y-14406022D01*
X9719648Y-14406022D02*
X9719648Y-14510784D01*
X9814886Y-14510784D02*
X9814886Y-14377450D01*
X9814886Y-14396498D02*
X9824410Y-14386974D01*
X9824410Y-14386974D02*
X9843458Y-14377450D01*
X9843458Y-14377450D02*
X9872029Y-14377450D01*
X9872029Y-14377450D02*
X9891077Y-14386974D01*
X9891077Y-14386974D02*
X9900601Y-14406022D01*
X9900601Y-14406022D02*
X9900601Y-14510784D01*
X9900601Y-14406022D02*
X9910125Y-14386974D01*
X9910125Y-14386974D02*
X9929172Y-14377450D01*
X9929172Y-14377450D02*
X9957744Y-14377450D01*
X9957744Y-14377450D02*
X9976791Y-14386974D01*
X9976791Y-14386974D02*
X9986315Y-14406022D01*
X9986315Y-14406022D02*
X9986315Y-14510784D01*
X10376791Y-14301260D02*
X10205363Y-14558403D01*
X10633934Y-14310784D02*
X10652982Y-14310784D01*
X10652982Y-14310784D02*
X10672029Y-14320308D01*
X10672029Y-14320308D02*
X10681553Y-14329831D01*
X10681553Y-14329831D02*
X10691077Y-14348879D01*
X10691077Y-14348879D02*
X10700601Y-14386974D01*
X10700601Y-14386974D02*
X10700601Y-14434593D01*
X10700601Y-14434593D02*
X10691077Y-14472688D01*
X10691077Y-14472688D02*
X10681553Y-14491736D01*
X10681553Y-14491736D02*
X10672029Y-14501260D01*
X10672029Y-14501260D02*
X10652982Y-14510784D01*
X10652982Y-14510784D02*
X10633934Y-14510784D01*
X10633934Y-14510784D02*
X10614887Y-14501260D01*
X10614887Y-14501260D02*
X10605363Y-14491736D01*
X10605363Y-14491736D02*
X10595839Y-14472688D01*
X10595839Y-14472688D02*
X10586315Y-14434593D01*
X10586315Y-14434593D02*
X10586315Y-14386974D01*
X10586315Y-14386974D02*
X10595839Y-14348879D01*
X10595839Y-14348879D02*
X10605363Y-14329831D01*
X10605363Y-14329831D02*
X10614887Y-14320308D01*
X10614887Y-14320308D02*
X10633934Y-14310784D01*
X10786315Y-14491736D02*
X10795839Y-14501260D01*
X10795839Y-14501260D02*
X10786315Y-14510784D01*
X10786315Y-14510784D02*
X10776791Y-14501260D01*
X10776791Y-14501260D02*
X10786315Y-14491736D01*
X10786315Y-14491736D02*
X10786315Y-14510784D01*
X10919648Y-14310784D02*
X10938696Y-14310784D01*
X10938696Y-14310784D02*
X10957744Y-14320308D01*
X10957744Y-14320308D02*
X10967268Y-14329831D01*
X10967268Y-14329831D02*
X10976791Y-14348879D01*
X10976791Y-14348879D02*
X10986315Y-14386974D01*
X10986315Y-14386974D02*
X10986315Y-14434593D01*
X10986315Y-14434593D02*
X10976791Y-14472688D01*
X10976791Y-14472688D02*
X10967268Y-14491736D01*
X10967268Y-14491736D02*
X10957744Y-14501260D01*
X10957744Y-14501260D02*
X10938696Y-14510784D01*
X10938696Y-14510784D02*
X10919648Y-14510784D01*
X10919648Y-14510784D02*
X10900601Y-14501260D01*
X10900601Y-14501260D02*
X10891077Y-14491736D01*
X10891077Y-14491736D02*
X10881553Y-14472688D01*
X10881553Y-14472688D02*
X10872029Y-14434593D01*
X10872029Y-14434593D02*
X10872029Y-14386974D01*
X10872029Y-14386974D02*
X10881553Y-14348879D01*
X10881553Y-14348879D02*
X10891077Y-14329831D01*
X10891077Y-14329831D02*
X10900601Y-14320308D01*
X10900601Y-14320308D02*
X10919648Y-14310784D01*
X11052982Y-14310784D02*
X11176791Y-14310784D01*
X11176791Y-14310784D02*
X11110125Y-14386974D01*
X11110125Y-14386974D02*
X11138696Y-14386974D01*
X11138696Y-14386974D02*
X11157744Y-14396498D01*
X11157744Y-14396498D02*
X11167268Y-14406022D01*
X11167268Y-14406022D02*
X11176791Y-14425069D01*
X11176791Y-14425069D02*
X11176791Y-14472688D01*
X11176791Y-14472688D02*
X11167268Y-14491736D01*
X11167268Y-14491736D02*
X11157744Y-14501260D01*
X11157744Y-14501260D02*
X11138696Y-14510784D01*
X11138696Y-14510784D02*
X11081553Y-14510784D01*
X11081553Y-14510784D02*
X11062506Y-14501260D01*
X11062506Y-14501260D02*
X11052982Y-14491736D01*
X11357744Y-14310784D02*
X11262506Y-14310784D01*
X11262506Y-14310784D02*
X11252982Y-14406022D01*
X11252982Y-14406022D02*
X11262506Y-14396498D01*
X11262506Y-14396498D02*
X11281553Y-14386974D01*
X11281553Y-14386974D02*
X11329172Y-14386974D01*
X11329172Y-14386974D02*
X11348220Y-14396498D01*
X11348220Y-14396498D02*
X11357744Y-14406022D01*
X11357744Y-14406022D02*
X11367267Y-14425069D01*
X11367267Y-14425069D02*
X11367267Y-14472688D01*
X11367267Y-14472688D02*
X11357744Y-14491736D01*
X11357744Y-14491736D02*
X11348220Y-14501260D01*
X11348220Y-14501260D02*
X11329172Y-14510784D01*
X11329172Y-14510784D02*
X11281553Y-14510784D01*
X11281553Y-14510784D02*
X11262506Y-14501260D01*
X11262506Y-14501260D02*
X11252982Y-14491736D01*
X11538696Y-14377450D02*
X11538696Y-14510784D01*
X11491077Y-14301260D02*
X11443458Y-14444117D01*
X11443458Y-14444117D02*
X11567267Y-14444117D01*
X11633934Y-14310784D02*
X11633934Y-14348879D01*
X11710125Y-14310784D02*
X11710125Y-14348879D01*
X12005363Y-14586974D02*
X11995839Y-14577450D01*
X11995839Y-14577450D02*
X11976791Y-14548879D01*
X11976791Y-14548879D02*
X11967268Y-14529831D01*
X11967268Y-14529831D02*
X11957744Y-14501260D01*
X11957744Y-14501260D02*
X11948220Y-14453641D01*
X11948220Y-14453641D02*
X11948220Y-14415546D01*
X11948220Y-14415546D02*
X11957744Y-14367927D01*
X11957744Y-14367927D02*
X11967268Y-14339355D01*
X11967268Y-14339355D02*
X11976791Y-14320308D01*
X11976791Y-14320308D02*
X11995839Y-14291736D01*
X11995839Y-14291736D02*
X12005363Y-14282212D01*
X12167268Y-14310784D02*
X12129172Y-14310784D01*
X12129172Y-14310784D02*
X12110125Y-14320308D01*
X12110125Y-14320308D02*
X12100601Y-14329831D01*
X12100601Y-14329831D02*
X12081553Y-14358403D01*
X12081553Y-14358403D02*
X12072029Y-14396498D01*
X12072029Y-14396498D02*
X12072029Y-14472688D01*
X12072029Y-14472688D02*
X12081553Y-14491736D01*
X12081553Y-14491736D02*
X12091077Y-14501260D01*
X12091077Y-14501260D02*
X12110125Y-14510784D01*
X12110125Y-14510784D02*
X12148220Y-14510784D01*
X12148220Y-14510784D02*
X12167268Y-14501260D01*
X12167268Y-14501260D02*
X12176791Y-14491736D01*
X12176791Y-14491736D02*
X12186315Y-14472688D01*
X12186315Y-14472688D02*
X12186315Y-14425069D01*
X12186315Y-14425069D02*
X12176791Y-14406022D01*
X12176791Y-14406022D02*
X12167268Y-14396498D01*
X12167268Y-14396498D02*
X12148220Y-14386974D01*
X12148220Y-14386974D02*
X12110125Y-14386974D01*
X12110125Y-14386974D02*
X12091077Y-14396498D01*
X12091077Y-14396498D02*
X12081553Y-14406022D01*
X12081553Y-14406022D02*
X12072029Y-14425069D01*
X12424410Y-14510784D02*
X12424410Y-14310784D01*
X12510125Y-14510784D02*
X12510125Y-14406022D01*
X12510125Y-14406022D02*
X12500601Y-14386974D01*
X12500601Y-14386974D02*
X12481553Y-14377450D01*
X12481553Y-14377450D02*
X12452982Y-14377450D01*
X12452982Y-14377450D02*
X12433934Y-14386974D01*
X12433934Y-14386974D02*
X12424410Y-14396498D01*
X12633934Y-14510784D02*
X12614887Y-14501260D01*
X12614887Y-14501260D02*
X12605363Y-14491736D01*
X12605363Y-14491736D02*
X12595839Y-14472688D01*
X12595839Y-14472688D02*
X12595839Y-14415546D01*
X12595839Y-14415546D02*
X12605363Y-14396498D01*
X12605363Y-14396498D02*
X12614887Y-14386974D01*
X12614887Y-14386974D02*
X12633934Y-14377450D01*
X12633934Y-14377450D02*
X12662506Y-14377450D01*
X12662506Y-14377450D02*
X12681553Y-14386974D01*
X12681553Y-14386974D02*
X12691077Y-14396498D01*
X12691077Y-14396498D02*
X12700601Y-14415546D01*
X12700601Y-14415546D02*
X12700601Y-14472688D01*
X12700601Y-14472688D02*
X12691077Y-14491736D01*
X12691077Y-14491736D02*
X12681553Y-14501260D01*
X12681553Y-14501260D02*
X12662506Y-14510784D01*
X12662506Y-14510784D02*
X12633934Y-14510784D01*
X12814887Y-14510784D02*
X12795839Y-14501260D01*
X12795839Y-14501260D02*
X12786315Y-14482212D01*
X12786315Y-14482212D02*
X12786315Y-14310784D01*
X12967268Y-14501260D02*
X12948220Y-14510784D01*
X12948220Y-14510784D02*
X12910125Y-14510784D01*
X12910125Y-14510784D02*
X12891077Y-14501260D01*
X12891077Y-14501260D02*
X12881553Y-14482212D01*
X12881553Y-14482212D02*
X12881553Y-14406022D01*
X12881553Y-14406022D02*
X12891077Y-14386974D01*
X12891077Y-14386974D02*
X12910125Y-14377450D01*
X12910125Y-14377450D02*
X12948220Y-14377450D01*
X12948220Y-14377450D02*
X12967268Y-14386974D01*
X12967268Y-14386974D02*
X12976791Y-14406022D01*
X12976791Y-14406022D02*
X12976791Y-14425069D01*
X12976791Y-14425069D02*
X12881553Y-14444117D01*
X13052982Y-14501260D02*
X13072030Y-14510784D01*
X13072030Y-14510784D02*
X13110125Y-14510784D01*
X13110125Y-14510784D02*
X13129172Y-14501260D01*
X13129172Y-14501260D02*
X13138696Y-14482212D01*
X13138696Y-14482212D02*
X13138696Y-14472688D01*
X13138696Y-14472688D02*
X13129172Y-14453641D01*
X13129172Y-14453641D02*
X13110125Y-14444117D01*
X13110125Y-14444117D02*
X13081553Y-14444117D01*
X13081553Y-14444117D02*
X13062506Y-14434593D01*
X13062506Y-14434593D02*
X13052982Y-14415546D01*
X13052982Y-14415546D02*
X13052982Y-14406022D01*
X13052982Y-14406022D02*
X13062506Y-14386974D01*
X13062506Y-14386974D02*
X13081553Y-14377450D01*
X13081553Y-14377450D02*
X13110125Y-14377450D01*
X13110125Y-14377450D02*
X13129172Y-14386974D01*
X13205363Y-14586974D02*
X13214887Y-14577450D01*
X13214887Y-14577450D02*
X13233934Y-14548879D01*
X13233934Y-14548879D02*
X13243458Y-14529831D01*
X13243458Y-14529831D02*
X13252982Y-14501260D01*
X13252982Y-14501260D02*
X13262506Y-14453641D01*
X13262506Y-14453641D02*
X13262506Y-14415546D01*
X13262506Y-14415546D02*
X13252982Y-14367927D01*
X13252982Y-14367927D02*
X13243458Y-14339355D01*
X13243458Y-14339355D02*
X13233934Y-14320308D01*
X13233934Y-14320308D02*
X13214887Y-14291736D01*
X13214887Y-14291736D02*
X13205363Y-14282212D01*
D12*
X8380300Y-14633300D02*
X8380300Y-14733300D01*
X8330300Y-14683300D02*
X8430300Y-14683300D01*
D11*
X8795839Y-14774784D02*
X8681553Y-14774784D01*
X8738696Y-14774784D02*
X8738696Y-14574784D01*
X8738696Y-14574784D02*
X8719648Y-14603355D01*
X8719648Y-14603355D02*
X8700601Y-14622403D01*
X8700601Y-14622403D02*
X8681553Y-14631927D01*
X8881553Y-14755736D02*
X8891077Y-14765260D01*
X8891077Y-14765260D02*
X8881553Y-14774784D01*
X8881553Y-14774784D02*
X8872029Y-14765260D01*
X8872029Y-14765260D02*
X8881553Y-14755736D01*
X8881553Y-14755736D02*
X8881553Y-14774784D01*
X9014886Y-14574784D02*
X9033934Y-14574784D01*
X9033934Y-14574784D02*
X9052982Y-14584308D01*
X9052982Y-14584308D02*
X9062505Y-14593831D01*
X9062505Y-14593831D02*
X9072029Y-14612879D01*
X9072029Y-14612879D02*
X9081553Y-14650974D01*
X9081553Y-14650974D02*
X9081553Y-14698593D01*
X9081553Y-14698593D02*
X9072029Y-14736688D01*
X9072029Y-14736688D02*
X9062505Y-14755736D01*
X9062505Y-14755736D02*
X9052982Y-14765260D01*
X9052982Y-14765260D02*
X9033934Y-14774784D01*
X9033934Y-14774784D02*
X9014886Y-14774784D01*
X9014886Y-14774784D02*
X8995839Y-14765260D01*
X8995839Y-14765260D02*
X8986315Y-14755736D01*
X8986315Y-14755736D02*
X8976791Y-14736688D01*
X8976791Y-14736688D02*
X8967267Y-14698593D01*
X8967267Y-14698593D02*
X8967267Y-14650974D01*
X8967267Y-14650974D02*
X8976791Y-14612879D01*
X8976791Y-14612879D02*
X8986315Y-14593831D01*
X8986315Y-14593831D02*
X8995839Y-14584308D01*
X8995839Y-14584308D02*
X9014886Y-14574784D01*
X9205363Y-14574784D02*
X9224410Y-14574784D01*
X9224410Y-14574784D02*
X9243458Y-14584308D01*
X9243458Y-14584308D02*
X9252982Y-14593831D01*
X9252982Y-14593831D02*
X9262505Y-14612879D01*
X9262505Y-14612879D02*
X9272029Y-14650974D01*
X9272029Y-14650974D02*
X9272029Y-14698593D01*
X9272029Y-14698593D02*
X9262505Y-14736688D01*
X9262505Y-14736688D02*
X9252982Y-14755736D01*
X9252982Y-14755736D02*
X9243458Y-14765260D01*
X9243458Y-14765260D02*
X9224410Y-14774784D01*
X9224410Y-14774784D02*
X9205363Y-14774784D01*
X9205363Y-14774784D02*
X9186315Y-14765260D01*
X9186315Y-14765260D02*
X9176791Y-14755736D01*
X9176791Y-14755736D02*
X9167267Y-14736688D01*
X9167267Y-14736688D02*
X9157744Y-14698593D01*
X9157744Y-14698593D02*
X9157744Y-14650974D01*
X9157744Y-14650974D02*
X9167267Y-14612879D01*
X9167267Y-14612879D02*
X9176791Y-14593831D01*
X9176791Y-14593831D02*
X9186315Y-14584308D01*
X9186315Y-14584308D02*
X9205363Y-14574784D01*
X9395839Y-14574784D02*
X9414886Y-14574784D01*
X9414886Y-14574784D02*
X9433934Y-14584308D01*
X9433934Y-14584308D02*
X9443458Y-14593831D01*
X9443458Y-14593831D02*
X9452982Y-14612879D01*
X9452982Y-14612879D02*
X9462505Y-14650974D01*
X9462505Y-14650974D02*
X9462505Y-14698593D01*
X9462505Y-14698593D02*
X9452982Y-14736688D01*
X9452982Y-14736688D02*
X9443458Y-14755736D01*
X9443458Y-14755736D02*
X9433934Y-14765260D01*
X9433934Y-14765260D02*
X9414886Y-14774784D01*
X9414886Y-14774784D02*
X9395839Y-14774784D01*
X9395839Y-14774784D02*
X9376791Y-14765260D01*
X9376791Y-14765260D02*
X9367267Y-14755736D01*
X9367267Y-14755736D02*
X9357744Y-14736688D01*
X9357744Y-14736688D02*
X9348220Y-14698593D01*
X9348220Y-14698593D02*
X9348220Y-14650974D01*
X9348220Y-14650974D02*
X9357744Y-14612879D01*
X9357744Y-14612879D02*
X9367267Y-14593831D01*
X9367267Y-14593831D02*
X9376791Y-14584308D01*
X9376791Y-14584308D02*
X9395839Y-14574784D01*
X9548220Y-14774784D02*
X9548220Y-14641450D01*
X9548220Y-14660498D02*
X9557744Y-14650974D01*
X9557744Y-14650974D02*
X9576791Y-14641450D01*
X9576791Y-14641450D02*
X9605363Y-14641450D01*
X9605363Y-14641450D02*
X9624410Y-14650974D01*
X9624410Y-14650974D02*
X9633934Y-14670022D01*
X9633934Y-14670022D02*
X9633934Y-14774784D01*
X9633934Y-14670022D02*
X9643458Y-14650974D01*
X9643458Y-14650974D02*
X9662505Y-14641450D01*
X9662505Y-14641450D02*
X9691077Y-14641450D01*
X9691077Y-14641450D02*
X9710125Y-14650974D01*
X9710125Y-14650974D02*
X9719648Y-14670022D01*
X9719648Y-14670022D02*
X9719648Y-14774784D01*
X9814886Y-14774784D02*
X9814886Y-14641450D01*
X9814886Y-14660498D02*
X9824410Y-14650974D01*
X9824410Y-14650974D02*
X9843458Y-14641450D01*
X9843458Y-14641450D02*
X9872029Y-14641450D01*
X9872029Y-14641450D02*
X9891077Y-14650974D01*
X9891077Y-14650974D02*
X9900601Y-14670022D01*
X9900601Y-14670022D02*
X9900601Y-14774784D01*
X9900601Y-14670022D02*
X9910125Y-14650974D01*
X9910125Y-14650974D02*
X9929172Y-14641450D01*
X9929172Y-14641450D02*
X9957744Y-14641450D01*
X9957744Y-14641450D02*
X9976791Y-14650974D01*
X9976791Y-14650974D02*
X9986315Y-14670022D01*
X9986315Y-14670022D02*
X9986315Y-14774784D01*
X10376791Y-14565260D02*
X10205363Y-14822403D01*
X10633934Y-14574784D02*
X10652982Y-14574784D01*
X10652982Y-14574784D02*
X10672029Y-14584308D01*
X10672029Y-14584308D02*
X10681553Y-14593831D01*
X10681553Y-14593831D02*
X10691077Y-14612879D01*
X10691077Y-14612879D02*
X10700601Y-14650974D01*
X10700601Y-14650974D02*
X10700601Y-14698593D01*
X10700601Y-14698593D02*
X10691077Y-14736688D01*
X10691077Y-14736688D02*
X10681553Y-14755736D01*
X10681553Y-14755736D02*
X10672029Y-14765260D01*
X10672029Y-14765260D02*
X10652982Y-14774784D01*
X10652982Y-14774784D02*
X10633934Y-14774784D01*
X10633934Y-14774784D02*
X10614887Y-14765260D01*
X10614887Y-14765260D02*
X10605363Y-14755736D01*
X10605363Y-14755736D02*
X10595839Y-14736688D01*
X10595839Y-14736688D02*
X10586315Y-14698593D01*
X10586315Y-14698593D02*
X10586315Y-14650974D01*
X10586315Y-14650974D02*
X10595839Y-14612879D01*
X10595839Y-14612879D02*
X10605363Y-14593831D01*
X10605363Y-14593831D02*
X10614887Y-14584308D01*
X10614887Y-14584308D02*
X10633934Y-14574784D01*
X10786315Y-14755736D02*
X10795839Y-14765260D01*
X10795839Y-14765260D02*
X10786315Y-14774784D01*
X10786315Y-14774784D02*
X10776791Y-14765260D01*
X10776791Y-14765260D02*
X10786315Y-14755736D01*
X10786315Y-14755736D02*
X10786315Y-14774784D01*
X10919648Y-14574784D02*
X10938696Y-14574784D01*
X10938696Y-14574784D02*
X10957744Y-14584308D01*
X10957744Y-14584308D02*
X10967268Y-14593831D01*
X10967268Y-14593831D02*
X10976791Y-14612879D01*
X10976791Y-14612879D02*
X10986315Y-14650974D01*
X10986315Y-14650974D02*
X10986315Y-14698593D01*
X10986315Y-14698593D02*
X10976791Y-14736688D01*
X10976791Y-14736688D02*
X10967268Y-14755736D01*
X10967268Y-14755736D02*
X10957744Y-14765260D01*
X10957744Y-14765260D02*
X10938696Y-14774784D01*
X10938696Y-14774784D02*
X10919648Y-14774784D01*
X10919648Y-14774784D02*
X10900601Y-14765260D01*
X10900601Y-14765260D02*
X10891077Y-14755736D01*
X10891077Y-14755736D02*
X10881553Y-14736688D01*
X10881553Y-14736688D02*
X10872029Y-14698593D01*
X10872029Y-14698593D02*
X10872029Y-14650974D01*
X10872029Y-14650974D02*
X10881553Y-14612879D01*
X10881553Y-14612879D02*
X10891077Y-14593831D01*
X10891077Y-14593831D02*
X10900601Y-14584308D01*
X10900601Y-14584308D02*
X10919648Y-14574784D01*
X11052982Y-14574784D02*
X11176791Y-14574784D01*
X11176791Y-14574784D02*
X11110125Y-14650974D01*
X11110125Y-14650974D02*
X11138696Y-14650974D01*
X11138696Y-14650974D02*
X11157744Y-14660498D01*
X11157744Y-14660498D02*
X11167268Y-14670022D01*
X11167268Y-14670022D02*
X11176791Y-14689069D01*
X11176791Y-14689069D02*
X11176791Y-14736688D01*
X11176791Y-14736688D02*
X11167268Y-14755736D01*
X11167268Y-14755736D02*
X11157744Y-14765260D01*
X11157744Y-14765260D02*
X11138696Y-14774784D01*
X11138696Y-14774784D02*
X11081553Y-14774784D01*
X11081553Y-14774784D02*
X11062506Y-14765260D01*
X11062506Y-14765260D02*
X11052982Y-14755736D01*
X11272029Y-14774784D02*
X11310125Y-14774784D01*
X11310125Y-14774784D02*
X11329172Y-14765260D01*
X11329172Y-14765260D02*
X11338696Y-14755736D01*
X11338696Y-14755736D02*
X11357744Y-14727165D01*
X11357744Y-14727165D02*
X11367267Y-14689069D01*
X11367267Y-14689069D02*
X11367267Y-14612879D01*
X11367267Y-14612879D02*
X11357744Y-14593831D01*
X11357744Y-14593831D02*
X11348220Y-14584308D01*
X11348220Y-14584308D02*
X11329172Y-14574784D01*
X11329172Y-14574784D02*
X11291077Y-14574784D01*
X11291077Y-14574784D02*
X11272029Y-14584308D01*
X11272029Y-14584308D02*
X11262506Y-14593831D01*
X11262506Y-14593831D02*
X11252982Y-14612879D01*
X11252982Y-14612879D02*
X11252982Y-14660498D01*
X11252982Y-14660498D02*
X11262506Y-14679546D01*
X11262506Y-14679546D02*
X11272029Y-14689069D01*
X11272029Y-14689069D02*
X11291077Y-14698593D01*
X11291077Y-14698593D02*
X11329172Y-14698593D01*
X11329172Y-14698593D02*
X11348220Y-14689069D01*
X11348220Y-14689069D02*
X11357744Y-14679546D01*
X11357744Y-14679546D02*
X11367267Y-14660498D01*
X11538696Y-14641450D02*
X11538696Y-14774784D01*
X11491077Y-14565260D02*
X11443458Y-14708117D01*
X11443458Y-14708117D02*
X11567267Y-14708117D01*
X11633934Y-14574784D02*
X11633934Y-14612879D01*
X11710125Y-14574784D02*
X11710125Y-14612879D01*
X12005363Y-14850974D02*
X11995839Y-14841450D01*
X11995839Y-14841450D02*
X11976791Y-14812879D01*
X11976791Y-14812879D02*
X11967268Y-14793831D01*
X11967268Y-14793831D02*
X11957744Y-14765260D01*
X11957744Y-14765260D02*
X11948220Y-14717641D01*
X11948220Y-14717641D02*
X11948220Y-14679546D01*
X11948220Y-14679546D02*
X11957744Y-14631927D01*
X11957744Y-14631927D02*
X11967268Y-14603355D01*
X11967268Y-14603355D02*
X11976791Y-14584308D01*
X11976791Y-14584308D02*
X11995839Y-14555736D01*
X11995839Y-14555736D02*
X12005363Y-14546212D01*
X12072029Y-14593831D02*
X12081553Y-14584308D01*
X12081553Y-14584308D02*
X12100601Y-14574784D01*
X12100601Y-14574784D02*
X12148220Y-14574784D01*
X12148220Y-14574784D02*
X12167268Y-14584308D01*
X12167268Y-14584308D02*
X12176791Y-14593831D01*
X12176791Y-14593831D02*
X12186315Y-14612879D01*
X12186315Y-14612879D02*
X12186315Y-14631927D01*
X12186315Y-14631927D02*
X12176791Y-14660498D01*
X12176791Y-14660498D02*
X12062506Y-14774784D01*
X12062506Y-14774784D02*
X12186315Y-14774784D01*
X12357744Y-14641450D02*
X12357744Y-14774784D01*
X12310125Y-14565260D02*
X12262506Y-14708117D01*
X12262506Y-14708117D02*
X12386315Y-14708117D01*
X12614887Y-14774784D02*
X12614887Y-14574784D01*
X12700601Y-14774784D02*
X12700601Y-14670022D01*
X12700601Y-14670022D02*
X12691077Y-14650974D01*
X12691077Y-14650974D02*
X12672030Y-14641450D01*
X12672030Y-14641450D02*
X12643458Y-14641450D01*
X12643458Y-14641450D02*
X12624410Y-14650974D01*
X12624410Y-14650974D02*
X12614887Y-14660498D01*
X12824410Y-14774784D02*
X12805363Y-14765260D01*
X12805363Y-14765260D02*
X12795839Y-14755736D01*
X12795839Y-14755736D02*
X12786315Y-14736688D01*
X12786315Y-14736688D02*
X12786315Y-14679546D01*
X12786315Y-14679546D02*
X12795839Y-14660498D01*
X12795839Y-14660498D02*
X12805363Y-14650974D01*
X12805363Y-14650974D02*
X12824410Y-14641450D01*
X12824410Y-14641450D02*
X12852982Y-14641450D01*
X12852982Y-14641450D02*
X12872030Y-14650974D01*
X12872030Y-14650974D02*
X12881553Y-14660498D01*
X12881553Y-14660498D02*
X12891077Y-14679546D01*
X12891077Y-14679546D02*
X12891077Y-14736688D01*
X12891077Y-14736688D02*
X12881553Y-14755736D01*
X12881553Y-14755736D02*
X12872030Y-14765260D01*
X12872030Y-14765260D02*
X12852982Y-14774784D01*
X12852982Y-14774784D02*
X12824410Y-14774784D01*
X13005363Y-14774784D02*
X12986315Y-14765260D01*
X12986315Y-14765260D02*
X12976791Y-14746212D01*
X12976791Y-14746212D02*
X12976791Y-14574784D01*
X13157744Y-14765260D02*
X13138696Y-14774784D01*
X13138696Y-14774784D02*
X13100601Y-14774784D01*
X13100601Y-14774784D02*
X13081553Y-14765260D01*
X13081553Y-14765260D02*
X13072030Y-14746212D01*
X13072030Y-14746212D02*
X13072030Y-14670022D01*
X13072030Y-14670022D02*
X13081553Y-14650974D01*
X13081553Y-14650974D02*
X13100601Y-14641450D01*
X13100601Y-14641450D02*
X13138696Y-14641450D01*
X13138696Y-14641450D02*
X13157744Y-14650974D01*
X13157744Y-14650974D02*
X13167268Y-14670022D01*
X13167268Y-14670022D02*
X13167268Y-14689069D01*
X13167268Y-14689069D02*
X13072030Y-14708117D01*
X13243458Y-14765260D02*
X13262506Y-14774784D01*
X13262506Y-14774784D02*
X13300601Y-14774784D01*
X13300601Y-14774784D02*
X13319649Y-14765260D01*
X13319649Y-14765260D02*
X13329172Y-14746212D01*
X13329172Y-14746212D02*
X13329172Y-14736688D01*
X13329172Y-14736688D02*
X13319649Y-14717641D01*
X13319649Y-14717641D02*
X13300601Y-14708117D01*
X13300601Y-14708117D02*
X13272030Y-14708117D01*
X13272030Y-14708117D02*
X13252982Y-14698593D01*
X13252982Y-14698593D02*
X13243458Y-14679546D01*
X13243458Y-14679546D02*
X13243458Y-14670022D01*
X13243458Y-14670022D02*
X13252982Y-14650974D01*
X13252982Y-14650974D02*
X13272030Y-14641450D01*
X13272030Y-14641450D02*
X13300601Y-14641450D01*
X13300601Y-14641450D02*
X13319649Y-14650974D01*
X13395839Y-14850974D02*
X13405363Y-14841450D01*
X13405363Y-14841450D02*
X13424411Y-14812879D01*
X13424411Y-14812879D02*
X13433934Y-14793831D01*
X13433934Y-14793831D02*
X13443458Y-14765260D01*
X13443458Y-14765260D02*
X13452982Y-14717641D01*
X13452982Y-14717641D02*
X13452982Y-14679546D01*
X13452982Y-14679546D02*
X13443458Y-14631927D01*
X13443458Y-14631927D02*
X13433934Y-14603355D01*
X13433934Y-14603355D02*
X13424411Y-14584308D01*
X13424411Y-14584308D02*
X13405363Y-14555736D01*
X13405363Y-14555736D02*
X13395839Y-14546212D01*
D13*
X8415421Y-14983221D02*
X8415421Y-14911379D01*
X8343579Y-14911379D01*
X8343579Y-14983221D01*
X8415421Y-14983221D01*
D11*
X8795839Y-15038784D02*
X8681553Y-15038784D01*
X8738696Y-15038784D02*
X8738696Y-14838784D01*
X8738696Y-14838784D02*
X8719648Y-14867355D01*
X8719648Y-14867355D02*
X8700601Y-14886403D01*
X8700601Y-14886403D02*
X8681553Y-14895927D01*
X8881553Y-15019736D02*
X8891077Y-15029260D01*
X8891077Y-15029260D02*
X8881553Y-15038784D01*
X8881553Y-15038784D02*
X8872029Y-15029260D01*
X8872029Y-15029260D02*
X8881553Y-15019736D01*
X8881553Y-15019736D02*
X8881553Y-15038784D01*
X9014886Y-14838784D02*
X9033934Y-14838784D01*
X9033934Y-14838784D02*
X9052982Y-14848308D01*
X9052982Y-14848308D02*
X9062505Y-14857831D01*
X9062505Y-14857831D02*
X9072029Y-14876879D01*
X9072029Y-14876879D02*
X9081553Y-14914974D01*
X9081553Y-14914974D02*
X9081553Y-14962593D01*
X9081553Y-14962593D02*
X9072029Y-15000688D01*
X9072029Y-15000688D02*
X9062505Y-15019736D01*
X9062505Y-15019736D02*
X9052982Y-15029260D01*
X9052982Y-15029260D02*
X9033934Y-15038784D01*
X9033934Y-15038784D02*
X9014886Y-15038784D01*
X9014886Y-15038784D02*
X8995839Y-15029260D01*
X8995839Y-15029260D02*
X8986315Y-15019736D01*
X8986315Y-15019736D02*
X8976791Y-15000688D01*
X8976791Y-15000688D02*
X8967267Y-14962593D01*
X8967267Y-14962593D02*
X8967267Y-14914974D01*
X8967267Y-14914974D02*
X8976791Y-14876879D01*
X8976791Y-14876879D02*
X8986315Y-14857831D01*
X8986315Y-14857831D02*
X8995839Y-14848308D01*
X8995839Y-14848308D02*
X9014886Y-14838784D01*
X9272029Y-15038784D02*
X9157744Y-15038784D01*
X9214886Y-15038784D02*
X9214886Y-14838784D01*
X9214886Y-14838784D02*
X9195839Y-14867355D01*
X9195839Y-14867355D02*
X9176791Y-14886403D01*
X9176791Y-14886403D02*
X9157744Y-14895927D01*
X9443458Y-14838784D02*
X9405363Y-14838784D01*
X9405363Y-14838784D02*
X9386315Y-14848308D01*
X9386315Y-14848308D02*
X9376791Y-14857831D01*
X9376791Y-14857831D02*
X9357744Y-14886403D01*
X9357744Y-14886403D02*
X9348220Y-14924498D01*
X9348220Y-14924498D02*
X9348220Y-15000688D01*
X9348220Y-15000688D02*
X9357744Y-15019736D01*
X9357744Y-15019736D02*
X9367267Y-15029260D01*
X9367267Y-15029260D02*
X9386315Y-15038784D01*
X9386315Y-15038784D02*
X9424410Y-15038784D01*
X9424410Y-15038784D02*
X9443458Y-15029260D01*
X9443458Y-15029260D02*
X9452982Y-15019736D01*
X9452982Y-15019736D02*
X9462505Y-15000688D01*
X9462505Y-15000688D02*
X9462505Y-14953069D01*
X9462505Y-14953069D02*
X9452982Y-14934022D01*
X9452982Y-14934022D02*
X9443458Y-14924498D01*
X9443458Y-14924498D02*
X9424410Y-14914974D01*
X9424410Y-14914974D02*
X9386315Y-14914974D01*
X9386315Y-14914974D02*
X9367267Y-14924498D01*
X9367267Y-14924498D02*
X9357744Y-14934022D01*
X9357744Y-14934022D02*
X9348220Y-14953069D01*
X9548220Y-15038784D02*
X9548220Y-14905450D01*
X9548220Y-14924498D02*
X9557744Y-14914974D01*
X9557744Y-14914974D02*
X9576791Y-14905450D01*
X9576791Y-14905450D02*
X9605363Y-14905450D01*
X9605363Y-14905450D02*
X9624410Y-14914974D01*
X9624410Y-14914974D02*
X9633934Y-14934022D01*
X9633934Y-14934022D02*
X9633934Y-15038784D01*
X9633934Y-14934022D02*
X9643458Y-14914974D01*
X9643458Y-14914974D02*
X9662505Y-14905450D01*
X9662505Y-14905450D02*
X9691077Y-14905450D01*
X9691077Y-14905450D02*
X9710125Y-14914974D01*
X9710125Y-14914974D02*
X9719648Y-14934022D01*
X9719648Y-14934022D02*
X9719648Y-15038784D01*
X9814886Y-15038784D02*
X9814886Y-14905450D01*
X9814886Y-14924498D02*
X9824410Y-14914974D01*
X9824410Y-14914974D02*
X9843458Y-14905450D01*
X9843458Y-14905450D02*
X9872029Y-14905450D01*
X9872029Y-14905450D02*
X9891077Y-14914974D01*
X9891077Y-14914974D02*
X9900601Y-14934022D01*
X9900601Y-14934022D02*
X9900601Y-15038784D01*
X9900601Y-14934022D02*
X9910125Y-14914974D01*
X9910125Y-14914974D02*
X9929172Y-14905450D01*
X9929172Y-14905450D02*
X9957744Y-14905450D01*
X9957744Y-14905450D02*
X9976791Y-14914974D01*
X9976791Y-14914974D02*
X9986315Y-14934022D01*
X9986315Y-14934022D02*
X9986315Y-15038784D01*
X10376791Y-14829260D02*
X10205363Y-15086403D01*
X10633934Y-14838784D02*
X10652982Y-14838784D01*
X10652982Y-14838784D02*
X10672029Y-14848308D01*
X10672029Y-14848308D02*
X10681553Y-14857831D01*
X10681553Y-14857831D02*
X10691077Y-14876879D01*
X10691077Y-14876879D02*
X10700601Y-14914974D01*
X10700601Y-14914974D02*
X10700601Y-14962593D01*
X10700601Y-14962593D02*
X10691077Y-15000688D01*
X10691077Y-15000688D02*
X10681553Y-15019736D01*
X10681553Y-15019736D02*
X10672029Y-15029260D01*
X10672029Y-15029260D02*
X10652982Y-15038784D01*
X10652982Y-15038784D02*
X10633934Y-15038784D01*
X10633934Y-15038784D02*
X10614887Y-15029260D01*
X10614887Y-15029260D02*
X10605363Y-15019736D01*
X10605363Y-15019736D02*
X10595839Y-15000688D01*
X10595839Y-15000688D02*
X10586315Y-14962593D01*
X10586315Y-14962593D02*
X10586315Y-14914974D01*
X10586315Y-14914974D02*
X10595839Y-14876879D01*
X10595839Y-14876879D02*
X10605363Y-14857831D01*
X10605363Y-14857831D02*
X10614887Y-14848308D01*
X10614887Y-14848308D02*
X10633934Y-14838784D01*
X10786315Y-15019736D02*
X10795839Y-15029260D01*
X10795839Y-15029260D02*
X10786315Y-15038784D01*
X10786315Y-15038784D02*
X10776791Y-15029260D01*
X10776791Y-15029260D02*
X10786315Y-15019736D01*
X10786315Y-15019736D02*
X10786315Y-15038784D01*
X10919648Y-14838784D02*
X10938696Y-14838784D01*
X10938696Y-14838784D02*
X10957744Y-14848308D01*
X10957744Y-14848308D02*
X10967268Y-14857831D01*
X10967268Y-14857831D02*
X10976791Y-14876879D01*
X10976791Y-14876879D02*
X10986315Y-14914974D01*
X10986315Y-14914974D02*
X10986315Y-14962593D01*
X10986315Y-14962593D02*
X10976791Y-15000688D01*
X10976791Y-15000688D02*
X10967268Y-15019736D01*
X10967268Y-15019736D02*
X10957744Y-15029260D01*
X10957744Y-15029260D02*
X10938696Y-15038784D01*
X10938696Y-15038784D02*
X10919648Y-15038784D01*
X10919648Y-15038784D02*
X10900601Y-15029260D01*
X10900601Y-15029260D02*
X10891077Y-15019736D01*
X10891077Y-15019736D02*
X10881553Y-15000688D01*
X10881553Y-15000688D02*
X10872029Y-14962593D01*
X10872029Y-14962593D02*
X10872029Y-14914974D01*
X10872029Y-14914974D02*
X10881553Y-14876879D01*
X10881553Y-14876879D02*
X10891077Y-14857831D01*
X10891077Y-14857831D02*
X10900601Y-14848308D01*
X10900601Y-14848308D02*
X10919648Y-14838784D01*
X11157744Y-14905450D02*
X11157744Y-15038784D01*
X11110125Y-14829260D02*
X11062506Y-14972117D01*
X11062506Y-14972117D02*
X11186315Y-14972117D01*
X11300601Y-14838784D02*
X11319648Y-14838784D01*
X11319648Y-14838784D02*
X11338696Y-14848308D01*
X11338696Y-14848308D02*
X11348220Y-14857831D01*
X11348220Y-14857831D02*
X11357744Y-14876879D01*
X11357744Y-14876879D02*
X11367267Y-14914974D01*
X11367267Y-14914974D02*
X11367267Y-14962593D01*
X11367267Y-14962593D02*
X11357744Y-15000688D01*
X11357744Y-15000688D02*
X11348220Y-15019736D01*
X11348220Y-15019736D02*
X11338696Y-15029260D01*
X11338696Y-15029260D02*
X11319648Y-15038784D01*
X11319648Y-15038784D02*
X11300601Y-15038784D01*
X11300601Y-15038784D02*
X11281553Y-15029260D01*
X11281553Y-15029260D02*
X11272029Y-15019736D01*
X11272029Y-15019736D02*
X11262506Y-15000688D01*
X11262506Y-15000688D02*
X11252982Y-14962593D01*
X11252982Y-14962593D02*
X11252982Y-14914974D01*
X11252982Y-14914974D02*
X11262506Y-14876879D01*
X11262506Y-14876879D02*
X11272029Y-14857831D01*
X11272029Y-14857831D02*
X11281553Y-14848308D01*
X11281553Y-14848308D02*
X11300601Y-14838784D01*
X11491077Y-14838784D02*
X11510125Y-14838784D01*
X11510125Y-14838784D02*
X11529172Y-14848308D01*
X11529172Y-14848308D02*
X11538696Y-14857831D01*
X11538696Y-14857831D02*
X11548220Y-14876879D01*
X11548220Y-14876879D02*
X11557744Y-14914974D01*
X11557744Y-14914974D02*
X11557744Y-14962593D01*
X11557744Y-14962593D02*
X11548220Y-15000688D01*
X11548220Y-15000688D02*
X11538696Y-15019736D01*
X11538696Y-15019736D02*
X11529172Y-15029260D01*
X11529172Y-15029260D02*
X11510125Y-15038784D01*
X11510125Y-15038784D02*
X11491077Y-15038784D01*
X11491077Y-15038784D02*
X11472029Y-15029260D01*
X11472029Y-15029260D02*
X11462506Y-15019736D01*
X11462506Y-15019736D02*
X11452982Y-15000688D01*
X11452982Y-15000688D02*
X11443458Y-14962593D01*
X11443458Y-14962593D02*
X11443458Y-14914974D01*
X11443458Y-14914974D02*
X11452982Y-14876879D01*
X11452982Y-14876879D02*
X11462506Y-14857831D01*
X11462506Y-14857831D02*
X11472029Y-14848308D01*
X11472029Y-14848308D02*
X11491077Y-14838784D01*
X11633934Y-14838784D02*
X11633934Y-14876879D01*
X11710125Y-14838784D02*
X11710125Y-14876879D01*
X12005363Y-15114974D02*
X11995839Y-15105450D01*
X11995839Y-15105450D02*
X11976791Y-15076879D01*
X11976791Y-15076879D02*
X11967268Y-15057831D01*
X11967268Y-15057831D02*
X11957744Y-15029260D01*
X11957744Y-15029260D02*
X11948220Y-14981641D01*
X11948220Y-14981641D02*
X11948220Y-14943546D01*
X11948220Y-14943546D02*
X11957744Y-14895927D01*
X11957744Y-14895927D02*
X11967268Y-14867355D01*
X11967268Y-14867355D02*
X11976791Y-14848308D01*
X11976791Y-14848308D02*
X11995839Y-14819736D01*
X11995839Y-14819736D02*
X12005363Y-14810212D01*
X12186315Y-15038784D02*
X12072029Y-15038784D01*
X12129172Y-15038784D02*
X12129172Y-14838784D01*
X12129172Y-14838784D02*
X12110125Y-14867355D01*
X12110125Y-14867355D02*
X12091077Y-14886403D01*
X12091077Y-14886403D02*
X12072029Y-14895927D01*
X12310125Y-14838784D02*
X12329172Y-14838784D01*
X12329172Y-14838784D02*
X12348220Y-14848308D01*
X12348220Y-14848308D02*
X12357744Y-14857831D01*
X12357744Y-14857831D02*
X12367268Y-14876879D01*
X12367268Y-14876879D02*
X12376791Y-14914974D01*
X12376791Y-14914974D02*
X12376791Y-14962593D01*
X12376791Y-14962593D02*
X12367268Y-15000688D01*
X12367268Y-15000688D02*
X12357744Y-15019736D01*
X12357744Y-15019736D02*
X12348220Y-15029260D01*
X12348220Y-15029260D02*
X12329172Y-15038784D01*
X12329172Y-15038784D02*
X12310125Y-15038784D01*
X12310125Y-15038784D02*
X12291077Y-15029260D01*
X12291077Y-15029260D02*
X12281553Y-15019736D01*
X12281553Y-15019736D02*
X12272029Y-15000688D01*
X12272029Y-15000688D02*
X12262506Y-14962593D01*
X12262506Y-14962593D02*
X12262506Y-14914974D01*
X12262506Y-14914974D02*
X12272029Y-14876879D01*
X12272029Y-14876879D02*
X12281553Y-14857831D01*
X12281553Y-14857831D02*
X12291077Y-14848308D01*
X12291077Y-14848308D02*
X12310125Y-14838784D01*
X12614887Y-15038784D02*
X12614887Y-14838784D01*
X12700601Y-15038784D02*
X12700601Y-14934022D01*
X12700601Y-14934022D02*
X12691077Y-14914974D01*
X12691077Y-14914974D02*
X12672030Y-14905450D01*
X12672030Y-14905450D02*
X12643458Y-14905450D01*
X12643458Y-14905450D02*
X12624410Y-14914974D01*
X12624410Y-14914974D02*
X12614887Y-14924498D01*
X12824410Y-15038784D02*
X12805363Y-15029260D01*
X12805363Y-15029260D02*
X12795839Y-15019736D01*
X12795839Y-15019736D02*
X12786315Y-15000688D01*
X12786315Y-15000688D02*
X12786315Y-14943546D01*
X12786315Y-14943546D02*
X12795839Y-14924498D01*
X12795839Y-14924498D02*
X12805363Y-14914974D01*
X12805363Y-14914974D02*
X12824410Y-14905450D01*
X12824410Y-14905450D02*
X12852982Y-14905450D01*
X12852982Y-14905450D02*
X12872030Y-14914974D01*
X12872030Y-14914974D02*
X12881553Y-14924498D01*
X12881553Y-14924498D02*
X12891077Y-14943546D01*
X12891077Y-14943546D02*
X12891077Y-15000688D01*
X12891077Y-15000688D02*
X12881553Y-15019736D01*
X12881553Y-15019736D02*
X12872030Y-15029260D01*
X12872030Y-15029260D02*
X12852982Y-15038784D01*
X12852982Y-15038784D02*
X12824410Y-15038784D01*
X13005363Y-15038784D02*
X12986315Y-15029260D01*
X12986315Y-15029260D02*
X12976791Y-15010212D01*
X12976791Y-15010212D02*
X12976791Y-14838784D01*
X13157744Y-15029260D02*
X13138696Y-15038784D01*
X13138696Y-15038784D02*
X13100601Y-15038784D01*
X13100601Y-15038784D02*
X13081553Y-15029260D01*
X13081553Y-15029260D02*
X13072030Y-15010212D01*
X13072030Y-15010212D02*
X13072030Y-14934022D01*
X13072030Y-14934022D02*
X13081553Y-14914974D01*
X13081553Y-14914974D02*
X13100601Y-14905450D01*
X13100601Y-14905450D02*
X13138696Y-14905450D01*
X13138696Y-14905450D02*
X13157744Y-14914974D01*
X13157744Y-14914974D02*
X13167268Y-14934022D01*
X13167268Y-14934022D02*
X13167268Y-14953069D01*
X13167268Y-14953069D02*
X13072030Y-14972117D01*
X13243458Y-15029260D02*
X13262506Y-15038784D01*
X13262506Y-15038784D02*
X13300601Y-15038784D01*
X13300601Y-15038784D02*
X13319649Y-15029260D01*
X13319649Y-15029260D02*
X13329172Y-15010212D01*
X13329172Y-15010212D02*
X13329172Y-15000688D01*
X13329172Y-15000688D02*
X13319649Y-14981641D01*
X13319649Y-14981641D02*
X13300601Y-14972117D01*
X13300601Y-14972117D02*
X13272030Y-14972117D01*
X13272030Y-14972117D02*
X13252982Y-14962593D01*
X13252982Y-14962593D02*
X13243458Y-14943546D01*
X13243458Y-14943546D02*
X13243458Y-14934022D01*
X13243458Y-14934022D02*
X13252982Y-14914974D01*
X13252982Y-14914974D02*
X13272030Y-14905450D01*
X13272030Y-14905450D02*
X13300601Y-14905450D01*
X13300601Y-14905450D02*
X13319649Y-14914974D01*
X13395839Y-15114974D02*
X13405363Y-15105450D01*
X13405363Y-15105450D02*
X13424411Y-15076879D01*
X13424411Y-15076879D02*
X13433934Y-15057831D01*
X13433934Y-15057831D02*
X13443458Y-15029260D01*
X13443458Y-15029260D02*
X13452982Y-14981641D01*
X13452982Y-14981641D02*
X13452982Y-14943546D01*
X13452982Y-14943546D02*
X13443458Y-14895927D01*
X13443458Y-14895927D02*
X13433934Y-14867355D01*
X13433934Y-14867355D02*
X13424411Y-14848308D01*
X13424411Y-14848308D02*
X13405363Y-14819736D01*
X13405363Y-14819736D02*
X13395839Y-14810212D01*
D14*
X8357800Y-15283800D02*
X8430300Y-15211300D01*
X8357800Y-15138800D01*
X8285300Y-15211300D01*
X8357800Y-15283800D01*
D11*
X8795839Y-15302784D02*
X8681553Y-15302784D01*
X8738696Y-15302784D02*
X8738696Y-15102784D01*
X8738696Y-15102784D02*
X8719648Y-15131355D01*
X8719648Y-15131355D02*
X8700601Y-15150403D01*
X8700601Y-15150403D02*
X8681553Y-15159927D01*
X8881553Y-15283736D02*
X8891077Y-15293260D01*
X8891077Y-15293260D02*
X8881553Y-15302784D01*
X8881553Y-15302784D02*
X8872029Y-15293260D01*
X8872029Y-15293260D02*
X8881553Y-15283736D01*
X8881553Y-15283736D02*
X8881553Y-15302784D01*
X9062505Y-15169450D02*
X9062505Y-15302784D01*
X9014886Y-15093260D02*
X8967267Y-15236117D01*
X8967267Y-15236117D02*
X9091077Y-15236117D01*
X9262505Y-15102784D02*
X9167267Y-15102784D01*
X9167267Y-15102784D02*
X9157744Y-15198022D01*
X9157744Y-15198022D02*
X9167267Y-15188498D01*
X9167267Y-15188498D02*
X9186315Y-15178974D01*
X9186315Y-15178974D02*
X9233934Y-15178974D01*
X9233934Y-15178974D02*
X9252982Y-15188498D01*
X9252982Y-15188498D02*
X9262505Y-15198022D01*
X9262505Y-15198022D02*
X9272029Y-15217069D01*
X9272029Y-15217069D02*
X9272029Y-15264688D01*
X9272029Y-15264688D02*
X9262505Y-15283736D01*
X9262505Y-15283736D02*
X9252982Y-15293260D01*
X9252982Y-15293260D02*
X9233934Y-15302784D01*
X9233934Y-15302784D02*
X9186315Y-15302784D01*
X9186315Y-15302784D02*
X9167267Y-15293260D01*
X9167267Y-15293260D02*
X9157744Y-15283736D01*
X9395839Y-15102784D02*
X9414886Y-15102784D01*
X9414886Y-15102784D02*
X9433934Y-15112308D01*
X9433934Y-15112308D02*
X9443458Y-15121831D01*
X9443458Y-15121831D02*
X9452982Y-15140879D01*
X9452982Y-15140879D02*
X9462505Y-15178974D01*
X9462505Y-15178974D02*
X9462505Y-15226593D01*
X9462505Y-15226593D02*
X9452982Y-15264688D01*
X9452982Y-15264688D02*
X9443458Y-15283736D01*
X9443458Y-15283736D02*
X9433934Y-15293260D01*
X9433934Y-15293260D02*
X9414886Y-15302784D01*
X9414886Y-15302784D02*
X9395839Y-15302784D01*
X9395839Y-15302784D02*
X9376791Y-15293260D01*
X9376791Y-15293260D02*
X9367267Y-15283736D01*
X9367267Y-15283736D02*
X9357744Y-15264688D01*
X9357744Y-15264688D02*
X9348220Y-15226593D01*
X9348220Y-15226593D02*
X9348220Y-15178974D01*
X9348220Y-15178974D02*
X9357744Y-15140879D01*
X9357744Y-15140879D02*
X9367267Y-15121831D01*
X9367267Y-15121831D02*
X9376791Y-15112308D01*
X9376791Y-15112308D02*
X9395839Y-15102784D01*
X9548220Y-15302784D02*
X9548220Y-15169450D01*
X9548220Y-15188498D02*
X9557744Y-15178974D01*
X9557744Y-15178974D02*
X9576791Y-15169450D01*
X9576791Y-15169450D02*
X9605363Y-15169450D01*
X9605363Y-15169450D02*
X9624410Y-15178974D01*
X9624410Y-15178974D02*
X9633934Y-15198022D01*
X9633934Y-15198022D02*
X9633934Y-15302784D01*
X9633934Y-15198022D02*
X9643458Y-15178974D01*
X9643458Y-15178974D02*
X9662505Y-15169450D01*
X9662505Y-15169450D02*
X9691077Y-15169450D01*
X9691077Y-15169450D02*
X9710125Y-15178974D01*
X9710125Y-15178974D02*
X9719648Y-15198022D01*
X9719648Y-15198022D02*
X9719648Y-15302784D01*
X9814886Y-15302784D02*
X9814886Y-15169450D01*
X9814886Y-15188498D02*
X9824410Y-15178974D01*
X9824410Y-15178974D02*
X9843458Y-15169450D01*
X9843458Y-15169450D02*
X9872029Y-15169450D01*
X9872029Y-15169450D02*
X9891077Y-15178974D01*
X9891077Y-15178974D02*
X9900601Y-15198022D01*
X9900601Y-15198022D02*
X9900601Y-15302784D01*
X9900601Y-15198022D02*
X9910125Y-15178974D01*
X9910125Y-15178974D02*
X9929172Y-15169450D01*
X9929172Y-15169450D02*
X9957744Y-15169450D01*
X9957744Y-15169450D02*
X9976791Y-15178974D01*
X9976791Y-15178974D02*
X9986315Y-15198022D01*
X9986315Y-15198022D02*
X9986315Y-15302784D01*
X10376791Y-15093260D02*
X10205363Y-15350403D01*
X10633934Y-15102784D02*
X10652982Y-15102784D01*
X10652982Y-15102784D02*
X10672029Y-15112308D01*
X10672029Y-15112308D02*
X10681553Y-15121831D01*
X10681553Y-15121831D02*
X10691077Y-15140879D01*
X10691077Y-15140879D02*
X10700601Y-15178974D01*
X10700601Y-15178974D02*
X10700601Y-15226593D01*
X10700601Y-15226593D02*
X10691077Y-15264688D01*
X10691077Y-15264688D02*
X10681553Y-15283736D01*
X10681553Y-15283736D02*
X10672029Y-15293260D01*
X10672029Y-15293260D02*
X10652982Y-15302784D01*
X10652982Y-15302784D02*
X10633934Y-15302784D01*
X10633934Y-15302784D02*
X10614887Y-15293260D01*
X10614887Y-15293260D02*
X10605363Y-15283736D01*
X10605363Y-15283736D02*
X10595839Y-15264688D01*
X10595839Y-15264688D02*
X10586315Y-15226593D01*
X10586315Y-15226593D02*
X10586315Y-15178974D01*
X10586315Y-15178974D02*
X10595839Y-15140879D01*
X10595839Y-15140879D02*
X10605363Y-15121831D01*
X10605363Y-15121831D02*
X10614887Y-15112308D01*
X10614887Y-15112308D02*
X10633934Y-15102784D01*
X10786315Y-15283736D02*
X10795839Y-15293260D01*
X10795839Y-15293260D02*
X10786315Y-15302784D01*
X10786315Y-15302784D02*
X10776791Y-15293260D01*
X10776791Y-15293260D02*
X10786315Y-15283736D01*
X10786315Y-15283736D02*
X10786315Y-15302784D01*
X10919648Y-15102784D02*
X10938696Y-15102784D01*
X10938696Y-15102784D02*
X10957744Y-15112308D01*
X10957744Y-15112308D02*
X10967268Y-15121831D01*
X10967268Y-15121831D02*
X10976791Y-15140879D01*
X10976791Y-15140879D02*
X10986315Y-15178974D01*
X10986315Y-15178974D02*
X10986315Y-15226593D01*
X10986315Y-15226593D02*
X10976791Y-15264688D01*
X10976791Y-15264688D02*
X10967268Y-15283736D01*
X10967268Y-15283736D02*
X10957744Y-15293260D01*
X10957744Y-15293260D02*
X10938696Y-15302784D01*
X10938696Y-15302784D02*
X10919648Y-15302784D01*
X10919648Y-15302784D02*
X10900601Y-15293260D01*
X10900601Y-15293260D02*
X10891077Y-15283736D01*
X10891077Y-15283736D02*
X10881553Y-15264688D01*
X10881553Y-15264688D02*
X10872029Y-15226593D01*
X10872029Y-15226593D02*
X10872029Y-15178974D01*
X10872029Y-15178974D02*
X10881553Y-15140879D01*
X10881553Y-15140879D02*
X10891077Y-15121831D01*
X10891077Y-15121831D02*
X10900601Y-15112308D01*
X10900601Y-15112308D02*
X10919648Y-15102784D01*
X11167268Y-15102784D02*
X11072029Y-15102784D01*
X11072029Y-15102784D02*
X11062506Y-15198022D01*
X11062506Y-15198022D02*
X11072029Y-15188498D01*
X11072029Y-15188498D02*
X11091077Y-15178974D01*
X11091077Y-15178974D02*
X11138696Y-15178974D01*
X11138696Y-15178974D02*
X11157744Y-15188498D01*
X11157744Y-15188498D02*
X11167268Y-15198022D01*
X11167268Y-15198022D02*
X11176791Y-15217069D01*
X11176791Y-15217069D02*
X11176791Y-15264688D01*
X11176791Y-15264688D02*
X11167268Y-15283736D01*
X11167268Y-15283736D02*
X11157744Y-15293260D01*
X11157744Y-15293260D02*
X11138696Y-15302784D01*
X11138696Y-15302784D02*
X11091077Y-15302784D01*
X11091077Y-15302784D02*
X11072029Y-15293260D01*
X11072029Y-15293260D02*
X11062506Y-15283736D01*
X11243458Y-15102784D02*
X11376791Y-15102784D01*
X11376791Y-15102784D02*
X11291077Y-15302784D01*
X11557744Y-15302784D02*
X11443458Y-15302784D01*
X11500601Y-15302784D02*
X11500601Y-15102784D01*
X11500601Y-15102784D02*
X11481553Y-15131355D01*
X11481553Y-15131355D02*
X11462506Y-15150403D01*
X11462506Y-15150403D02*
X11443458Y-15159927D01*
X11633934Y-15102784D02*
X11633934Y-15140879D01*
X11710125Y-15102784D02*
X11710125Y-15140879D01*
X12005363Y-15378974D02*
X11995839Y-15369450D01*
X11995839Y-15369450D02*
X11976791Y-15340879D01*
X11976791Y-15340879D02*
X11967268Y-15321831D01*
X11967268Y-15321831D02*
X11957744Y-15293260D01*
X11957744Y-15293260D02*
X11948220Y-15245641D01*
X11948220Y-15245641D02*
X11948220Y-15207546D01*
X11948220Y-15207546D02*
X11957744Y-15159927D01*
X11957744Y-15159927D02*
X11967268Y-15131355D01*
X11967268Y-15131355D02*
X11976791Y-15112308D01*
X11976791Y-15112308D02*
X11995839Y-15083736D01*
X11995839Y-15083736D02*
X12005363Y-15074212D01*
X12072029Y-15121831D02*
X12081553Y-15112308D01*
X12081553Y-15112308D02*
X12100601Y-15102784D01*
X12100601Y-15102784D02*
X12148220Y-15102784D01*
X12148220Y-15102784D02*
X12167268Y-15112308D01*
X12167268Y-15112308D02*
X12176791Y-15121831D01*
X12176791Y-15121831D02*
X12186315Y-15140879D01*
X12186315Y-15140879D02*
X12186315Y-15159927D01*
X12186315Y-15159927D02*
X12176791Y-15188498D01*
X12176791Y-15188498D02*
X12062506Y-15302784D01*
X12062506Y-15302784D02*
X12186315Y-15302784D01*
X12424410Y-15302784D02*
X12424410Y-15102784D01*
X12510125Y-15302784D02*
X12510125Y-15198022D01*
X12510125Y-15198022D02*
X12500601Y-15178974D01*
X12500601Y-15178974D02*
X12481553Y-15169450D01*
X12481553Y-15169450D02*
X12452982Y-15169450D01*
X12452982Y-15169450D02*
X12433934Y-15178974D01*
X12433934Y-15178974D02*
X12424410Y-15188498D01*
X12633934Y-15302784D02*
X12614887Y-15293260D01*
X12614887Y-15293260D02*
X12605363Y-15283736D01*
X12605363Y-15283736D02*
X12595839Y-15264688D01*
X12595839Y-15264688D02*
X12595839Y-15207546D01*
X12595839Y-15207546D02*
X12605363Y-15188498D01*
X12605363Y-15188498D02*
X12614887Y-15178974D01*
X12614887Y-15178974D02*
X12633934Y-15169450D01*
X12633934Y-15169450D02*
X12662506Y-15169450D01*
X12662506Y-15169450D02*
X12681553Y-15178974D01*
X12681553Y-15178974D02*
X12691077Y-15188498D01*
X12691077Y-15188498D02*
X12700601Y-15207546D01*
X12700601Y-15207546D02*
X12700601Y-15264688D01*
X12700601Y-15264688D02*
X12691077Y-15283736D01*
X12691077Y-15283736D02*
X12681553Y-15293260D01*
X12681553Y-15293260D02*
X12662506Y-15302784D01*
X12662506Y-15302784D02*
X12633934Y-15302784D01*
X12814887Y-15302784D02*
X12795839Y-15293260D01*
X12795839Y-15293260D02*
X12786315Y-15274212D01*
X12786315Y-15274212D02*
X12786315Y-15102784D01*
X12967268Y-15293260D02*
X12948220Y-15302784D01*
X12948220Y-15302784D02*
X12910125Y-15302784D01*
X12910125Y-15302784D02*
X12891077Y-15293260D01*
X12891077Y-15293260D02*
X12881553Y-15274212D01*
X12881553Y-15274212D02*
X12881553Y-15198022D01*
X12881553Y-15198022D02*
X12891077Y-15178974D01*
X12891077Y-15178974D02*
X12910125Y-15169450D01*
X12910125Y-15169450D02*
X12948220Y-15169450D01*
X12948220Y-15169450D02*
X12967268Y-15178974D01*
X12967268Y-15178974D02*
X12976791Y-15198022D01*
X12976791Y-15198022D02*
X12976791Y-15217069D01*
X12976791Y-15217069D02*
X12881553Y-15236117D01*
X13052982Y-15293260D02*
X13072030Y-15302784D01*
X13072030Y-15302784D02*
X13110125Y-15302784D01*
X13110125Y-15302784D02*
X13129172Y-15293260D01*
X13129172Y-15293260D02*
X13138696Y-15274212D01*
X13138696Y-15274212D02*
X13138696Y-15264688D01*
X13138696Y-15264688D02*
X13129172Y-15245641D01*
X13129172Y-15245641D02*
X13110125Y-15236117D01*
X13110125Y-15236117D02*
X13081553Y-15236117D01*
X13081553Y-15236117D02*
X13062506Y-15226593D01*
X13062506Y-15226593D02*
X13052982Y-15207546D01*
X13052982Y-15207546D02*
X13052982Y-15198022D01*
X13052982Y-15198022D02*
X13062506Y-15178974D01*
X13062506Y-15178974D02*
X13081553Y-15169450D01*
X13081553Y-15169450D02*
X13110125Y-15169450D01*
X13110125Y-15169450D02*
X13129172Y-15178974D01*
X13205363Y-15378974D02*
X13214887Y-15369450D01*
X13214887Y-15369450D02*
X13233934Y-15340879D01*
X13233934Y-15340879D02*
X13243458Y-15321831D01*
X13243458Y-15321831D02*
X13252982Y-15293260D01*
X13252982Y-15293260D02*
X13262506Y-15245641D01*
X13262506Y-15245641D02*
X13262506Y-15207546D01*
X13262506Y-15207546D02*
X13252982Y-15159927D01*
X13252982Y-15159927D02*
X13243458Y-15131355D01*
X13243458Y-15131355D02*
X13233934Y-15112308D01*
X13233934Y-15112308D02*
X13214887Y-15083736D01*
X13214887Y-15083736D02*
X13205363Y-15074212D01*
M02*
